<?xml version="1.0" standalone="no"?><!DOCTYPE svg PUBLIC "-//W3C//DTD SVG 1.1//EN" "http://www.w3.org/Graphics/SVG/1.1/DTD/svg11.dtd"><svg xmlns:xlink="http://www.w3.org/1999/xlink" version="1.1" style="font-family:'lucida grande', 'lucida sans unicode', arial, helvetica, sans-serif;font-size:12px;" xmlns="http://www.w3.org/2000/svg" width="600" height="400"><desc>Created with Highcharts 4.1.5</desc><defs><clipPath id="highcharts-12"><rect x="0" y="0" width="511" height="205"></rect></clipPath></defs><rect x="0" y="0" width="600" height="400" strokeWidth="0" fill="#FFFFFF" class=" highcharts-background"></rect><path fill="none" d="M 79 243.5 L 590 243.5" stroke="#808080" stroke-width="1"></path><g class="highcharts-grid" ></g><g class="highcharts-grid" ><path fill="none" d="M 79 294.5 L 590 294.5" stroke="#D8D8D8" stroke-width="1"  opacity="1"></path><path fill="none" d="M 79 243.5 L 590 243.5" stroke="#D8D8D8" stroke-width="1"  opacity="1"></path><path fill="none" d="M 79 192.5 L 590 192.5" stroke="#D8D8D8" stroke-width="1"  opacity="1"></path><path fill="none" d="M 79 140.5 L 590 140.5" stroke="#D8D8D8" stroke-width="1"  opacity="1"></path><path fill="none" d="M 79 88.5 L 590 88.5" stroke="#D8D8D8" stroke-width="1"  opacity="1"></path></g><g class="highcharts-axis" ><path fill="none" d="M 104.5 294 L 104.5 304" stroke="#C0D0E0" stroke-width="1" opacity="1"></path><path fill="none" d="M 129.5 294 L 129.5 304" stroke="#C0D0E0" stroke-width="1" opacity="1"></path><path fill="none" d="M 155.5 294 L 155.5 304" stroke="#C0D0E0" stroke-width="1" opacity="1"></path><path fill="none" d="M 180.5 294 L 180.5 304" stroke="#C0D0E0" stroke-width="1" opacity="1"></path><path fill="none" d="M 206.5 294 L 206.5 304" stroke="#C0D0E0" stroke-width="1" opacity="1"></path><path fill="none" d="M 231.5 294 L 231.5 304" stroke="#C0D0E0" stroke-width="1" opacity="1"></path><path fill="none" d="M 257.5 294 L 257.5 304" stroke="#C0D0E0" stroke-width="1" opacity="1"></path><path fill="none" d="M 282.5 294 L 282.5 304" stroke="#C0D0E0" stroke-width="1" opacity="1"></path><path fill="none" d="M 308.5 294 L 308.5 304" stroke="#C0D0E0" stroke-width="1" opacity="1"></path><path fill="none" d="M 334.5 294 L 334.5 304" stroke="#C0D0E0" stroke-width="1" opacity="1"></path><path fill="none" d="M 359.5 294 L 359.5 304" stroke="#C0D0E0" stroke-width="1" opacity="1"></path><path fill="none" d="M 385.5 294 L 385.5 304" stroke="#C0D0E0" stroke-width="1" opacity="1"></path><path fill="none" d="M 410.5 294 L 410.5 304" stroke="#C0D0E0" stroke-width="1" opacity="1"></path><path fill="none" d="M 436.5 294 L 436.5 304" stroke="#C0D0E0" stroke-width="1" opacity="1"></path><path fill="none" d="M 461.5 294 L 461.5 304" stroke="#C0D0E0" stroke-width="1" opacity="1"></path><path fill="none" d="M 487.5 294 L 487.5 304" stroke="#C0D0E0" stroke-width="1" opacity="1"></path><path fill="none" d="M 512.5 294 L 512.5 304" stroke="#C0D0E0" stroke-width="1" opacity="1"></path><path fill="none" d="M 538.5 294 L 538.5 304" stroke="#C0D0E0" stroke-width="1" opacity="1"></path><path fill="none" d="M 563.5 294 L 563.5 304" stroke="#C0D0E0" stroke-width="1" opacity="1"></path><path fill="none" d="M 590.5 294 L 590.5 304" stroke="#C0D0E0" stroke-width="1" opacity="1"></path><path fill="none" d="M 78.5 294 L 78.5 304" stroke="#C0D0E0" stroke-width="1" opacity="1"></path><path fill="none" d="M 79 294.5 L 590 294.5" stroke="#C0D0E0" stroke-width="1"  visibility="visible"></path></g><g class="highcharts-axis" ><text x="25.200000762939453"  text-anchor="middle" transform="translate(0,0) rotate(270 25.200000762939453 191.5)" class=" highcharts-yaxis-title" style="color:#707070;fill:#707070;" visibility="visible" y="191.5"><tspan>Number of Jews</tspan></text></g><g class="highcharts-series-group" ><g class="highcharts-series" visibility="visible"  transform="translate(79,89) scale(1 1)" clip-path="url(#highcharts-12)"><path fill="none" d="M 12.775 152.315 L 38.325 147.6 L 63.875 145.96 L 89.42500000000001 132.1225 L 114.97500000000001 120.84750000000001 L 140.525 106.7025 L 166.07500000000002 82.00000000000001 L 191.625 42.845 L 217.175 48.482500000000016 L 242.72500000000002 59.55250000000001 L 268.275 53.71000000000001 L 293.825 89.79 L 319.375 104.96000000000001 L 344.925 111.00750000000001 L 370.47499999999997 110.7 L 396.025 108.855 L 421.575 107.625 L 447.125 104.96000000000001 L 472.675 152.41750000000002 L 498.22499999999997 145.55" stroke="#7cb5ec" stroke-width="2"  stroke-linejoin="round" stroke-linecap="round"></path></g><g class="highcharts-markers" visibility="visible"  transform="translate(79,89) scale(1 1)" clip-path="none"><path fill="#7cb5ec" d="M 498 141.55 C 503.328 141.55 503.328 149.55 498 149.55 C 492.672 149.55 492.672 141.55 498 141.55 Z"></path><path fill="#7cb5ec" d="M 472 148.41750000000002 C 477.328 148.41750000000002 477.328 156.41750000000002 472 156.41750000000002 C 466.672 156.41750000000002 466.672 148.41750000000002 472 148.41750000000002 Z"></path><path fill="#7cb5ec" d="M 447 100.96000000000001 C 452.328 100.96000000000001 452.328 108.96000000000001 447 108.96000000000001 C 441.672 108.96000000000001 441.672 100.96000000000001 447 100.96000000000001 Z"></path><path fill="#7cb5ec" d="M 421 103.625 C 426.328 103.625 426.328 111.625 421 111.625 C 415.672 111.625 415.672 103.625 421 103.625 Z"></path><path fill="#7cb5ec" d="M 396 104.855 C 401.328 104.855 401.328 112.855 396 112.855 C 390.672 112.855 390.672 104.855 396 104.855 Z"></path><path fill="#7cb5ec" d="M 370 106.7 C 375.328 106.7 375.328 114.7 370 114.7 C 364.672 114.7 364.672 106.7 370 106.7 Z"></path><path fill="#7cb5ec" d="M 344 107.00750000000001 C 349.328 107.00750000000001 349.328 115.00750000000001 344 115.00750000000001 C 338.672 115.00750000000001 338.672 107.00750000000001 344 107.00750000000001 Z"></path><path fill="#7cb5ec" d="M 319 100.96000000000001 C 324.328 100.96000000000001 324.328 108.96000000000001 319 108.96000000000001 C 313.672 108.96000000000001 313.672 100.96000000000001 319 100.96000000000001 Z"></path><path fill="#7cb5ec" d="M 293 85.79 C 298.328 85.79 298.328 93.79 293 93.79 C 287.672 93.79 287.672 85.79 293 85.79 Z"></path><path fill="#7cb5ec" d="M 268 49.71000000000001 C 273.328 49.71000000000001 273.328 57.71000000000001 268 57.71000000000001 C 262.672 57.71000000000001 262.672 49.71000000000001 268 49.71000000000001 Z"></path><path fill="#7cb5ec" d="M 242 55.55250000000001 C 247.328 55.55250000000001 247.328 63.55250000000001 242 63.55250000000001 C 236.672 63.55250000000001 236.672 55.55250000000001 242 55.55250000000001 Z"></path><path fill="#7cb5ec" d="M 217 44.482500000000016 C 222.328 44.482500000000016 222.328 52.482500000000016 217 52.482500000000016 C 211.672 52.482500000000016 211.672 44.482500000000016 217 44.482500000000016 Z"></path><path fill="#7cb5ec" d="M 191 38.845 C 196.328 38.845 196.328 46.845 191 46.845 C 185.672 46.845 185.672 38.845 191 38.845 Z"></path><path fill="#7cb5ec" d="M 166 78.00000000000001 C 171.328 78.00000000000001 171.328 86.00000000000001 166 86.00000000000001 C 160.672 86.00000000000001 160.672 78.00000000000001 166 78.00000000000001 Z"></path><path fill="#7cb5ec" d="M 140 102.7025 C 145.328 102.7025 145.328 110.7025 140 110.7025 C 134.672 110.7025 134.672 102.7025 140 102.7025 Z"></path><path fill="#7cb5ec" d="M 114 116.84750000000001 C 119.328 116.84750000000001 119.328 124.84750000000001 114 124.84750000000001 C 108.672 124.84750000000001 108.672 116.84750000000001 114 116.84750000000001 Z"></path><path fill="#7cb5ec" d="M 89 128.1225 C 94.328 128.1225 94.328 136.1225 89 136.1225 C 83.672 136.1225 83.672 128.1225 89 128.1225 Z"></path><path fill="#7cb5ec" d="M 63 141.96 C 68.328 141.96 68.328 149.96 63 149.96 C 57.672 149.96 57.672 141.96 63 141.96 Z"></path><path fill="#7cb5ec" d="M 38 143.6 C 43.328 143.6 43.328 151.6 38 151.6 C 32.672 151.6 32.672 143.6 38 143.6 Z"></path><path fill="#7cb5ec" d="M 12 148.315 C 17.328 148.315 17.328 156.315 12 156.315 C 6.672 156.315 6.672 148.315 12 148.315 Z"></path></g><g class="highcharts-series" visibility="visible"  transform="translate(79,89) scale(1 1)" clip-path="url(#highcharts-12)"><path fill="none" d="M 12.775 153.75 L 38.325 153.75 L 63.875 153.75 L 89.42500000000001 153.75 L 114.97500000000001 153.75 L 140.525 153.75 L 166.07500000000002 151.7 L 191.625 145.6525 L 217.175 144.8325 L 242.72500000000002 140.3225 L 268.275 140.22 L 293.825 143.91 L 319.375 141.9625 L 344.925 138.8875 L 370.47499999999997 136.8375 L 396.025 97.375 L 421.575 148.625 L 447.125 150.47 L 472.675 153.75 L 498.22499999999997 148.625" stroke="#434348" stroke-width="2"  stroke-linejoin="round" stroke-linecap="round"></path></g><g class="highcharts-markers" visibility="visible"  transform="translate(79,89) scale(1 1)" clip-path="none"><path fill="#434348" d="M 498 144.625 L 502 148.625 498 152.625 494 148.625 Z"></path><path fill="#434348" d="M 472 149.75 L 476 153.75 472 157.75 468 153.75 Z"></path><path fill="#434348" d="M 447 146.47 L 451 150.47 447 154.47 443 150.47 Z"></path><path fill="#434348" d="M 421 144.625 L 425 148.625 421 152.625 417 148.625 Z"></path><path fill="#434348" d="M 396 93.375 L 400 97.375 396 101.375 392 97.375 Z"></path><path fill="#434348" d="M 370 132.8375 L 374 136.8375 370 140.8375 366 136.8375 Z"></path><path fill="#434348" d="M 344 134.8875 L 348 138.8875 344 142.8875 340 138.8875 Z"></path><path fill="#434348" d="M 319 137.9625 L 323 141.9625 319 145.9625 315 141.9625 Z"></path><path fill="#434348" d="M 293 139.91 L 297 143.91 293 147.91 289 143.91 Z"></path><path fill="#434348" d="M 268 136.22 L 272 140.22 268 144.22 264 140.22 Z"></path><path fill="#434348" d="M 242 136.3225 L 246 140.3225 242 144.3225 238 140.3225 Z"></path><path fill="#434348" d="M 217 140.8325 L 221 144.8325 217 148.8325 213 144.8325 Z"></path><path fill="#434348" d="M 191 141.6525 L 195 145.6525 191 149.6525 187 145.6525 Z"></path><path fill="#434348" d="M 166 147.7 L 170 151.7 166 155.7 162 151.7 Z"></path><path fill="#434348" d="M 140 149.75 L 144 153.75 140 157.75 136 153.75 Z"></path><path fill="#434348" d="M 114 149.75 L 118 153.75 114 157.75 110 153.75 Z"></path><path fill="#434348" d="M 89 149.75 L 93 153.75 89 157.75 85 153.75 Z"></path><path fill="#434348" d="M 63 149.75 L 67 153.75 63 157.75 59 153.75 Z"></path><path fill="#434348" d="M 38 149.75 L 42 153.75 38 157.75 34 153.75 Z"></path><path fill="#434348" d="M 12 149.75 L 16 153.75 12 157.75 8 153.75 Z"></path></g><g class="highcharts-series" visibility="visible"  transform="translate(79,89) scale(1 1)" clip-path="url(#highcharts-12)"><path fill="none" d="M 12.775 153.75 L 38.325 153.75 L 63.875 153.75 L 89.42500000000001 153.75 L 114.97500000000001 153.75 L 140.525 153.135 L 166.07500000000002 146.78 L 191.625 137.35000000000002 L 217.175 133.865 L 242.72500000000002 134.1725 L 268.275 133.04500000000002 L 293.825 131.61 L 319.375 130.2775 L 344.925 131.61 L 370.47499999999997 127.10000000000001 L 396.025 148.625 L 421.575 153.54500000000002 L 447.125 153.54500000000002 L 472.675 153.54500000000002 L 498.22499999999997 146.575" stroke="#90ed7d" stroke-width="2"  stroke-linejoin="round" stroke-linecap="round"></path></g><g class="highcharts-markers" visibility="visible"  transform="translate(79,89) scale(1 1)" clip-path="none"><path fill="#90ed7d" d="M 494 142.575 L 502 142.575 502 150.575 494 150.575 Z"></path><path fill="#90ed7d" d="M 468 149.54500000000002 L 476 149.54500000000002 476 157.54500000000002 468 157.54500000000002 Z"></path><path fill="#90ed7d" d="M 443 149.54500000000002 L 451 149.54500000000002 451 157.54500000000002 443 157.54500000000002 Z"></path><path fill="#90ed7d" d="M 417 149.54500000000002 L 425 149.54500000000002 425 157.54500000000002 417 157.54500000000002 Z"></path><path fill="#90ed7d" d="M 392 144.625 L 400 144.625 400 152.625 392 152.625 Z"></path><path fill="#90ed7d" d="M 366 123.10000000000001 L 374 123.10000000000001 374 131.10000000000002 366 131.10000000000002 Z"></path><path fill="#90ed7d" d="M 340 127.61000000000001 L 348 127.61000000000001 348 135.61 340 135.61 Z"></path><path fill="#90ed7d" d="M 315 126.2775 L 323 126.2775 323 134.2775 315 134.2775 Z"></path><path fill="#90ed7d" d="M 289 127.61000000000001 L 297 127.61000000000001 297 135.61 289 135.61 Z"></path><path fill="#90ed7d" d="M 264 129.04500000000002 L 272 129.04500000000002 272 137.04500000000002 264 137.04500000000002 Z"></path><path fill="#90ed7d" d="M 238 130.1725 L 246 130.1725 246 138.1725 238 138.1725 Z"></path><path fill="#90ed7d" d="M 213 129.865 L 221 129.865 221 137.865 213 137.865 Z"></path><path fill="#90ed7d" d="M 187 133.35000000000002 L 195 133.35000000000002 195 141.35000000000002 187 141.35000000000002 Z"></path><path fill="#90ed7d" d="M 162 142.78 L 170 142.78 170 150.78 162 150.78 Z"></path><path fill="#90ed7d" d="M 136 149.135 L 144 149.135 144 157.135 136 157.135 Z"></path><path fill="#90ed7d" d="M 110 149.75 L 118 149.75 118 157.75 110 157.75 Z"></path><path fill="#90ed7d" d="M 85 149.75 L 93 149.75 93 157.75 85 157.75 Z"></path><path fill="#90ed7d" d="M 59 149.75 L 67 149.75 67 157.75 59 157.75 Z"></path><path fill="#90ed7d" d="M 34 149.75 L 42 149.75 42 157.75 34 157.75 Z"></path><path fill="#90ed7d" d="M 8 149.75 L 16 149.75 16 157.75 8 157.75 Z"></path></g></g><text x="300" text-anchor="middle" class="highcharts-title"  style="color:#333333;font-size:18px;fill:#333333;width:536px;" y="24"><tspan>Jewish population since its settlement until the Holocaust in</tspan><tspan dy="21" x="300">view of the individual occupied territories of Slovenia during</tspan><tspan dy="21" x="300">World War II</tspan><title>Jewish population since its settlement until the Holocaust in view of the individual occupied territories of Slovenia during World War II</title></text><g class="highcharts-legend"  transform="translate(94,344)"><g ><g><g class="highcharts-legend-item"  transform="translate(8,3)"><path fill="none" d="M 0 11 L 16 11" stroke="#7cb5ec" stroke-width="2"></path><path fill="#7cb5ec" d="M 8 7 C 13.328 7 13.328 15 8 15 C 2.6719999999999997 15 2.6719999999999997 7 8 7 Z"></path><text x="21" style="color:#333333;font-size:12px;font-weight:bold;cursor:pointer;fill:#333333;" text-anchor="start"  y="15"><tspan>Hungarian occupied territory</tspan></text></g><g class="highcharts-legend-item"  transform="translate(228.89999389648438,3)"><path fill="none" d="M 0 11 L 16 11" stroke="#434348" stroke-width="2"></path><path fill="#434348" d="M 8 7 L 12 11 8 15 4 11 Z"></path><text x="21" y="15" style="color:#333333;font-size:12px;font-weight:bold;cursor:pointer;fill:#333333;" text-anchor="start" ><tspan>Italian occupied territory</tspan></text></g><g class="highcharts-legend-item"  transform="translate(8,18)"><path fill="none" d="M 0 11 L 16 11" stroke="#90ed7d" stroke-width="2"></path><path fill="#90ed7d" d="M 4 7 L 12 7 12 15 4 15 Z"></path><text x="21" y="15" style="color:#333333;font-size:12px;font-weight:bold;cursor:pointer;fill:#333333;" text-anchor="start" ><tspan>German occupied territory</tspan></text></g></g></g></g><g class="highcharts-axis-labels highcharts-xaxis-labels" ><text x="94.36772486435066" style="color:#606060;cursor:default;font-size:11px;fill:#606060;width:400px;text-overflow:ellipsis;" text-anchor="end" transform="translate(0,0) rotate(-45 94.36772486435066 310)" y="310" opacity="1"><tspan>1778</tspan></text><text x="119.91772486435067" style="color:#606060;cursor:default;font-size:11px;fill:#606060;width:400px;text-overflow:ellipsis;" text-anchor="end" transform="translate(0,0) rotate(-45 119.91772486435067 310)" y="310" opacity="1"><tspan>1793</tspan></text><text x="145.46772486435069" style="color:#606060;cursor:default;font-size:11px;fill:#606060;width:400px;text-overflow:ellipsis;" text-anchor="end" transform="translate(0,0) rotate(-45 145.46772486435069 310)" y="310" opacity="1"><tspan>1812</tspan></text><text x="171.01772486435067" style="color:#606060;cursor:default;font-size:11px;fill:#606060;width:400px;text-overflow:ellipsis;" text-anchor="end" transform="translate(0,0) rotate(-45 171.01772486435067 310)" y="310" opacity="1"><tspan>1836</tspan></text><text x="196.56772486435068" style="color:#606060;cursor:default;font-size:11px;fill:#606060;width:400px;text-overflow:ellipsis;" text-anchor="end" transform="translate(0,0) rotate(-45 196.56772486435068 310)" y="310" opacity="1"><tspan>1846</tspan></text><text x="222.1177248643507" style="color:#606060;cursor:default;font-size:11px;fill:#606060;width:400px;text-overflow:ellipsis;" text-anchor="end" transform="translate(0,0) rotate(-45 222.1177248643507 310)" y="310" opacity="1"><tspan>1854</tspan></text><text x="247.66772486435067" style="color:#606060;cursor:default;font-size:11px;fill:#606060;width:400px;text-overflow:ellipsis;" text-anchor="end" transform="translate(0,0) rotate(-45 247.66772486435067 310)" y="310" opacity="1"><tspan>1869</tspan></text><text x="273.21772486435066" style="color:#606060;cursor:default;font-size:11px;fill:#606060;width:400px;text-overflow:ellipsis;" text-anchor="end" transform="translate(0,0) rotate(-45 273.21772486435066 310)" y="310" opacity="1"><tspan>1880</tspan></text><text x="298.7677248643507" style="color:#606060;cursor:default;font-size:11px;fill:#606060;width:400px;text-overflow:ellipsis;" text-anchor="end" transform="translate(0,0) rotate(-45 298.7677248643507 310)" y="310" opacity="1"><tspan>1890</tspan></text><text x="324.3177248643507" style="color:#606060;cursor:default;font-size:11px;fill:#606060;width:400px;text-overflow:ellipsis;" text-anchor="end" transform="translate(0,0) rotate(-45 324.3177248643507 310)" y="310" opacity="1"><tspan>1900</tspan></text><text x="349.8677248643507" style="color:#606060;cursor:default;font-size:11px;fill:#606060;width:400px;text-overflow:ellipsis;" text-anchor="end" transform="translate(0,0) rotate(-45 349.8677248643507 310)" y="310" opacity="1"><tspan>1910</tspan></text><text x="375.41772486435065" style="color:#606060;cursor:default;font-size:11px;fill:#606060;width:400px;text-overflow:ellipsis;" text-anchor="end" transform="translate(0,0) rotate(-45 375.41772486435065 310)" y="310" opacity="1"><tspan>1921</tspan></text><text x="400.96772486435066" style="color:#606060;cursor:default;font-size:11px;fill:#606060;width:400px;text-overflow:ellipsis;" text-anchor="end" transform="translate(0,0) rotate(-45 400.96772486435066 310)" y="310" opacity="1"><tspan>1931</tspan></text><text x="426.51772486435067" style="color:#606060;cursor:default;font-size:11px;fill:#606060;width:400px;text-overflow:ellipsis;" text-anchor="end" transform="translate(0,0) rotate(-45 426.51772486435067 310)" y="310" opacity="1"><tspan>1937</tspan></text><text x="452.0677248643507" style="color:#606060;cursor:default;font-size:11px;fill:#606060;width:400px;text-overflow:ellipsis;" text-anchor="end" transform="translate(0,0) rotate(-45 452.0677248643507 310)" y="310" opacity="1"><tspan>1940</tspan></text><text x="477.6177248643507" style="color:#606060;cursor:default;font-size:11px;fill:#606060;width:400px;text-overflow:ellipsis;" text-anchor="end" transform="translate(0,0) rotate(-45 477.6177248643507 310)" y="310" opacity="1"><tspan>1941</tspan></text><text x="503.1677248643506" style="color:#606060;cursor:default;font-size:11px;fill:#606060;width:400px;text-overflow:ellipsis;" text-anchor="end" transform="translate(0,0) rotate(-45 503.1677248643506 310)" y="310" opacity="1"><tspan>1942</tspan></text><text x="528.7177248643507" style="color:#606060;cursor:default;font-size:11px;fill:#606060;width:400px;text-overflow:ellipsis;" text-anchor="end" transform="translate(0,0) rotate(-45 528.7177248643507 310)" y="310" opacity="1"><tspan>1944</tspan></text><text x="554.2677248643507" style="color:#606060;cursor:default;font-size:11px;fill:#606060;width:400px;text-overflow:ellipsis;" text-anchor="end" transform="translate(0,0) rotate(-45 554.2677248643507 310)" y="310" opacity="1"><tspan>1945</tspan></text><text x="579.8177248643507" style="color:#606060;cursor:default;font-size:11px;fill:#606060;width:400px;text-overflow:ellipsis;" text-anchor="end" transform="translate(0,0) rotate(-45 579.8177248643507 310)" y="310" opacity="1"><tspan>1946</tspan></text></g><g class="highcharts-axis-labels highcharts-yaxis-labels" ><text x="64" style="color:#606060;cursor:default;font-size:11px;fill:#606060;width:188px;text-overflow:clip;" text-anchor="end" transform="translate(0,0)" y="247" opacity="1">0</text><text x="64" style="color:#606060;cursor:default;font-size:11px;fill:#606060;width:188px;text-overflow:clip;" text-anchor="end" transform="translate(0,0)" y="196" opacity="1">500</text><text x="64" style="color:#606060;cursor:default;font-size:11px;fill:#606060;width:188px;text-overflow:clip;" text-anchor="end" transform="translate(0,0)" y="145" opacity="1">1000</text><text x="64" style="color:#606060;cursor:default;font-size:11px;fill:#606060;width:188px;text-overflow:clip;" text-anchor="end" transform="translate(0,0)" y="298" opacity="1">-500</text><text x="64" style="color:#606060;cursor:default;font-size:11px;fill:#606060;width:188px;text-overflow:clip;" text-anchor="end" transform="translate(0,0)" y="93" opacity="1">1500</text></g><g class="highcharts-tooltip"  style="cursor:default;padding:0;white-space:nowrap;" transform="translate(0,-9999)"><path fill="none" d="M 3 0 L 13 0 C 16 0 16 0 16 3 L 16 13 C 16 16 16 16 13 16 L 3 16 C 0 16 0 16 0 13 L 0 3 C 0 0 0 0 3 0"  stroke="black" stroke-opacity="0.049999999999999996" stroke-width="5" transform="translate(1, 1)"></path><path fill="none" d="M 3 0 L 13 0 C 16 0 16 0 16 3 L 16 13 C 16 16 16 16 13 16 L 3 16 C 0 16 0 16 0 13 L 0 3 C 0 0 0 0 3 0"  stroke="black" stroke-opacity="0.09999999999999999" stroke-width="3" transform="translate(1, 1)"></path><path fill="none" d="M 3 0 L 13 0 C 16 0 16 0 16 3 L 16 13 C 16 16 16 16 13 16 L 3 16 C 0 16 0 16 0 13 L 0 3 C 0 0 0 0 3 0"  stroke="black" stroke-opacity="0.15" stroke-width="1" transform="translate(1, 1)"></path><path fill="rgb(249, 249, 249)" fill-opacity=" .85" d="M 3 0 L 13 0 C 16 0 16 0 16 3 L 16 13 C 16 16 16 16 13 16 L 3 16 C 0 16 0 16 0 13 L 0 3 C 0 0 0 0 3 0"></path><text x="8"  style="font-size:12px;color:#333333;fill:#333333;" transform="translate(0,20)"></text></g></svg>