<?xml version="1.0" standalone="no"?><!DOCTYPE svg PUBLIC "-//W3C//DTD SVG 1.1//EN" "http://www.w3.org/Graphics/SVG/1.1/DTD/svg11.dtd"><svg xmlns:xlink="http://www.w3.org/1999/xlink" height="400" width="600" xmlns="http://www.w3.org/2000/svg" version="1.1"><desc>Created with Highcharts 3.0.7</desc><defs><clipPath id="highcharts-5"><rect height="290" width="525" y="0" x="0" fill="none"></rect></clipPath></defs><rect height="400" width="600" y="0" x="0" fill="#FFFFFF" ry="0" rx="0"></rect><g  class="highcharts-grid"></g><g  class="highcharts-grid"><path opacity="1"  stroke-width="1" stroke="#C0C0C0" d="M 65 272.5 L 590 272.5" fill="none"></path><path opacity="1"  stroke-width="1" stroke="#C0C0C0" d="M 65 214.5 L 590 214.5" fill="none"></path><path opacity="1"  stroke-width="1" stroke="#C0C0C0" d="M 65 156.5 L 590 156.5" fill="none"></path><path opacity="1"  stroke-width="1" stroke="#C0C0C0" d="M 65 98.5 L 590 98.5" fill="none"></path><path opacity="1"  stroke-width="1" stroke="#C0C0C0" d="M 65 39.5 L 590 39.5" fill="none"></path><path opacity="1"  stroke-width="1" stroke="#C0C0C0" d="M 65 330.5 L 590 330.5" fill="none"></path></g><g  class="highcharts-axis"><path opacity="1" stroke-width="1" stroke="#C0D0E0" d="M 195.5 330 L 195.5 335" fill="none"></path><path opacity="1" stroke-width="1" stroke="#C0D0E0" d="M 261.5 330 L 261.5 335" fill="none"></path><path opacity="1" stroke-width="1" stroke="#C0D0E0" d="M 327.5 330 L 327.5 335" fill="none"></path><path opacity="1" stroke-width="1" stroke="#C0D0E0" d="M 392.5 330 L 392.5 335" fill="none"></path><path opacity="1" stroke-width="1" stroke="#C0D0E0" d="M 458.5 330 L 458.5 335" fill="none"></path><path opacity="1" stroke-width="1" stroke="#C0D0E0" d="M 523.5 330 L 523.5 335" fill="none"></path><path opacity="1" stroke-width="1" stroke="#C0D0E0" d="M 590.5 330 L 590.5 335" fill="none"></path><path opacity="1" stroke-width="1" stroke="#C0D0E0" d="M 130.5 330 L 130.5 335" fill="none"></path><path stroke-width="1" stroke="#C0D0E0" d="M 64.5 330 L 64.5 335" fill="none"></path><path visibility="visible"  stroke-width="1" stroke="#C0D0E0" d="M 65 330.5 L 590 330.5" fill="none"></path></g><g  class="highcharts-axis"><text visibility="visible" transform="translate(0,0) rotate(270 25.149999618530273 185)" text-anchor="middle"  style="font-family:'lucida grande', 'lucida sans unicode', verdana, arial, helvetica, sans-serif;font-size:12px;color:#4d759e;font-weight:bold;fill:#4d759e;" y="185" x="25.149999618530273"><tspan x="25.149999618530273">Odstotki</tspan></text></g><g  class="highcharts-series-group"><g clip-path="url(#highcharts-5)" style="" transform="translate(65,40) scale(1 1)"  visibility="visible" class="highcharts-series highcharts-tracker"><rect ry="0" rx="0" height="244" width="24" y="47" x="21" fill="#2f7ed8"></rect><rect ry="0" rx="0" height="46" width="24" y="245" x="87" fill="#2f7ed8"></rect><rect ry="0" rx="0" height="19" width="24" y="272" x="152" fill="#2f7ed8"></rect><rect ry="0" rx="0" height="28" width="24" y="263" x="218" fill="#2f7ed8"></rect><rect ry="0" rx="0" height="21" width="24" y="270" x="284" fill="#2f7ed8"></rect><rect ry="0" rx="0" height="14" width="24" y="277" x="349" fill="#2f7ed8"></rect><rect ry="0" rx="0" height="14" width="24" y="277" x="415" fill="#2f7ed8"></rect><rect ry="0" rx="0" height="3" width="24" y="288" x="480" fill="#2f7ed8"></rect></g><g clip-path="none" transform="translate(65,40) scale(1 1)"  visibility="visible" class="highcharts-markers"></g></g><text  class="highcharts-title" text-anchor="middle" style="font-family:'lucida grande', 'lucida sans unicode', verdana, arial, helvetica, sans-serif;font-size:16px;color:#274b6d;fill:#274b6d;" y="25" x="300"><tspan x="300">Odstotek žrtev druge svetovne vojne v Sloveniji</tspan></text><g  class="highcharts-axis-labels"><text opacity="1" text-anchor="middle" style="font-family:'lucida grande', 'lucida sans unicode', verdana, arial, helvetica, sans-serif;font-size:11px;color:#666;cursor:default;line-height:14px;fill:#666;" y="344" x="97.8125"><tspan x="97.8125">Judje</tspan><tspan x="97.8125" dy="14">(Prekmurje)</tspan></text><text opacity="1" text-anchor="middle" style="font-family:'lucida grande', 'lucida sans unicode', verdana, arial, helvetica, sans-serif;font-size:11px;color:#666;cursor:default;line-height:14px;fill:#666;" y="344" x="163.4375"><tspan x="163.4375">Judje</tspan><tspan x="163.4375" dy="14">(Slovenija</tspan><tspan x="163.4375" dy="14">brez</tspan><tspan x="163.4375" dy="14">Prekmurja</tspan></text><text opacity="1" text-anchor="middle" style="font-family:'lucida grande', 'lucida sans unicode', verdana, arial, helvetica, sans-serif;font-size:11px;color:#666;cursor:default;line-height:14px;fill:#666;" y="344" x="229.0625"><tspan x="229.0625">Slovenija</tspan></text><text opacity="1" text-anchor="middle" style="font-family:'lucida grande', 'lucida sans unicode', verdana, arial, helvetica, sans-serif;font-size:11px;color:#666;cursor:default;line-height:14px;fill:#666;" y="344" x="294.6875"><tspan x="294.6875">Ljubljanska</tspan><tspan x="294.6875" dy="14">pokrajina</tspan></text><text opacity="1" text-anchor="middle" style="font-family:'lucida grande', 'lucida sans unicode', verdana, arial, helvetica, sans-serif;font-size:11px;color:#666;cursor:default;line-height:14px;fill:#666;" y="344" x="360.3125"><tspan x="360.3125">Gorenjska</tspan></text><text opacity="1" text-anchor="middle" style="font-family:'lucida grande', 'lucida sans unicode', verdana, arial, helvetica, sans-serif;font-size:11px;color:#666;cursor:default;line-height:14px;fill:#666;" y="344" x="425.9375"><tspan x="425.9375">Primorska</tspan></text><text opacity="1" text-anchor="middle" style="font-family:'lucida grande', 'lucida sans unicode', verdana, arial, helvetica, sans-serif;font-size:11px;color:#666;cursor:default;line-height:14px;fill:#666;" y="344" x="491.5625"><tspan x="491.5625">Spodnja</tspan><tspan x="491.5625" dy="14">Štajerska</tspan></text><text opacity="1" text-anchor="middle" style="font-family:'lucida grande', 'lucida sans unicode', verdana, arial, helvetica, sans-serif;font-size:11px;color:#666;cursor:default;line-height:14px;fill:#666;" y="344" x="557.1875"><tspan x="557.1875">Prekmurje</tspan></text></g><g  class="highcharts-axis-labels"><text opacity="1" text-anchor="end" style="font-family:'lucida grande', 'lucida sans unicode', verdana, arial, helvetica, sans-serif;font-size:11px;color:#666;cursor:default;line-height:14px;fill:#666;" y="335.25" x="57"><tspan x="57">0</tspan></text><text opacity="1" text-anchor="end" style="font-family:'lucida grande', 'lucida sans unicode', verdana, arial, helvetica, sans-serif;font-size:11px;color:#666;cursor:default;line-height:14px;fill:#666;" y="277.25" x="57"><tspan x="57">20</tspan></text><text opacity="1" text-anchor="end" style="font-family:'lucida grande', 'lucida sans unicode', verdana, arial, helvetica, sans-serif;font-size:11px;color:#666;cursor:default;line-height:14px;fill:#666;" y="219.25" x="57"><tspan x="57">40</tspan></text><text opacity="1" text-anchor="end" style="font-family:'lucida grande', 'lucida sans unicode', verdana, arial, helvetica, sans-serif;font-size:11px;color:#666;cursor:default;line-height:14px;fill:#666;" y="161.25" x="57"><tspan x="57">60</tspan></text><text opacity="1" text-anchor="end" style="font-family:'lucida grande', 'lucida sans unicode', verdana, arial, helvetica, sans-serif;font-size:11px;color:#666;cursor:default;line-height:14px;fill:#666;" y="103.25" x="57"><tspan x="57">80</tspan></text><text opacity="1" text-anchor="end" style="font-family:'lucida grande', 'lucida sans unicode', verdana, arial, helvetica, sans-serif;font-size:11px;color:#666;cursor:default;line-height:14px;fill:#666;" y="45.25" x="57"><tspan x="57">100</tspan></text></g><g transform="translate(0,-999)" style="cursor:default;padding:0;white-space:nowrap;"  class="highcharts-tooltip"><rect transform="translate(1, 1)" stroke-width="5" stroke-opacity="0.049999999999999996" stroke="black"  fill-opacity="0.85" height="16" width="16" y="0.5" x="0.5" fill="none" ry="3" rx="3"></rect><rect transform="translate(1, 1)" stroke-width="3" stroke-opacity="0.09999999999999999" stroke="black"  fill-opacity="0.85" height="16" width="16" y="0.5" x="0.5" fill="none" ry="3" rx="3"></rect><rect transform="translate(1, 1)" stroke-width="1" stroke-opacity="0.15" stroke="black"  fill-opacity="0.85" height="16" width="16" y="0.5" x="0.5" fill="none" ry="3" rx="3"></rect><rect fill-opacity="0.85" height="16" width="16" y="0.5" x="0.5" fill="rgb(255,255,255)" ry="3" rx="3"></rect><text  style="font-family:'lucida grande', 'lucida sans unicode', verdana, arial, helvetica, sans-serif;font-size:12px;color:#333333;fill:#333333;" y="21" x="8"></text></g></svg>