<?xml version="1.0" standalone="no"?><!DOCTYPE svg PUBLIC "-//W3C//DTD SVG 1.1//EN" "http://www.w3.org/Graphics/SVG/1.1/DTD/svg11.dtd"><svg xmlns:xlink="http://www.w3.org/1999/xlink" height="400" width="600" xmlns="http://www.w3.org/2000/svg" version="1.1"><desc>Created with Highcharts 3.0.7</desc><defs><clipPath id="highcharts-5"><rect height="204" width="525" y="0" x="0" fill="none"></rect></clipPath></defs><rect height="400" width="600" y="0" x="0" fill="#FFFFFF" ry="0" rx="0"></rect><g  class="highcharts-grid"></g><g  class="highcharts-grid"><path opacity="1"  stroke-width="1" stroke="#C0C0C0" d="M 65 213.5 L 590 213.5" fill="none"></path><path opacity="1"  stroke-width="1" stroke="#C0C0C0" d="M 65 162.5 L 590 162.5" fill="none"></path><path opacity="1"  stroke-width="1" stroke="#C0C0C0" d="M 65 111.5 L 590 111.5" fill="none"></path><path opacity="1"  stroke-width="1" stroke="#C0C0C0" d="M 65 59.5 L 590 59.5" fill="none"></path><path opacity="1"  stroke-width="1" stroke="#C0C0C0" d="M 65 264.5 L 590 264.5" fill="none"></path></g><g  class="highcharts-axis"><path opacity="1" stroke-width="1" stroke="#C0D0E0" d="M 169.5 264 L 169.5 269" fill="none"></path><path opacity="1" stroke-width="1" stroke="#C0D0E0" d="M 222.5 264 L 222.5 269" fill="none"></path><path opacity="1" stroke-width="1" stroke="#C0D0E0" d="M 274.5 264 L 274.5 269" fill="none"></path><path opacity="1" stroke-width="1" stroke="#C0D0E0" d="M 327.5 264 L 327.5 269" fill="none"></path><path opacity="1" stroke-width="1" stroke="#C0D0E0" d="M 379.5 264 L 379.5 269" fill="none"></path><path opacity="1" stroke-width="1" stroke="#C0D0E0" d="M 432.5 264 L 432.5 269" fill="none"></path><path opacity="1" stroke-width="1" stroke="#C0D0E0" d="M 484.5 264 L 484.5 269" fill="none"></path><path opacity="1" stroke-width="1" stroke="#C0D0E0" d="M 537.5 264 L 537.5 269" fill="none"></path><path opacity="1" stroke-width="1" stroke="#C0D0E0" d="M 590.5 264 L 590.5 269" fill="none"></path><path opacity="1" stroke-width="1" stroke="#C0D0E0" d="M 117.5 264 L 117.5 269" fill="none"></path><path stroke-width="1" stroke="#C0D0E0" d="M 64.5 264 L 64.5 269" fill="none"></path><path visibility="visible"  stroke-width="1" stroke="#C0D0E0" d="M 65 264.5 L 590 264.5" fill="none"></path></g><g  class="highcharts-axis"><text visibility="visible" transform="translate(0,0) rotate(270 25.149999618530273 162)" text-anchor="middle"  style="font-family:'lucida grande', 'lucida sans unicode', verdana, arial, helvetica, sans-serif;font-size:12px;color:#4d759e;font-weight:bold;fill:#4d759e;" y="162" x="25.149999618530273"><tspan x="25.149999618530273">Odstotki</tspan></text></g><g  class="highcharts-series-group"><g clip-path="url(#highcharts-5)" style="" transform="translate(65,60) scale(1 1)"  visibility="visible" class="highcharts-series highcharts-tracker"><rect ry="0" rx="0" stroke-width="1" stroke="#FFFFFF" height="1" width="26" y="-0.5" x="13.5" fill="#2f7ed8"></rect><rect ry="0" rx="0" stroke-width="1" stroke="#FFFFFF" height="7" width="26" y="-0.5" x="65.5" fill="#2f7ed8"></rect><rect ry="0" rx="0" stroke-width="1" stroke="#FFFFFF" height="1" width="26" y="-0.5" x="118.5" fill="#2f7ed8"></rect><rect ry="0" rx="0" stroke-width="1" stroke="#FFFFFF" height="7" width="26" y="-0.5" x="170.5" fill="#2f7ed8"></rect><rect ry="0" rx="0" stroke-width="1" stroke="#FFFFFF" height="1" width="26" y="-0.5" x="223.5" fill="#2f7ed8"></rect><rect ry="0" rx="0" stroke-width="1" stroke="#FFFFFF" height="9" width="26" y="-0.5" x="275.5" fill="#2f7ed8"></rect><rect ry="0" rx="0" stroke-width="1" stroke="#FFFFFF" height="1" width="26" y="-0.5" x="328.5" fill="#2f7ed8"></rect><rect ry="0" rx="0" stroke-width="1" stroke="#FFFFFF" height="5" width="26" y="-0.5" x="380.5" fill="#2f7ed8"></rect><rect ry="0" rx="0" stroke-width="1" stroke="#FFFFFF" height="3" width="26" y="-0.5" x="433.5" fill="#2f7ed8"></rect><rect ry="0" rx="0" stroke-width="1" stroke="#FFFFFF" height="181" width="26" y="-0.5" x="485.5" fill="#2f7ed8"></rect></g><g clip-path="none" transform="translate(65,60) scale(1 1)"  visibility="visible" class="highcharts-markers"></g><g clip-path="url(#highcharts-5)" style="" transform="translate(65,60) scale(1 1)"  visibility="visible" class="highcharts-series highcharts-tracker"><rect ry="0" rx="0" stroke-width="1" stroke="#FFFFFF" height="36" width="26" y="-0.5" x="13.5" fill="#0d233a"></rect><rect ry="0" rx="0" stroke-width="1" stroke="#FFFFFF" height="55" width="26" y="6.5" x="65.5" fill="#0d233a"></rect><rect ry="0" rx="0" stroke-width="1" stroke="#FFFFFF" height="100" width="26" y="-0.5" x="118.5" fill="#0d233a"></rect><rect ry="0" rx="0" stroke-width="1" stroke="#FFFFFF" height="63" width="26" y="6.5" x="170.5" fill="#0d233a"></rect><rect ry="0" rx="0" stroke-width="1" stroke="#FFFFFF" height="15" width="26" y="-0.5" x="223.5" fill="#0d233a"></rect><rect ry="0" rx="0" stroke-width="1" stroke="#FFFFFF" height="65" width="26" y="8.5" x="275.5" fill="#0d233a"></rect><rect ry="0" rx="0" stroke-width="1" stroke="#FFFFFF" height="60" width="26" y="-0.5" x="328.5" fill="#0d233a"></rect><rect ry="0" rx="0" stroke-width="1" stroke="#FFFFFF" height="63" width="26" y="4.5" x="380.5" fill="#0d233a"></rect><rect ry="0" rx="0" stroke-width="1" stroke="#FFFFFF" height="25" width="26" y="2.5" x="433.5" fill="#0d233a"></rect><rect ry="0" rx="0" stroke-width="1" stroke="#FFFFFF" height="14" width="26" y="180.5" x="485.5" fill="#0d233a"></rect></g><g clip-path="none" transform="translate(65,60) scale(1 1)"  visibility="visible" class="highcharts-markers"></g><g clip-path="url(#highcharts-5)" style="" transform="translate(65,60) scale(1 1)"  visibility="visible" class="highcharts-series highcharts-tracker"><rect ry="0" rx="0" stroke-width="1" stroke="#FFFFFF" height="91" width="26" y="35.5" x="13.5" fill="#8bbc21"></rect><rect ry="0" rx="0" stroke-width="1" stroke="#FFFFFF" height="49" width="26" y="61.5" x="65.5" fill="#8bbc21"></rect><rect ry="0" rx="0" stroke-width="1" stroke="#FFFFFF" height="69" width="26" y="99.5" x="118.5" fill="#8bbc21"></rect><rect ry="0" rx="0" stroke-width="1" stroke="#FFFFFF" height="56" width="26" y="69.5" x="170.5" fill="#8bbc21"></rect><rect ry="0" rx="0" stroke-width="1" stroke="#FFFFFF" height="184" width="26" y="14.5" x="223.5" fill="#8bbc21"></rect><rect ry="0" rx="0" stroke-width="1" stroke="#FFFFFF" height="37" width="26" y="73.5" x="275.5" fill="#8bbc21"></rect><rect ry="0" rx="0" stroke-width="1" stroke="#FFFFFF" height="106" width="26" y="59.5" x="328.5" fill="#8bbc21"></rect><rect ry="0" rx="0" stroke-width="1" stroke="#FFFFFF" height="43" width="26" y="67.5" x="380.5" fill="#8bbc21"></rect><rect ry="0" rx="0" stroke-width="1" stroke="#FFFFFF" height="122" width="26" y="27.5" x="433.5" fill="#8bbc21"></rect><rect ry="0" rx="0" stroke-width="1" stroke="#FFFFFF" height="4" width="26" y="194.5" x="485.5" fill="#8bbc21"></rect></g><g clip-path="none" transform="translate(65,60) scale(1 1)"  visibility="visible" class="highcharts-markers"></g><g clip-path="url(#highcharts-5)" style="" transform="translate(65,60) scale(1 1)"  visibility="visible" class="highcharts-series highcharts-tracker"><rect ry="0" rx="0" stroke-width="1" stroke="#FFFFFF" height="26" width="26" y="126.5" x="13.5" fill="#910000"></rect><rect ry="0" rx="0" stroke-width="1" stroke="#FFFFFF" height="47" width="26" y="110.5" x="65.5" fill="#910000"></rect><rect ry="0" rx="0" stroke-width="1" stroke="#FFFFFF" height="24" width="26" y="168.5" x="118.5" fill="#910000"></rect><rect ry="0" rx="0" stroke-width="1" stroke="#FFFFFF" height="37" width="26" y="125.5" x="170.5" fill="#910000"></rect><rect ry="0" rx="0" stroke-width="1" stroke="#FFFFFF" height="0" width="26" y="198.5" x="223.5" fill="#910000"></rect><rect ry="0" rx="0" stroke-width="1" stroke="#FFFFFF" height="45" width="26" y="110.5" x="275.5" fill="#910000"></rect><rect ry="0" rx="0" stroke-width="1" stroke="#FFFFFF" height="39" width="26" y="165.5" x="328.5" fill="#910000"></rect><rect ry="0" rx="0" stroke-width="1" stroke="#FFFFFF" height="57" width="26" y="110.5" x="380.5" fill="#910000"></rect><rect ry="0" rx="0" stroke-width="1" stroke="#FFFFFF" height="16" width="26" y="149.5" x="433.5" fill="#910000"></rect><rect ry="0" rx="0" stroke-width="1" stroke="#FFFFFF" height="4" width="26" y="198.5" x="485.5" fill="#910000"></rect></g><g clip-path="none" transform="translate(65,60) scale(1 1)"  visibility="visible" class="highcharts-markers"></g><g clip-path="url(#highcharts-5)" style="" transform="translate(65,60) scale(1 1)"  visibility="visible" class="highcharts-series highcharts-tracker"><rect ry="0" rx="0" stroke-width="1" stroke="#FFFFFF" height="52" width="26" y="152.5" x="13.5" fill="#1aadce"></rect><rect ry="0" rx="0" stroke-width="1" stroke="#FFFFFF" height="47" width="26" y="157.5" x="65.5" fill="#1aadce"></rect><rect ry="0" rx="0" stroke-width="1" stroke="#FFFFFF" height="12" width="26" y="192.5" x="118.5" fill="#1aadce"></rect><rect ry="0" rx="0" stroke-width="1" stroke="#FFFFFF" height="42" width="26" y="162.5" x="170.5" fill="#1aadce"></rect><rect ry="0" rx="0" stroke-width="1" stroke="#FFFFFF" height="6" width="26" y="198.5" x="223.5" fill="#1aadce"></rect><rect ry="0" rx="0" stroke-width="1" stroke="#FFFFFF" height="49" width="26" y="155.5" x="275.5" fill="#1aadce"></rect><rect ry="0" rx="0" stroke-width="1" stroke="#FFFFFF" height="0" width="26" y="204.5" x="328.5" fill="#1aadce"></rect><rect ry="0" rx="0" stroke-width="1" stroke="#FFFFFF" height="37" width="26" y="167.5" x="380.5" fill="#1aadce"></rect><rect ry="0" rx="0" stroke-width="1" stroke="#FFFFFF" height="39" width="26" y="165.5" x="433.5" fill="#1aadce"></rect><rect ry="0" rx="0" stroke-width="1" stroke="#FFFFFF" height="2" width="26" y="202.5" x="485.5" fill="#1aadce"></rect></g><g clip-path="none" transform="translate(65,60) scale(1 1)"  visibility="visible" class="highcharts-markers"></g></g><text  class="highcharts-title" text-anchor="middle" style="font-family:'lucida grande', 'lucida sans unicode', verdana, arial, helvetica, sans-serif;font-size:16px;color:#274b6d;fill:#274b6d;" y="25" x="300"><tspan x="300">Poklicna razdelitev judovskega (leta 1937) in celotnega prebivalstva</tspan><tspan x="300" dy="16">(leta 1931) Ljubljane, Maribora, Ptuja, Celja ter Prekmurja v %</tspan></text><g transform="translate(35,329)"  class="highcharts-legend"><rect visibility="visible" stroke-width="1" stroke="#909090" height="55" width="528" y="0.5" x="0.5" fill="none" ry="5" rx="5"></rect><g ><g><g transform="translate(8,3)"  class="highcharts-legend-item"><text  text-anchor="start" style="font-family:'lucida grande', 'lucida sans unicode', verdana, arial, helvetica, sans-serif;font-size:12px;cursor:pointer;color:#274b6d;fill:#274b6d;" y="15" x="21"><tspan x="21">A - kmetijstvo, gozdarstvo in ribolov</tspan></text><rect  height="12" width="16" y="4" x="0" fill="#2f7ed8" ry="2" rx="2"></rect></g><g transform="translate(252.78334045410156,3)"  class="highcharts-legend-item"><text  text-anchor="start" style="font-family:'lucida grande', 'lucida sans unicode', verdana, arial, helvetica, sans-serif;font-size:12px;cursor:pointer;color:#274b6d;fill:#274b6d;" y="15" x="21"><tspan x="21">B - industrija in obrt</tspan></text><rect  height="12" width="16" y="4" x="0" fill="#0d233a" ry="2" rx="2"></rect></g><g transform="translate(8,18)"  class="highcharts-legend-item"><text  text-anchor="start" style="font-family:'lucida grande', 'lucida sans unicode', verdana, arial, helvetica, sans-serif;font-size:12px;cursor:pointer;color:#274b6d;fill:#274b6d;" y="15" x="21"><tspan x="21">C - trgovina, denarništvo in promet</tspan></text><rect  height="12" width="16" y="4" x="0" fill="#8bbc21" ry="2" rx="2"></rect></g><g transform="translate(245.28334045410156,18)"  class="highcharts-legend-item"><text  text-anchor="start" style="font-family:'lucida grande', 'lucida sans unicode', verdana, arial, helvetica, sans-serif;font-size:12px;cursor:pointer;color:#274b6d;fill:#274b6d;" y="15" x="21"><tspan x="21">D - javna služba, svobodni poklici in vojska</tspan></text><rect  height="12" width="16" y="4" x="0" fill="#910000" ry="2" rx="2"></rect></g><g transform="translate(8,33)"  class="highcharts-legend-item"><text  text-anchor="start" style="font-family:'lucida grande', 'lucida sans unicode', verdana, arial, helvetica, sans-serif;font-size:12px;cursor:pointer;color:#274b6d;fill:#274b6d;" y="15" x="21"><tspan x="21">E - drugi poklici, brez poklica in brez oznake poklica</tspan></text><rect  height="12" width="16" y="4" x="0" fill="#1aadce" ry="2" rx="2"></rect></g></g></g></g><g  class="highcharts-axis-labels"><text opacity="1" text-anchor="middle" style="font-family:'lucida grande', 'lucida sans unicode', verdana, arial, helvetica, sans-serif;font-size:11px;color:#666;cursor:default;line-height:14px;fill:#666;" y="278" x="91.25"><tspan x="91.25">Ljubljana</tspan><tspan x="91.25" dy="14">(Judje)</tspan></text><text opacity="1" text-anchor="middle" style="font-family:'lucida grande', 'lucida sans unicode', verdana, arial, helvetica, sans-serif;font-size:11px;color:#666;cursor:default;line-height:14px;fill:#666;" y="305.5" x="143.75"><tspan x="143.75">Ljubljana</tspan><tspan x="143.75" dy="14">(vsi)</tspan></text><text opacity="1" text-anchor="middle" style="font-family:'lucida grande', 'lucida sans unicode', verdana, arial, helvetica, sans-serif;font-size:11px;color:#666;cursor:default;line-height:14px;fill:#666;" y="278" x="196.25"><tspan x="196.25">Maribor</tspan><tspan x="196.25" dy="14">(Judje)</tspan></text><text opacity="1" text-anchor="middle" style="font-family:'lucida grande', 'lucida sans unicode', verdana, arial, helvetica, sans-serif;font-size:11px;color:#666;cursor:default;line-height:14px;fill:#666;" y="305.5" x="248.75"><tspan x="248.75">Maribor</tspan><tspan x="248.75" dy="14">(vsi)</tspan></text><text opacity="1" text-anchor="middle" style="font-family:'lucida grande', 'lucida sans unicode', verdana, arial, helvetica, sans-serif;font-size:11px;color:#666;cursor:default;line-height:14px;fill:#666;" y="278" x="301.25"><tspan x="301.25">Ptuj</tspan><tspan x="301.25" dy="14">(Judje)</tspan></text><text opacity="1" text-anchor="middle" style="font-family:'lucida grande', 'lucida sans unicode', verdana, arial, helvetica, sans-serif;font-size:11px;color:#666;cursor:default;line-height:14px;fill:#666;" y="305.5" x="353.75"><tspan x="353.75">Ptuj</tspan><tspan x="353.75" dy="14">(vsi)</tspan></text><text opacity="1" text-anchor="middle" style="font-family:'lucida grande', 'lucida sans unicode', verdana, arial, helvetica, sans-serif;font-size:11px;color:#666;cursor:default;line-height:14px;fill:#666;" y="278" x="406.25"><tspan x="406.25">Celje</tspan><tspan x="406.25" dy="14">(Judje)</tspan></text><text opacity="1" text-anchor="middle" style="font-family:'lucida grande', 'lucida sans unicode', verdana, arial, helvetica, sans-serif;font-size:11px;color:#666;cursor:default;line-height:14px;fill:#666;" y="305.5" x="458.75"><tspan x="458.75">Celje</tspan><tspan x="458.75" dy="14">(vsi)</tspan></text><text opacity="1" text-anchor="middle" style="font-family:'lucida grande', 'lucida sans unicode', verdana, arial, helvetica, sans-serif;font-size:11px;color:#666;cursor:default;line-height:14px;fill:#666;" y="278" x="511.25"><tspan x="511.25">Prekmurje</tspan><tspan x="511.25" dy="14">(Judje)</tspan></text><text opacity="1" text-anchor="middle" style="font-family:'lucida grande', 'lucida sans unicode', verdana, arial, helvetica, sans-serif;font-size:11px;color:#666;cursor:default;line-height:14px;fill:#666;" y="305.5" x="563.75"><tspan x="563.75">Prekmurje</tspan><tspan x="563.75" dy="14">(vsi)</tspan></text></g><g  class="highcharts-axis-labels"><text opacity="1" text-anchor="end" style="font-family:'lucida grande', 'lucida sans unicode', verdana, arial, helvetica, sans-serif;font-size:11px;color:#666;cursor:default;line-height:14px;fill:#666;" y="269.25" x="57"><tspan x="57">0</tspan></text><text opacity="1" text-anchor="end" style="font-family:'lucida grande', 'lucida sans unicode', verdana, arial, helvetica, sans-serif;font-size:11px;color:#666;cursor:default;line-height:14px;fill:#666;" y="65.25" x="57"><tspan x="57">100</tspan></text><text opacity="1" text-anchor="end" style="font-family:'lucida grande', 'lucida sans unicode', verdana, arial, helvetica, sans-serif;font-size:11px;color:#666;cursor:default;line-height:14px;fill:#666;" y="218.25" x="57"><tspan x="57">25</tspan></text><text opacity="1" text-anchor="end" style="font-family:'lucida grande', 'lucida sans unicode', verdana, arial, helvetica, sans-serif;font-size:11px;color:#666;cursor:default;line-height:14px;fill:#666;" y="167.25" x="57"><tspan x="57">50</tspan></text><text opacity="1" text-anchor="end" style="font-family:'lucida grande', 'lucida sans unicode', verdana, arial, helvetica, sans-serif;font-size:11px;color:#666;cursor:default;line-height:14px;fill:#666;" y="116.25" x="57"><tspan x="57">75</tspan></text></g><g transform="translate(0,-999)" style="cursor:default;padding:0;white-space:nowrap;"  class="highcharts-tooltip"><rect transform="translate(1, 1)" stroke-width="5" stroke-opacity="0.049999999999999996" stroke="black"  fill-opacity="0.85" height="16" width="16" y="0.5" x="0.5" fill="none" ry="3" rx="3"></rect><rect transform="translate(1, 1)" stroke-width="3" stroke-opacity="0.09999999999999999" stroke="black"  fill-opacity="0.85" height="16" width="16" y="0.5" x="0.5" fill="none" ry="3" rx="3"></rect><rect transform="translate(1, 1)" stroke-width="1" stroke-opacity="0.15" stroke="black"  fill-opacity="0.85" height="16" width="16" y="0.5" x="0.5" fill="none" ry="3" rx="3"></rect><rect fill-opacity="0.85" height="16" width="16" y="0.5" x="0.5" fill="rgb(255,255,255)" ry="3" rx="3"></rect><text  style="font-family:'lucida grande', 'lucida sans unicode', verdana, arial, helvetica, sans-serif;font-size:12px;color:#333333;fill:#333333;" y="21" x="8"></text></g></svg>