<?xml version="1.0" standalone="no"?><!DOCTYPE svg PUBLIC "-//W3C//DTD SVG 1.1//EN" "http://www.w3.org/Graphics/SVG/1.1/DTD/svg11.dtd"><svg xmlns:xlink="http://www.w3.org/1999/xlink" height="400" width="600" xmlns="http://www.w3.org/2000/svg" version="1.1"><desc>Created with Highcharts 3.0.7</desc><defs><clipPath id="highcharts-5"><rect height="247" width="532" y="0" x="0" fill="none"></rect></clipPath></defs><rect height="400" width="600" y="0" x="0" fill="#FFFFFF" ry="0" rx="0"></rect><g  class="highcharts-grid"></g><g  class="highcharts-grid"><path opacity="1"  stroke-width="1" stroke="#C0C0C0" d="M 58 225.5 L 590 225.5" fill="none"></path><path opacity="1"  stroke-width="1" stroke="#C0C0C0" d="M 58 142.5 L 590 142.5" fill="none"></path><path opacity="1"  stroke-width="1" stroke="#C0C0C0" d="M 58 60.5 L 590 60.5" fill="none"></path><path opacity="1"  stroke-width="1" stroke="#C0C0C0" d="M 58 307.5 L 590 307.5" fill="none"></path></g><g  class="highcharts-axis"><path opacity="1" stroke-width="1" stroke="#C0D0E0" d="M 163.5 307 L 163.5 312" fill="none"></path><path opacity="1" stroke-width="1" stroke="#C0D0E0" d="M 217.5 307 L 217.5 312" fill="none"></path><path opacity="1" stroke-width="1" stroke="#C0D0E0" d="M 270.5 307 L 270.5 312" fill="none"></path><path opacity="1" stroke-width="1" stroke="#C0D0E0" d="M 323.5 307 L 323.5 312" fill="none"></path><path opacity="1" stroke-width="1" stroke="#C0D0E0" d="M 376.5 307 L 376.5 312" fill="none"></path><path opacity="1" stroke-width="1" stroke="#C0D0E0" d="M 429.5 307 L 429.5 312" fill="none"></path><path opacity="1" stroke-width="1" stroke="#C0D0E0" d="M 483.5 307 L 483.5 312" fill="none"></path><path opacity="1" stroke-width="1" stroke="#C0D0E0" d="M 536.5 307 L 536.5 312" fill="none"></path><path opacity="1" stroke-width="1" stroke="#C0D0E0" d="M 590.5 307 L 590.5 312" fill="none"></path><path opacity="1" stroke-width="1" stroke="#C0D0E0" d="M 110.5 307 L 110.5 312" fill="none"></path><path stroke-width="1" stroke="#C0D0E0" d="M 57.5 307 L 57.5 312" fill="none"></path><path visibility="visible"  stroke-width="1" stroke="#C0D0E0" d="M 58 307.5 L 590 307.5" fill="none"></path></g><g  class="highcharts-axis"><text visibility="visible" transform="translate(0,0) rotate(270 25.100000381469727 183.5)" text-anchor="middle"  style="font-family:'lucida grande', 'lucida sans unicode', verdana, arial, helvetica, sans-serif;font-size:12px;color:#4d759e;font-weight:bold;fill:#4d759e;" y="183.5" x="25.100000381469727"><tspan x="25.100000381469727">Odstotki</tspan></text></g><g  class="highcharts-series-group"><g clip-path="url(#highcharts-5)" style="" transform="translate(58,60) scale(1 1)"  visibility="visible" class="highcharts-series highcharts-tracker"><rect ry="0" rx="0" height="206" width="5" y="42" x="12" fill="#2f7ed8"></rect><rect ry="0" rx="0" height="123" width="5" y="125" x="65" fill="#2f7ed8"></rect><rect ry="0" rx="0" height="148" width="5" y="100" x="119" fill="#2f7ed8"></rect><rect ry="0" rx="0" height="107" width="5" y="141" x="172" fill="#2f7ed8"></rect><rect ry="0" rx="0" height="82" width="5" y="166" x="225" fill="#2f7ed8"></rect><rect ry="0" rx="0" height="66" width="5" y="182" x="278" fill="#2f7ed8"></rect><rect ry="0" rx="0" height="58" width="5" y="190" x="331" fill="#2f7ed8"></rect><rect ry="0" rx="0" height="25" width="5" y="223" x="385" fill="#2f7ed8"></rect><rect ry="0" rx="0" height="8" width="5" y="240" x="438" fill="#2f7ed8"></rect><rect ry="0" rx="0" height="0" width="5" y="248" x="491" fill="#2f7ed8"></rect></g><g clip-path="none" transform="translate(58,60) scale(1 1)"  visibility="visible" class="highcharts-markers"></g><g clip-path="url(#highcharts-5)" style="" transform="translate(58,60) scale(1 1)"  visibility="visible" class="highcharts-series highcharts-tracker"><rect ry="0" rx="0" height="74" width="5" y="174" x="20" fill="#0d233a"></rect><rect ry="0" rx="0" height="99" width="5" y="149" x="73" fill="#0d233a"></rect><rect ry="0" rx="0" height="115" width="5" y="133" x="127" fill="#0d233a"></rect><rect ry="0" rx="0" height="123" width="5" y="125" x="180" fill="#0d233a"></rect><rect ry="0" rx="0" height="123" width="5" y="125" x="233" fill="#0d233a"></rect><rect ry="0" rx="0" height="107" width="5" y="141" x="286" fill="#0d233a"></rect><rect ry="0" rx="0" height="82" width="5" y="166" x="339" fill="#0d233a"></rect><rect ry="0" rx="0" height="33" width="5" y="215" x="393" fill="#0d233a"></rect><rect ry="0" rx="0" height="16" width="5" y="232" x="446" fill="#0d233a"></rect><rect ry="0" rx="0" height="33" width="5" y="215" x="499" fill="#0d233a"></rect></g><g clip-path="none" transform="translate(58,60) scale(1 1)"  visibility="visible" class="highcharts-markers"></g><g clip-path="url(#highcharts-5)" style="" transform="translate(58,60) scale(1 1)"  visibility="visible" class="highcharts-series highcharts-tracker"><rect ry="0" rx="0" height="82" width="5" y="166" x="28" fill="#8bbc21"></rect><rect ry="0" rx="0" height="91" width="5" y="157" x="81" fill="#8bbc21"></rect><rect ry="0" rx="0" height="115" width="5" y="133" x="135" fill="#8bbc21"></rect><rect ry="0" rx="0" height="123" width="5" y="125" x="188" fill="#8bbc21"></rect><rect ry="0" rx="0" height="99" width="5" y="149" x="241" fill="#8bbc21"></rect><rect ry="0" rx="0" height="132" width="5" y="116" x="294" fill="#8bbc21"></rect><rect ry="0" rx="0" height="107" width="5" y="141" x="347" fill="#8bbc21"></rect><rect ry="0" rx="0" height="49" width="5" y="199" x="401" fill="#8bbc21"></rect><rect ry="0" rx="0" height="16" width="5" y="232" x="454" fill="#8bbc21"></rect><rect ry="0" rx="0" height="8" width="5" y="240" x="507" fill="#8bbc21"></rect></g><g clip-path="none" transform="translate(58,60) scale(1 1)"  visibility="visible" class="highcharts-markers"></g><g clip-path="url(#highcharts-5)" style="" transform="translate(58,60) scale(1 1)"  visibility="visible" class="highcharts-series highcharts-tracker"><rect ry="0" rx="0" height="74" width="5" y="174" x="36" fill="#910000"></rect><rect ry="0" rx="0" height="115" width="5" y="133" x="89" fill="#910000"></rect><rect ry="0" rx="0" height="115" width="5" y="133" x="143" fill="#910000"></rect><rect ry="0" rx="0" height="132" width="5" y="116" x="196" fill="#910000"></rect><rect ry="0" rx="0" height="156" width="5" y="92" x="249" fill="#910000"></rect><rect ry="0" rx="0" height="82" width="5" y="166" x="302" fill="#910000"></rect><rect ry="0" rx="0" height="58" width="5" y="190" x="355" fill="#910000"></rect><rect ry="0" rx="0" height="16" width="5" y="232" x="409" fill="#910000"></rect><rect ry="0" rx="0" height="8" width="5" y="240" x="462" fill="#910000"></rect><rect ry="0" rx="0" height="74" width="5" y="174" x="515" fill="#910000"></rect></g><g clip-path="none" transform="translate(58,60) scale(1 1)"  visibility="visible" class="highcharts-markers"></g></g><text  class="highcharts-title" text-anchor="middle" style="font-family:'lucida grande', 'lucida sans unicode', verdana, arial, helvetica, sans-serif;font-size:16px;color:#274b6d;fill:#274b6d;" y="25" x="300"><tspan x="300">Starostna struktura judovskega prebivalstva v Dravski banovini leta</tspan><tspan x="300" dy="16">1937 v primerjavi s celotnim prebivalstvom leta 1931 v %</tspan></text><g transform="translate(42,344)"  class="highcharts-legend"><rect visibility="visible" stroke-width="1" stroke="#909090" height="40" width="515" y="0.5" x="0.5" fill="none" ry="5" rx="5"></rect><g ><g><g transform="translate(8,3)"  class="highcharts-legend-item"><text  text-anchor="start" style="font-family:'lucida grande', 'lucida sans unicode', verdana, arial, helvetica, sans-serif;font-size:12px;cursor:pointer;color:#274b6d;fill:#274b6d;" y="15" x="21"><tspan x="21">prebivalstvo Dravske banovine</tspan></text><rect  height="12" width="16" y="4" x="0" fill="#2f7ed8" ry="2" rx="2"></rect></g><g transform="translate(215.4499969482422,3)"  class="highcharts-legend-item"><text  text-anchor="start" style="font-family:'lucida grande', 'lucida sans unicode', verdana, arial, helvetica, sans-serif;font-size:12px;cursor:pointer;color:#274b6d;fill:#274b6d;" y="15" x="21"><tspan x="21">Judje Dravske banovine</tspan></text><rect  height="12" width="16" y="4" x="0" fill="#0d233a" ry="2" rx="2"></rect></g><g transform="translate(382.3999938964844,3)"  class="highcharts-legend-item"><text  text-anchor="start" style="font-family:'lucida grande', 'lucida sans unicode', verdana, arial, helvetica, sans-serif;font-size:12px;cursor:pointer;color:#274b6d;fill:#274b6d;" y="15" x="21"><tspan x="21">Judje v Prekmurju</tspan></text><rect  height="12" width="16" y="4" x="0" fill="#8bbc21" ry="2" rx="2"></rect></g><g transform="translate(8,18)"  class="highcharts-legend-item"><text  text-anchor="start" style="font-family:'lucida grande', 'lucida sans unicode', verdana, arial, helvetica, sans-serif;font-size:12px;cursor:pointer;color:#274b6d;fill:#274b6d;" y="15" x="21"><tspan x="21">Judje v ostali Dravski banovini</tspan></text><rect  height="12" width="16" y="4" x="0" fill="#910000" ry="2" rx="2"></rect></g></g></g></g><g  class="highcharts-axis-labels"><text opacity="1" text-anchor="middle" style="font-family:'lucida grande', 'lucida sans unicode', verdana, arial, helvetica, sans-serif;font-size:11px;color:#666;cursor:default;line-height:14px;fill:#666;" y="321" x="84.6"><tspan x="84.6">0 do</tspan><tspan x="84.6" dy="14">10</tspan></text><text opacity="1" text-anchor="middle" style="font-family:'lucida grande', 'lucida sans unicode', verdana, arial, helvetica, sans-serif;font-size:11px;color:#666;cursor:default;line-height:14px;fill:#666;" y="321" x="137.8"><tspan x="137.8">11 do</tspan><tspan x="137.8" dy="14">19</tspan></text><text opacity="1" text-anchor="middle" style="font-family:'lucida grande', 'lucida sans unicode', verdana, arial, helvetica, sans-serif;font-size:11px;color:#666;cursor:default;line-height:14px;fill:#666;" y="321" x="191"><tspan x="191">20 do</tspan><tspan x="191" dy="14">29</tspan></text><text opacity="1" text-anchor="middle" style="font-family:'lucida grande', 'lucida sans unicode', verdana, arial, helvetica, sans-serif;font-size:11px;color:#666;cursor:default;line-height:14px;fill:#666;" y="321" x="244.20000000000002"><tspan x="244.20000000000002">30 do</tspan><tspan x="244.20000000000002" dy="14">39</tspan></text><text opacity="1" text-anchor="middle" style="font-family:'lucida grande', 'lucida sans unicode', verdana, arial, helvetica, sans-serif;font-size:11px;color:#666;cursor:default;line-height:14px;fill:#666;" y="321" x="297.4"><tspan x="297.4">40 do</tspan><tspan x="297.4" dy="14">49</tspan></text><text opacity="1" text-anchor="middle" style="font-family:'lucida grande', 'lucida sans unicode', verdana, arial, helvetica, sans-serif;font-size:11px;color:#666;cursor:default;line-height:14px;fill:#666;" y="321" x="350.6"><tspan x="350.6">50 do</tspan><tspan x="350.6" dy="14">59</tspan></text><text opacity="1" text-anchor="middle" style="font-family:'lucida grande', 'lucida sans unicode', verdana, arial, helvetica, sans-serif;font-size:11px;color:#666;cursor:default;line-height:14px;fill:#666;" y="321" x="403.8"><tspan x="403.8">60 do</tspan><tspan x="403.8" dy="14">69</tspan></text><text opacity="1" text-anchor="middle" style="font-family:'lucida grande', 'lucida sans unicode', verdana, arial, helvetica, sans-serif;font-size:11px;color:#666;cursor:default;line-height:14px;fill:#666;" y="321" x="457"><tspan x="457">70 do</tspan><tspan x="457" dy="14">79</tspan></text><text opacity="1" text-anchor="middle" style="font-family:'lucida grande', 'lucida sans unicode', verdana, arial, helvetica, sans-serif;font-size:11px;color:#666;cursor:default;line-height:14px;fill:#666;" y="321" x="510.20000000000005"><tspan x="510.20000000000005">80 do</tspan><tspan x="510.20000000000005" dy="14">89</tspan></text><text opacity="1" text-anchor="middle" style="font-family:'lucida grande', 'lucida sans unicode', verdana, arial, helvetica, sans-serif;font-size:11px;color:#666;cursor:default;line-height:14px;fill:#666;" y="321" x="563.4"><tspan x="563.4">neznano</tspan></text></g><g  class="highcharts-axis-labels"><text opacity="1" text-anchor="end" style="font-family:'lucida grande', 'lucida sans unicode', verdana, arial, helvetica, sans-serif;font-size:11px;color:#666;cursor:default;line-height:14px;fill:#666;" y="312.25" x="50"><tspan x="50">0</tspan></text><text opacity="1" text-anchor="end" style="font-family:'lucida grande', 'lucida sans unicode', verdana, arial, helvetica, sans-serif;font-size:11px;color:#666;cursor:default;line-height:14px;fill:#666;" y="229.91666666666669" x="50"><tspan x="50">10</tspan></text><text opacity="1" text-anchor="end" style="font-family:'lucida grande', 'lucida sans unicode', verdana, arial, helvetica, sans-serif;font-size:11px;color:#666;cursor:default;line-height:14px;fill:#666;" y="147.58333333333334" x="50"><tspan x="50">20</tspan></text><text opacity="1" text-anchor="end" style="font-family:'lucida grande', 'lucida sans unicode', verdana, arial, helvetica, sans-serif;font-size:11px;color:#666;cursor:default;line-height:14px;fill:#666;" y="65.25000000000003" x="50"><tspan x="50">30</tspan></text></g><g transform="translate(0,-999)" style="cursor:default;padding:0;white-space:nowrap;"  class="highcharts-tooltip"><rect transform="translate(1, 1)" stroke-width="5" stroke-opacity="0.049999999999999996" stroke="black"  fill-opacity="0.85" height="16" width="16" y="0.5" x="0.5" fill="none" ry="3" rx="3"></rect><rect transform="translate(1, 1)" stroke-width="3" stroke-opacity="0.09999999999999999" stroke="black"  fill-opacity="0.85" height="16" width="16" y="0.5" x="0.5" fill="none" ry="3" rx="3"></rect><rect transform="translate(1, 1)" stroke-width="1" stroke-opacity="0.15" stroke="black"  fill-opacity="0.85" height="16" width="16" y="0.5" x="0.5" fill="none" ry="3" rx="3"></rect><rect fill-opacity="0.85" height="16" width="16" y="0.5" x="0.5" fill="rgb(255,255,255)" ry="3" rx="3"></rect><text  style="font-family:'lucida grande', 'lucida sans unicode', verdana, arial, helvetica, sans-serif;font-size:12px;color:#333333;fill:#333333;" y="21" x="8"></text></g></svg>