<?xml version="1.0" standalone="no"?><!DOCTYPE svg PUBLIC "-//W3C//DTD SVG 1.1//EN" "http://www.w3.org/Graphics/SVG/1.1/DTD/svg11.dtd"><svg xmlns:xlink="http://www.w3.org/1999/xlink" height="400" width="600" xmlns="http://www.w3.org/2000/svg" version="1.1"><desc>Created with Highcharts 3.0.7</desc><defs><clipPath id="highcharts-7"><rect height="262" width="526" y="0" x="0" fill="none"></rect></clipPath></defs><rect height="400" width="600" y="0" x="0" fill="#FFFFFF" ry="0" rx="0"></rect><path stroke-width="1" stroke="#808080" d="M 64 270.5 L 590 270.5" fill="none"></path><g  class="highcharts-grid"></g><g  class="highcharts-grid"><path opacity="1"  stroke-width="1" stroke="#C0C0C0" d="M 64 270.5 L 590 270.5" fill="none"></path><path opacity="1"  stroke-width="1" stroke="#C0C0C0" d="M 64 217.5 L 590 217.5" fill="none"></path><path opacity="1"  stroke-width="1" stroke="#C0C0C0" d="M 64 165.5 L 590 165.5" fill="none"></path><path opacity="1"  stroke-width="1" stroke="#C0C0C0" d="M 64 112.5 L 590 112.5" fill="none"></path><path opacity="1"  stroke-width="1" stroke="#C0C0C0" d="M 64 59.5 L 590 59.5" fill="none"></path><path opacity="1"  stroke-width="1" stroke="#C0C0C0" d="M 64 322.5 L 590 322.5" fill="none"></path></g><g  class="highcharts-axis"><path opacity="1" stroke-width="1" stroke="#C0D0E0" d="M 116.5 322 L 116.5 327" fill="none"></path><path opacity="1" stroke-width="1" stroke="#C0D0E0" d="M 142.5 322 L 142.5 327" fill="none"></path><path opacity="1" stroke-width="1" stroke="#C0D0E0" d="M 168.5 322 L 168.5 327" fill="none"></path><path opacity="1" stroke-width="1" stroke="#C0D0E0" d="M 195.5 322 L 195.5 327" fill="none"></path><path opacity="1" stroke-width="1" stroke="#C0D0E0" d="M 221.5 322 L 221.5 327" fill="none"></path><path opacity="1" stroke-width="1" stroke="#C0D0E0" d="M 247.5 322 L 247.5 327" fill="none"></path><path opacity="1" stroke-width="1" stroke="#C0D0E0" d="M 273.5 322 L 273.5 327" fill="none"></path><path opacity="1" stroke-width="1" stroke="#C0D0E0" d="M 300.5 322 L 300.5 327" fill="none"></path><path opacity="1" stroke-width="1" stroke="#C0D0E0" d="M 326.5 322 L 326.5 327" fill="none"></path><path opacity="1" stroke-width="1" stroke="#C0D0E0" d="M 352.5 322 L 352.5 327" fill="none"></path><path opacity="1" stroke-width="1" stroke="#C0D0E0" d="M 379.5 322 L 379.5 327" fill="none"></path><path opacity="1" stroke-width="1" stroke="#C0D0E0" d="M 405.5 322 L 405.5 327" fill="none"></path><path opacity="1" stroke-width="1" stroke="#C0D0E0" d="M 431.5 322 L 431.5 327" fill="none"></path><path opacity="1" stroke-width="1" stroke="#C0D0E0" d="M 458.5 322 L 458.5 327" fill="none"></path><path opacity="1" stroke-width="1" stroke="#C0D0E0" d="M 484.5 322 L 484.5 327" fill="none"></path><path opacity="1" stroke-width="1" stroke="#C0D0E0" d="M 510.5 322 L 510.5 327" fill="none"></path><path opacity="1" stroke-width="1" stroke="#C0D0E0" d="M 536.5 322 L 536.5 327" fill="none"></path><path opacity="1" stroke-width="1" stroke="#C0D0E0" d="M 563.5 322 L 563.5 327" fill="none"></path><path opacity="1" stroke-width="1" stroke="#C0D0E0" d="M 590.5 322 L 590.5 327" fill="none"></path><path opacity="1" stroke-width="1" stroke="#C0D0E0" d="M 89.5 322 L 89.5 327" fill="none"></path><path stroke-width="1" stroke="#C0D0E0" d="M 63.5 322 L 63.5 327" fill="none"></path><path visibility="visible"  stroke-width="1" stroke="#C0D0E0" d="M 64 322.5 L 590 322.5" fill="none"></path></g><g  class="highcharts-axis"><text visibility="visible" transform="translate(0,0) rotate(270 24.75 191)" text-anchor="middle"  style="font-family:'lucida grande', 'lucida sans unicode', verdana, arial, helvetica, sans-serif;font-size:12px;color:#4d759e;font-weight:bold;fill:#4d759e;" y="191" x="24.75"><tspan x="24.75">Število Judov</tspan></text></g><g  class="highcharts-series-group"><g clip-path="url(#highcharts-7)" transform="translate(64,60) scale(1 1)"  visibility="visible" class="highcharts-series"><path stroke-linecap="round" stroke-linejoin="round"  stroke-width="2" stroke="#2f7ed8" d="M 13.15 209.6 L 39.45 209.6 L 65.75 209.6 L 92.05000000000001 209.6 L 118.35000000000001 209.6 L 144.65 209.6 L 170.95000000000002 209.6 L 197.25 204.36 L 223.55 204.36 L 249.85000000000002 209.6 L 276.15 209.6 L 302.45 178.16 L 328.75 183.39999999999998 L 355.05 157.2 L 381.34999999999997 172.92000000000002 L 407.65 167.68 L 433.95 146.72 L 460.25 199.12 L 486.55 209.6 L 512.85 204.36" fill="none"></path><path style="" class=" highcharts-tracker"  stroke-width="22" stroke="rgb(192,192,192)" stroke-opacity="0.0001" visibility="visible" stroke-linejoin="round" d="M 3.1500000000000004 209.6 L 13.15 209.6 L 39.45 209.6 L 65.75 209.6 L 92.05000000000001 209.6 L 118.35000000000001 209.6 L 144.65 209.6 L 170.95000000000002 209.6 L 197.25 204.36 L 223.55 204.36 L 249.85000000000002 209.6 L 276.15 209.6 L 302.45 178.16 L 328.75 183.39999999999998 L 355.05 157.2 L 381.34999999999997 172.92000000000002 L 407.65 167.68 L 433.95 146.72 L 460.25 199.12 L 486.55 209.6 L 512.85 204.36 L 522.85 204.36" fill="none"></path></g><g clip-path="none" style="" transform="translate(64,60) scale(1 1)"  visibility="visible" class="highcharts-markers highcharts-tracker"><path d="M 512 200.36 C 517.328 200.36 517.328 208.36 512 208.36 C 506.672 208.36 506.672 200.36 512 200.36 Z" fill="#2f7ed8"></path><path d="M 486 205.6 C 491.328 205.6 491.328 213.6 486 213.6 C 480.672 213.6 480.672 205.6 486 205.6 Z" fill="#2f7ed8"></path><path d="M 460 195.12 C 465.328 195.12 465.328 203.12 460 203.12 C 454.672 203.12 454.672 195.12 460 195.12 Z" fill="#2f7ed8"></path><path d="M 433 142.72 C 438.328 142.72 438.328 150.72 433 150.72 C 427.672 150.72 427.672 142.72 433 142.72 Z" fill="#2f7ed8"></path><path d="M 407 163.68 C 412.328 163.68 412.328 171.68 407 171.68 C 401.672 171.68 401.672 163.68 407 163.68 Z" fill="#2f7ed8"></path><path d="M 381 168.92000000000002 C 386.328 168.92000000000002 386.328 176.92000000000002 381 176.92000000000002 C 375.672 176.92000000000002 375.672 168.92000000000002 381 168.92000000000002 Z" fill="#2f7ed8"></path><path d="M 355 153.2 C 360.328 153.2 360.328 161.2 355 161.2 C 349.672 161.2 349.672 153.2 355 153.2 Z" fill="#2f7ed8"></path><path d="M 328 179.39999999999998 C 333.328 179.39999999999998 333.328 187.39999999999998 328 187.39999999999998 C 322.672 187.39999999999998 322.672 179.39999999999998 328 179.39999999999998 Z" fill="#2f7ed8"></path><path d="M 302 174.16 C 307.328 174.16 307.328 182.16 302 182.16 C 296.672 182.16 296.672 174.16 302 174.16 Z" fill="#2f7ed8"></path><path d="M 276 205.6 C 281.328 205.6 281.328 213.6 276 213.6 C 270.672 213.6 270.672 205.6 276 205.6 Z" fill="#2f7ed8"></path><path d="M 249 205.6 C 254.328 205.6 254.328 213.6 249 213.6 C 243.672 213.6 243.672 205.6 249 205.6 Z" fill="#2f7ed8"></path><path d="M 223 200.36 C 228.328 200.36 228.328 208.36 223 208.36 C 217.672 208.36 217.672 200.36 223 200.36 Z" fill="#2f7ed8"></path><path d="M 197 200.36 C 202.328 200.36 202.328 208.36 197 208.36 C 191.672 208.36 191.672 200.36 197 200.36 Z" fill="#2f7ed8"></path><path d="M 170 205.6 C 175.328 205.6 175.328 213.6 170 213.6 C 164.672 213.6 164.672 205.6 170 205.6 Z" fill="#2f7ed8"></path><path d="M 144 205.6 C 149.328 205.6 149.328 213.6 144 213.6 C 138.672 213.6 138.672 205.6 144 205.6 Z" fill="#2f7ed8"></path><path d="M 118 205.6 C 123.328 205.6 123.328 213.6 118 213.6 C 112.672 213.6 112.672 205.6 118 205.6 Z" fill="#2f7ed8"></path><path d="M 92 205.6 C 97.328 205.6 97.328 213.6 92 213.6 C 86.672 213.6 86.672 205.6 92 205.6 Z" fill="#2f7ed8"></path><path d="M 65 205.6 C 70.328 205.6 70.328 213.6 65 213.6 C 59.672 213.6 59.672 205.6 65 205.6 Z" fill="#2f7ed8"></path><path d="M 39 205.6 C 44.328 205.6 44.328 213.6 39 213.6 C 33.672 213.6 33.672 205.6 39 205.6 Z" fill="#2f7ed8"></path><path d="M 13 205.6 C 18.328 205.6 18.328 213.6 13 213.6 C 7.672 213.6 7.672 205.6 13 205.6 Z" fill="#2f7ed8"></path></g><g clip-path="url(#highcharts-7)" transform="translate(64,60) scale(1 1)"  visibility="visible" class="highcharts-series"><path stroke-linecap="round" stroke-linejoin="round"  stroke-width="2" stroke="#0d233a" d="M 13.15 204.36 L 39.45 209.6 L 65.75 193.88 L 92.05000000000001 151.95999999999998 L 118.35000000000001 136.24 L 144.65 104.79999999999998 L 170.95000000000002 52.39999999999998 L 197.25 26.19999999999999 L 223.55 36.67999999999998 L 249.85000000000002 52.39999999999998 L 276.15 57.639999999999986 L 302.45 26.19999999999999 L 328.75 57.639999999999986 L 355.05 57.639999999999986 L 381.34999999999997 115.28 L 407.65 136.24 L 433.95 120.51999999999998 L 460.25 125.75999999999999 L 486.55 141.48 L 512.85 151.95999999999998" fill="none"></path><path style="" class=" highcharts-tracker"  stroke-width="22" stroke="rgb(192,192,192)" stroke-opacity="0.0001" visibility="visible" stroke-linejoin="round" d="M 3.1500000000000004 204.36 L 13.15 204.36 L 39.45 209.6 L 65.75 193.88 L 92.05000000000001 151.95999999999998 L 118.35000000000001 136.24 L 144.65 104.79999999999998 L 170.95000000000002 52.39999999999998 L 197.25 26.19999999999999 L 223.55 36.67999999999998 L 249.85000000000002 52.39999999999998 L 276.15 57.639999999999986 L 302.45 26.19999999999999 L 328.75 57.639999999999986 L 355.05 57.639999999999986 L 381.34999999999997 115.28 L 407.65 136.24 L 433.95 120.51999999999998 L 460.25 125.75999999999999 L 486.55 141.48 L 512.85 151.95999999999998 L 522.85 151.95999999999998" fill="none"></path></g><g clip-path="none" style="" transform="translate(64,60) scale(1 1)"  visibility="visible" class="highcharts-markers highcharts-tracker"><path d="M 512 147.95999999999998 L 516 151.95999999999998 512 155.95999999999998 508 151.95999999999998 Z" fill="#0d233a"></path><path d="M 486 137.48 L 490 141.48 486 145.48 482 141.48 Z" fill="#0d233a"></path><path d="M 460 121.75999999999999 L 464 125.75999999999999 460 129.76 456 125.75999999999999 Z" fill="#0d233a"></path><path d="M 433 116.51999999999998 L 437 120.51999999999998 433 124.51999999999998 429 120.51999999999998 Z" fill="#0d233a"></path><path d="M 407 132.24 L 411 136.24 407 140.24 403 136.24 Z" fill="#0d233a"></path><path d="M 381 111.28 L 385 115.28 381 119.28 377 115.28 Z" fill="#0d233a"></path><path d="M 355 53.639999999999986 L 359 57.639999999999986 355 61.639999999999986 351 57.639999999999986 Z" fill="#0d233a"></path><path d="M 328 53.639999999999986 L 332 57.639999999999986 328 61.639999999999986 324 57.639999999999986 Z" fill="#0d233a"></path><path d="M 302 22.19999999999999 L 306 26.19999999999999 302 30.19999999999999 298 26.19999999999999 Z" fill="#0d233a"></path><path d="M 276 53.639999999999986 L 280 57.639999999999986 276 61.639999999999986 272 57.639999999999986 Z" fill="#0d233a"></path><path d="M 249 48.39999999999998 L 253 52.39999999999998 249 56.39999999999998 245 52.39999999999998 Z" fill="#0d233a"></path><path d="M 223 32.67999999999998 L 227 36.67999999999998 223 40.67999999999998 219 36.67999999999998 Z" fill="#0d233a"></path><path d="M 197 22.19999999999999 L 201 26.19999999999999 197 30.19999999999999 193 26.19999999999999 Z" fill="#0d233a"></path><path d="M 170 48.39999999999998 L 174 52.39999999999998 170 56.39999999999998 166 52.39999999999998 Z" fill="#0d233a"></path><path d="M 144 100.79999999999998 L 148 104.79999999999998 144 108.79999999999998 140 104.79999999999998 Z" fill="#0d233a"></path><path d="M 118 132.24 L 122 136.24 118 140.24 114 136.24 Z" fill="#0d233a"></path><path d="M 92 147.95999999999998 L 96 151.95999999999998 92 155.95999999999998 88 151.95999999999998 Z" fill="#0d233a"></path><path d="M 65 189.88 L 69 193.88 65 197.88 61 193.88 Z" fill="#0d233a"></path><path d="M 39 205.6 L 43 209.6 39 213.6 35 209.6 Z" fill="#0d233a"></path><path d="M 13 200.36 L 17 204.36 13 208.36 9 204.36 Z" fill="#0d233a"></path></g></g><text  class="highcharts-title" text-anchor="middle" style="font-family:'lucida grande', 'lucida sans unicode', verdana, arial, helvetica, sans-serif;font-size:16px;color:#274b6d;fill:#274b6d;" y="25" x="300"><tspan x="300">Leto rojstva judovskih žrtev holokavsta in preživelih Judov iz</tspan><tspan x="300" dy="16">Prekmurja; št.</tspan></text><g transform="translate(227,359)"  class="highcharts-legend"><rect visibility="visible" stroke-width="1" stroke="#909090" height="25" width="145" y="0.5" x="0.5" fill="none" ry="5" rx="5"></rect><g ><g><g transform="translate(8,3)"  class="highcharts-legend-item"><path stroke-width="2" stroke="#2f7ed8" d="M 0 11 L 16 11" fill="none"></path><path d="M 8 7 C 13.328 7 13.328 15 8 15 C 2.6719999999999997 15 2.6719999999999997 7 8 7 Z" fill="#2f7ed8"></path><text  text-anchor="start" style="font-family:'lucida grande', 'lucida sans unicode', verdana, arial, helvetica, sans-serif;font-size:12px;cursor:pointer;color:#274b6d;fill:#274b6d;" y="15" x="21"><tspan x="21">preživeli</tspan></text></g><g transform="translate(87.28333282470703,3)"  class="highcharts-legend-item"><path stroke-width="2" stroke="#0d233a" d="M 0 11 L 16 11" fill="none"></path><path d="M 8 7 L 12 11 8 15 4 11 Z" fill="#0d233a"></path><text  text-anchor="start" style="font-family:'lucida grande', 'lucida sans unicode', verdana, arial, helvetica, sans-serif;font-size:12px;cursor:pointer;color:#274b6d;fill:#274b6d;" y="15" x="21"><tspan x="21">žrtve</tspan></text></g></g></g></g><g  class="highcharts-axis-labels"><text opacity="1" text-anchor="middle" style="font-family:'lucida grande', 'lucida sans unicode', verdana, arial, helvetica, sans-serif;font-size:11px;color:#666;cursor:default;line-height:14px;fill:#666;" y="336" x="77.14999999999999"><tspan x="77.14999999999999">1845/9</tspan></text><text opacity="1" text-anchor="middle" style="font-family:'lucida grande', 'lucida sans unicode', verdana, arial, helvetica, sans-serif;font-size:11px;color:#666;cursor:default;line-height:14px;fill:#666;" y="349.5" x="103.44999999999999"><tspan x="103.44999999999999">1850/4</tspan></text><text opacity="1" text-anchor="middle" style="font-family:'lucida grande', 'lucida sans unicode', verdana, arial, helvetica, sans-serif;font-size:11px;color:#666;cursor:default;line-height:14px;fill:#666;" y="336" x="129.75"><tspan x="129.75">1855/9</tspan></text><text opacity="1" text-anchor="middle" style="font-family:'lucida grande', 'lucida sans unicode', verdana, arial, helvetica, sans-serif;font-size:11px;color:#666;cursor:default;line-height:14px;fill:#666;" y="349.5" x="156.04999999999998"><tspan x="156.04999999999998">1860/4</tspan></text><text opacity="1" text-anchor="middle" style="font-family:'lucida grande', 'lucida sans unicode', verdana, arial, helvetica, sans-serif;font-size:11px;color:#666;cursor:default;line-height:14px;fill:#666;" y="336" x="182.35"><tspan x="182.35">1865/9</tspan></text><text opacity="1" text-anchor="middle" style="font-family:'lucida grande', 'lucida sans unicode', verdana, arial, helvetica, sans-serif;font-size:11px;color:#666;cursor:default;line-height:14px;fill:#666;" y="349.5" x="208.65"><tspan x="208.65">1870/4</tspan></text><text opacity="1" text-anchor="middle" style="font-family:'lucida grande', 'lucida sans unicode', verdana, arial, helvetica, sans-serif;font-size:11px;color:#666;cursor:default;line-height:14px;fill:#666;" y="336" x="234.95000000000002"><tspan x="234.95000000000002">1875/9</tspan></text><text opacity="1" text-anchor="middle" style="font-family:'lucida grande', 'lucida sans unicode', verdana, arial, helvetica, sans-serif;font-size:11px;color:#666;cursor:default;line-height:14px;fill:#666;" y="349.5" x="261.25"><tspan x="261.25">1880/4</tspan></text><text opacity="1" text-anchor="middle" style="font-family:'lucida grande', 'lucida sans unicode', verdana, arial, helvetica, sans-serif;font-size:11px;color:#666;cursor:default;line-height:14px;fill:#666;" y="336" x="287.55000000000007"><tspan x="287.55000000000007">1885/9</tspan></text><text opacity="1" text-anchor="middle" style="font-family:'lucida grande', 'lucida sans unicode', verdana, arial, helvetica, sans-serif;font-size:11px;color:#666;cursor:default;line-height:14px;fill:#666;" y="349.5" x="313.85"><tspan x="313.85">1890/4</tspan></text><text opacity="1" text-anchor="middle" style="font-family:'lucida grande', 'lucida sans unicode', verdana, arial, helvetica, sans-serif;font-size:11px;color:#666;cursor:default;line-height:14px;fill:#666;" y="336" x="340.15000000000003"><tspan x="340.15000000000003">1895/9</tspan></text><text opacity="1" text-anchor="middle" style="font-family:'lucida grande', 'lucida sans unicode', verdana, arial, helvetica, sans-serif;font-size:11px;color:#666;cursor:default;line-height:14px;fill:#666;" y="349.5" x="366.45"><tspan x="366.45">1900/4</tspan></text><text opacity="1" text-anchor="middle" style="font-family:'lucida grande', 'lucida sans unicode', verdana, arial, helvetica, sans-serif;font-size:11px;color:#666;cursor:default;line-height:14px;fill:#666;" y="336" x="392.75"><tspan x="392.75">1905/9</tspan></text><text opacity="1" text-anchor="middle" style="font-family:'lucida grande', 'lucida sans unicode', verdana, arial, helvetica, sans-serif;font-size:11px;color:#666;cursor:default;line-height:14px;fill:#666;" y="349.5" x="419.05"><tspan x="419.05">1910/4</tspan></text><text opacity="1" text-anchor="middle" style="font-family:'lucida grande', 'lucida sans unicode', verdana, arial, helvetica, sans-serif;font-size:11px;color:#666;cursor:default;line-height:14px;fill:#666;" y="336" x="445.35"><tspan x="445.35">1915/9</tspan></text><text opacity="1" text-anchor="middle" style="font-family:'lucida grande', 'lucida sans unicode', verdana, arial, helvetica, sans-serif;font-size:11px;color:#666;cursor:default;line-height:14px;fill:#666;" y="349.5" x="471.65000000000003"><tspan x="471.65000000000003">1920/4</tspan></text><text opacity="1" text-anchor="middle" style="font-family:'lucida grande', 'lucida sans unicode', verdana, arial, helvetica, sans-serif;font-size:11px;color:#666;cursor:default;line-height:14px;fill:#666;" y="336" x="497.95"><tspan x="497.95">1925/9</tspan></text><text opacity="1" text-anchor="middle" style="font-family:'lucida grande', 'lucida sans unicode', verdana, arial, helvetica, sans-serif;font-size:11px;color:#666;cursor:default;line-height:14px;fill:#666;" y="349.5" x="524.25"><tspan x="524.25">1930/4</tspan></text><text opacity="1" text-anchor="middle" style="font-family:'lucida grande', 'lucida sans unicode', verdana, arial, helvetica, sans-serif;font-size:11px;color:#666;cursor:default;line-height:14px;fill:#666;" y="336" x="550.5500000000001"><tspan x="550.5500000000001">1935/9</tspan></text><text opacity="1" text-anchor="middle" style="font-family:'lucida grande', 'lucida sans unicode', verdana, arial, helvetica, sans-serif;font-size:11px;color:#666;cursor:default;line-height:14px;fill:#666;" y="349.5" x="576.85"><tspan x="576.85">1940/3</tspan></text></g><g  class="highcharts-axis-labels"><text opacity="1" text-anchor="end" style="font-family:'lucida grande', 'lucida sans unicode', verdana, arial, helvetica, sans-serif;font-size:11px;color:#666;cursor:default;line-height:14px;fill:#666;" y="274.85" x="56"><tspan x="56">0</tspan></text><text opacity="1" text-anchor="end" style="font-family:'lucida grande', 'lucida sans unicode', verdana, arial, helvetica, sans-serif;font-size:11px;color:#666;cursor:default;line-height:14px;fill:#666;" y="222.45" x="56"><tspan x="56">10</tspan></text><text opacity="1" text-anchor="end" style="font-family:'lucida grande', 'lucida sans unicode', verdana, arial, helvetica, sans-serif;font-size:11px;color:#666;cursor:default;line-height:14px;fill:#666;" y="170.04999999999998" x="56"><tspan x="56">20</tspan></text><text opacity="1" text-anchor="end" style="font-family:'lucida grande', 'lucida sans unicode', verdana, arial, helvetica, sans-serif;font-size:11px;color:#666;cursor:default;line-height:14px;fill:#666;" y="117.64999999999998" x="56"><tspan x="56">30</tspan></text><text opacity="1" text-anchor="end" style="font-family:'lucida grande', 'lucida sans unicode', verdana, arial, helvetica, sans-serif;font-size:11px;color:#666;cursor:default;line-height:14px;fill:#666;" y="65.25" x="56"><tspan x="56">40</tspan></text><text opacity="1" text-anchor="end" style="font-family:'lucida grande', 'lucida sans unicode', verdana, arial, helvetica, sans-serif;font-size:11px;color:#666;cursor:default;line-height:14px;fill:#666;" y="327.25" x="56"><tspan x="56">-10</tspan></text></g><g transform="translate(0,-999)" style="cursor:default;padding:0;white-space:nowrap;"  class="highcharts-tooltip"><rect transform="translate(1, 1)" stroke-width="5" stroke-opacity="0.049999999999999996" stroke="black"  fill-opacity="0.85" height="16" width="16" y="0.5" x="0.5" fill="none" ry="3" rx="3"></rect><rect transform="translate(1, 1)" stroke-width="3" stroke-opacity="0.09999999999999999" stroke="black"  fill-opacity="0.85" height="16" width="16" y="0.5" x="0.5" fill="none" ry="3" rx="3"></rect><rect transform="translate(1, 1)" stroke-width="1" stroke-opacity="0.15" stroke="black"  fill-opacity="0.85" height="16" width="16" y="0.5" x="0.5" fill="none" ry="3" rx="3"></rect><rect fill-opacity="0.85" height="16" width="16" y="0.5" x="0.5" fill="rgb(255,255,255)" ry="3" rx="3"></rect><text  style="font-family:'lucida grande', 'lucida sans unicode', verdana, arial, helvetica, sans-serif;font-size:12px;color:#333333;fill:#333333;" y="21" x="8"></text></g></svg>