<?xml version="1.0" standalone="no"?><!DOCTYPE svg PUBLIC "-//W3C//DTD SVG 1.1//EN" "http://www.w3.org/Graphics/SVG/1.1/DTD/svg11.dtd"><svg xmlns:xlink="http://www.w3.org/1999/xlink" height="400" width="600" xmlns="http://www.w3.org/2000/svg" version="1.1"><desc>Created with Highcharts 3.0.7</desc><defs><clipPath id="highcharts-5"><rect height="296" width="525" y="0" x="0" fill="none"></rect></clipPath></defs><rect height="400" width="600" y="0" x="0" fill="#FFFFFF" ry="0" rx="0"></rect><g  class="highcharts-grid"></g><g  class="highcharts-grid"><path opacity="1"  stroke-width="1" stroke="#C0C0C0" d="M 65 262.5 L 590 262.5" fill="none"></path><path opacity="1"  stroke-width="1" stroke="#C0C0C0" d="M 65 188.5 L 590 188.5" fill="none"></path><path opacity="1"  stroke-width="1" stroke="#C0C0C0" d="M 65 114.5 L 590 114.5" fill="none"></path><path opacity="1"  stroke-width="1" stroke="#C0C0C0" d="M 65 39.5 L 590 39.5" fill="none"></path><path opacity="1"  stroke-width="1" stroke="#C0C0C0" d="M 65 336.5 L 590 336.5" fill="none"></path></g><g  class="highcharts-axis"><path opacity="1" stroke-width="1" stroke="#C0D0E0" d="M 274.5 336 L 274.5 341" fill="none"></path><path opacity="1" stroke-width="1" stroke="#C0D0E0" d="M 379.5 336 L 379.5 341" fill="none"></path><path opacity="1" stroke-width="1" stroke="#C0D0E0" d="M 484.5 336 L 484.5 341" fill="none"></path><path opacity="1" stroke-width="1" stroke="#C0D0E0" d="M 590.5 336 L 590.5 341" fill="none"></path><path opacity="1" stroke-width="1" stroke="#C0D0E0" d="M 169.5 336 L 169.5 341" fill="none"></path><path stroke-width="1" stroke="#C0D0E0" d="M 64.5 336 L 64.5 341" fill="none"></path><path visibility="visible"  stroke-width="1" stroke="#C0D0E0" d="M 65 336.5 L 590 336.5" fill="none"></path></g><g  class="highcharts-axis"><text visibility="visible" transform="translate(0,0) rotate(270 25.149999618530273 188)" text-anchor="middle"  style="font-family:'lucida grande', 'lucida sans unicode', verdana, arial, helvetica, sans-serif;font-size:12px;color:#4d759e;font-weight:bold;fill:#4d759e;" y="188" x="25.149999618530273"><tspan x="25.149999618530273">Odstotki</tspan></text></g><g  class="highcharts-series-group"><g clip-path="url(#highcharts-5)" style="" transform="translate(65,40) scale(1 1)"  visibility="visible" class="highcharts-series highcharts-tracker"><rect ry="0" rx="0" stroke-width="1" stroke="#FFFFFF" height="134" width="51" y="-0.5" x="26.5" fill="#2f7ed8"></rect><rect ry="0" rx="0" stroke-width="1" stroke="#FFFFFF" height="162" width="51" y="-0.5" x="131.5" fill="#2f7ed8"></rect><rect ry="0" rx="0" stroke-width="1" stroke="#FFFFFF" height="277" width="51" y="-0.5" x="236.5" fill="#2f7ed8"></rect><rect ry="0" rx="0" stroke-width="1" stroke="#FFFFFF" height="184" width="51" y="-0.5" x="341.5" fill="#2f7ed8"></rect><rect ry="0" rx="0" stroke-width="1" stroke="#FFFFFF" height="71" width="51" y="-0.5" x="446.5" fill="#2f7ed8"></rect></g><g clip-path="none" transform="translate(65,40) scale(1 1)"  visibility="visible" class="highcharts-markers"></g><g clip-path="url(#highcharts-5)" style="" transform="translate(65,40) scale(1 1)"  visibility="visible" class="highcharts-series highcharts-tracker"><rect ry="0" rx="0" stroke-width="1" stroke="#FFFFFF" height="56" width="51" y="133.5" x="26.5" fill="#0d233a"></rect><rect ry="0" rx="0" stroke-width="1" stroke="#FFFFFF" height="26" width="51" y="161.5" x="131.5" fill="#0d233a"></rect><rect ry="0" rx="0" stroke-width="1" stroke="#FFFFFF" height="0" width="51" y="276.5" x="236.5" fill="#0d233a"></rect><rect ry="0" rx="0" stroke-width="1" stroke="#FFFFFF" height="43" width="51" y="183.5" x="341.5" fill="#0d233a"></rect><rect ry="0" rx="0" stroke-width="1" stroke="#FFFFFF" height="0" width="51" y="70.5" x="446.5" fill="#0d233a"></rect></g><g clip-path="none" transform="translate(65,40) scale(1 1)"  visibility="visible" class="highcharts-markers"></g><g clip-path="url(#highcharts-5)" style="" transform="translate(65,40) scale(1 1)"  visibility="visible" class="highcharts-series highcharts-tracker"><rect ry="0" rx="0" stroke-width="1" stroke="#FFFFFF" height="23" width="51" y="189.5" x="26.5" fill="#8bbc21"></rect><rect ry="0" rx="0" stroke-width="1" stroke="#FFFFFF" height="87" width="51" y="187.5" x="131.5" fill="#8bbc21"></rect><rect ry="0" rx="0" stroke-width="1" stroke="#FFFFFF" height="0" width="51" y="276.5" x="236.5" fill="#8bbc21"></rect><rect ry="0" rx="0" stroke-width="1" stroke="#FFFFFF" height="0" width="51" y="226.5" x="341.5" fill="#8bbc21"></rect><rect ry="0" rx="0" stroke-width="1" stroke="#FFFFFF" height="156" width="51" y="70.5" x="446.5" fill="#8bbc21"></rect></g><g clip-path="none" transform="translate(65,40) scale(1 1)"  visibility="visible" class="highcharts-markers"></g><g clip-path="url(#highcharts-5)" style="" transform="translate(65,40) scale(1 1)"  visibility="visible" class="highcharts-series highcharts-tracker"><rect ry="0" rx="0" stroke-width="1" stroke="#FFFFFF" height="22" width="51" y="212.5" x="26.5" fill="#910000"></rect><rect ry="0" rx="0" stroke-width="1" stroke="#FFFFFF" height="0" width="51" y="274.5" x="131.5" fill="#910000"></rect><rect ry="0" rx="0" stroke-width="1" stroke="#FFFFFF" height="0" width="51" y="276.5" x="236.5" fill="#910000"></rect><rect ry="0" rx="0" stroke-width="1" stroke="#FFFFFF" height="0" width="51" y="226.5" x="341.5" fill="#910000"></rect><rect ry="0" rx="0" stroke-width="1" stroke="#FFFFFF" height="0" width="51" y="226.5" x="446.5" fill="#910000"></rect></g><g clip-path="none" transform="translate(65,40) scale(1 1)"  visibility="visible" class="highcharts-markers"></g><g clip-path="url(#highcharts-5)" style="" transform="translate(65,40) scale(1 1)"  visibility="visible" class="highcharts-series highcharts-tracker"><rect ry="0" rx="0" stroke-width="1" stroke="#FFFFFF" height="47" width="51" y="234.5" x="26.5" fill="#1aadce"></rect><rect ry="0" rx="0" stroke-width="1" stroke="#FFFFFF" height="22" width="51" y="274.5" x="131.5" fill="#1aadce"></rect><rect ry="0" rx="0" stroke-width="1" stroke="#FFFFFF" height="0" width="51" y="276.5" x="236.5" fill="#1aadce"></rect><rect ry="0" rx="0" stroke-width="1" stroke="#FFFFFF" height="56" width="51" y="226.5" x="341.5" fill="#1aadce"></rect><rect ry="0" rx="0" stroke-width="1" stroke="#FFFFFF" height="0" width="51" y="226.5" x="446.5" fill="#1aadce"></rect></g><g clip-path="none" transform="translate(65,40) scale(1 1)"  visibility="visible" class="highcharts-markers"></g><g clip-path="url(#highcharts-5)" style="" transform="translate(65,40) scale(1 1)"  visibility="visible" class="highcharts-series highcharts-tracker"><rect ry="0" rx="0" stroke-width="1" stroke="#FFFFFF" height="15" width="51" y="281.5" x="26.5" fill="#492970"></rect><rect ry="0" rx="0" stroke-width="1" stroke="#FFFFFF" height="0" width="51" y="296.5" x="131.5" fill="#492970"></rect><rect ry="0" rx="0" stroke-width="1" stroke="#FFFFFF" height="20" width="51" y="276.5" x="236.5" fill="#492970"></rect><rect ry="0" rx="0" stroke-width="1" stroke="#FFFFFF" height="14" width="51" y="282.5" x="341.5" fill="#492970"></rect><rect ry="0" rx="0" stroke-width="1" stroke="#FFFFFF" height="70" width="51" y="226.5" x="446.5" fill="#492970"></rect></g><g clip-path="none" transform="translate(65,40) scale(1 1)"  visibility="visible" class="highcharts-markers"></g></g><text  class="highcharts-title" text-anchor="middle" style="font-family:'lucida grande', 'lucida sans unicode', verdana, arial, helvetica, sans-serif;font-size:16px;color:#274b6d;fill:#274b6d;" y="25" x="300"><tspan x="300">Državljanstvo Judov v večjih slovenskih mestih leta 1937</tspan></text><g transform="translate(23,359)"  class="highcharts-legend"><rect visibility="visible" stroke-width="1" stroke="#909090" height="25" width="553" y="0.5" x="0.5" fill="none" ry="5" rx="5"></rect><g ><g><g transform="translate(8,3)"  class="highcharts-legend-item"><text  text-anchor="start" style="font-family:'lucida grande', 'lucida sans unicode', verdana, arial, helvetica, sans-serif;font-size:12px;cursor:pointer;color:#274b6d;fill:#274b6d;" y="15" x="21"><tspan x="21">jugoslovansko</tspan></text><rect  height="12" width="16" y="4" x="0" fill="#2f7ed8" ry="2" rx="2"></rect></g><g transform="translate(122.5,3)"  class="highcharts-legend-item"><text  text-anchor="start" style="font-family:'lucida grande', 'lucida sans unicode', verdana, arial, helvetica, sans-serif;font-size:12px;cursor:pointer;color:#274b6d;fill:#274b6d;" y="15" x="21"><tspan x="21">avstrijsko</tspan></text><rect  height="12" width="16" y="4" x="0" fill="#0d233a" ry="2" rx="2"></rect></g><g transform="translate(208.41666793823242,3)"  class="highcharts-legend-item"><text  text-anchor="start" style="font-family:'lucida grande', 'lucida sans unicode', verdana, arial, helvetica, sans-serif;font-size:12px;cursor:pointer;color:#274b6d;fill:#274b6d;" y="15" x="21"><tspan x="21">češkoslovaško</tspan></text><rect  height="12" width="16" y="4" x="0" fill="#8bbc21" ry="2" rx="2"></rect></g><g transform="translate(321.96667098999023,3)"  class="highcharts-legend-item"><text  text-anchor="start" style="font-family:'lucida grande', 'lucida sans unicode', verdana, arial, helvetica, sans-serif;font-size:12px;cursor:pointer;color:#274b6d;fill:#274b6d;" y="15" x="21"><tspan x="21">madžarsko</tspan></text><rect  height="12" width="16" y="4" x="0" fill="#910000" ry="2" rx="2"></rect></g><g transform="translate(416.20000076293945,3)"  class="highcharts-legend-item"><text  text-anchor="start" style="font-family:'lucida grande', 'lucida sans unicode', verdana, arial, helvetica, sans-serif;font-size:12px;cursor:pointer;color:#274b6d;fill:#274b6d;" y="15" x="21"><tspan x="21">poljsko</tspan></text><rect  height="12" width="16" y="4" x="0" fill="#1aadce" ry="2" rx="2"></rect></g><g transform="translate(488.71666717529297,3)"  class="highcharts-legend-item"><text  text-anchor="start" style="font-family:'lucida grande', 'lucida sans unicode', verdana, arial, helvetica, sans-serif;font-size:12px;cursor:pointer;color:#274b6d;fill:#274b6d;" y="15" x="21"><tspan x="21">ostalo</tspan></text><rect  height="12" width="16" y="4" x="0" fill="#492970" ry="2" rx="2"></rect></g></g></g></g><g  class="highcharts-axis-labels"><text opacity="1" text-anchor="middle" style="font-family:'lucida grande', 'lucida sans unicode', verdana, arial, helvetica, sans-serif;font-size:11px;color:#666;cursor:default;line-height:14px;fill:#666;" y="350" x="117.5"><tspan x="117.5">Ljubljana</tspan></text><text opacity="1" text-anchor="middle" style="font-family:'lucida grande', 'lucida sans unicode', verdana, arial, helvetica, sans-serif;font-size:11px;color:#666;cursor:default;line-height:14px;fill:#666;" y="350" x="222.5"><tspan x="222.5">Maribor</tspan></text><text opacity="1" text-anchor="middle" style="font-family:'lucida grande', 'lucida sans unicode', verdana, arial, helvetica, sans-serif;font-size:11px;color:#666;cursor:default;line-height:14px;fill:#666;" y="350" x="327.5"><tspan x="327.5">Ptuj</tspan></text><text opacity="1" text-anchor="middle" style="font-family:'lucida grande', 'lucida sans unicode', verdana, arial, helvetica, sans-serif;font-size:11px;color:#666;cursor:default;line-height:14px;fill:#666;" y="350" x="432.5"><tspan x="432.5">Celje</tspan></text><text opacity="1" text-anchor="middle" style="font-family:'lucida grande', 'lucida sans unicode', verdana, arial, helvetica, sans-serif;font-size:11px;color:#666;cursor:default;line-height:14px;fill:#666;" y="350" x="537.5"><tspan x="537.5">Kranj</tspan></text></g><g  class="highcharts-axis-labels"><text opacity="1" text-anchor="end" style="font-family:'lucida grande', 'lucida sans unicode', verdana, arial, helvetica, sans-serif;font-size:11px;color:#666;cursor:default;line-height:14px;fill:#666;" y="341.25" x="57"><tspan x="57">0</tspan></text><text opacity="1" text-anchor="end" style="font-family:'lucida grande', 'lucida sans unicode', verdana, arial, helvetica, sans-serif;font-size:11px;color:#666;cursor:default;line-height:14px;fill:#666;" y="45.25" x="57"><tspan x="57">100</tspan></text><text opacity="1" text-anchor="end" style="font-family:'lucida grande', 'lucida sans unicode', verdana, arial, helvetica, sans-serif;font-size:11px;color:#666;cursor:default;line-height:14px;fill:#666;" y="267.25" x="57"><tspan x="57">25</tspan></text><text opacity="1" text-anchor="end" style="font-family:'lucida grande', 'lucida sans unicode', verdana, arial, helvetica, sans-serif;font-size:11px;color:#666;cursor:default;line-height:14px;fill:#666;" y="193.25" x="57"><tspan x="57">50</tspan></text><text opacity="1" text-anchor="end" style="font-family:'lucida grande', 'lucida sans unicode', verdana, arial, helvetica, sans-serif;font-size:11px;color:#666;cursor:default;line-height:14px;fill:#666;" y="119.25" x="57"><tspan x="57">75</tspan></text></g><g transform="translate(0,-999)" style="cursor:default;padding:0;white-space:nowrap;"  class="highcharts-tooltip"><rect transform="translate(1, 1)" stroke-width="5" stroke-opacity="0.049999999999999996" stroke="black"  fill-opacity="0.85" height="16" width="16" y="0.5" x="0.5" fill="none" ry="3" rx="3"></rect><rect transform="translate(1, 1)" stroke-width="3" stroke-opacity="0.09999999999999999" stroke="black"  fill-opacity="0.85" height="16" width="16" y="0.5" x="0.5" fill="none" ry="3" rx="3"></rect><rect transform="translate(1, 1)" stroke-width="1" stroke-opacity="0.15" stroke="black"  fill-opacity="0.85" height="16" width="16" y="0.5" x="0.5" fill="none" ry="3" rx="3"></rect><rect fill-opacity="0.85" height="16" width="16" y="0.5" x="0.5" fill="rgb(255,255,255)" ry="3" rx="3"></rect><text  style="font-family:'lucida grande', 'lucida sans unicode', verdana, arial, helvetica, sans-serif;font-size:12px;color:#333333;fill:#333333;" y="21" x="8"></text></g></svg>