<?xml version="1.0" standalone="no"?><!DOCTYPE svg PUBLIC "-//W3C//DTD SVG 1.1//EN" "http://www.w3.org/Graphics/SVG/1.1/DTD/svg11.dtd"><svg xmlns:xlink="http://www.w3.org/1999/xlink" height="400" width="600" xmlns="http://www.w3.org/2000/svg" version="1.1"><desc>Created with Highcharts 3.0.7</desc><defs><clipPath id="highcharts-5"><rect height="174" width="525" y="0" x="0" fill="none"></rect></clipPath></defs><rect height="400" width="600" y="0" x="0" fill="#FFFFFF" ry="0" rx="0"></rect><g  class="highcharts-grid"></g><g  class="highcharts-grid"><path opacity="1"  stroke-width="1" stroke="#C0C0C0" d="M 65 163.5 L 590 163.5" fill="none"></path><path opacity="1"  stroke-width="1" stroke="#C0C0C0" d="M 65 75.5 L 590 75.5" fill="none"></path><path opacity="1"  stroke-width="1" stroke="#C0C0C0" d="M 65 250.5 L 590 250.5" fill="none"></path></g><g  class="highcharts-axis"><path opacity="1" stroke-width="1" stroke="#C0D0E0" d="M 195.5 250 L 195.5 255" fill="none"></path><path opacity="1" stroke-width="1" stroke="#C0D0E0" d="M 261.5 250 L 261.5 255" fill="none"></path><path opacity="1" stroke-width="1" stroke="#C0D0E0" d="M 327.5 250 L 327.5 255" fill="none"></path><path opacity="1" stroke-width="1" stroke="#C0D0E0" d="M 392.5 250 L 392.5 255" fill="none"></path><path opacity="1" stroke-width="1" stroke="#C0D0E0" d="M 458.5 250 L 458.5 255" fill="none"></path><path opacity="1" stroke-width="1" stroke="#C0D0E0" d="M 523.5 250 L 523.5 255" fill="none"></path><path opacity="1" stroke-width="1" stroke="#C0D0E0" d="M 590.5 250 L 590.5 255" fill="none"></path><path opacity="1" stroke-width="1" stroke="#C0D0E0" d="M 130.5 250 L 130.5 255" fill="none"></path><path stroke-width="1" stroke="#C0D0E0" d="M 64.5 250 L 64.5 255" fill="none"></path><path visibility="visible"  stroke-width="1" stroke="#C0D0E0" d="M 65 250.5 L 590 250.5" fill="none"></path></g><g  class="highcharts-axis"><text visibility="visible" transform="translate(0,0) rotate(270 25.149999618530273 163)" text-anchor="middle"  style="font-family:'lucida grande', 'lucida sans unicode', verdana, arial, helvetica, sans-serif;font-size:12px;color:#4d759e;font-weight:bold;fill:#4d759e;" y="163" x="25.149999618530273"><tspan x="25.149999618530273">Odstotki</tspan></text></g><g  class="highcharts-series-group"><g clip-path="url(#highcharts-5)" style="" transform="translate(65,76) scale(1 1)"  visibility="visible" class="highcharts-series highcharts-tracker"><rect ry="0" rx="0" stroke-width="1" stroke="#FFFFFF" height="106" width="32" y="-0.5" x="16.5" fill="#2f7ed8"></rect><rect ry="0" rx="0" stroke-width="1" stroke="#FFFFFF" height="53" width="32" y="-0.5" x="82.5" fill="#2f7ed8"></rect><rect ry="0" rx="0" stroke-width="1" stroke="#FFFFFF" height="153" width="32" y="-0.5" x="147.5" fill="#2f7ed8"></rect><rect ry="0" rx="0" stroke-width="1" stroke="#FFFFFF" height="89" width="32" y="-0.5" x="213.5" fill="#2f7ed8"></rect><rect ry="0" rx="0" stroke-width="1" stroke="#FFFFFF" height="3" width="32" y="-0.5" x="279.5" fill="#2f7ed8"></rect><rect ry="0" rx="0" stroke-width="1" stroke="#FFFFFF" height="3" width="32" y="-0.5" x="344.5" fill="#2f7ed8"></rect><rect ry="0" rx="0" stroke-width="1" stroke="#FFFFFF" height="1" width="32" y="-0.5" x="410.5" fill="#2f7ed8"></rect><rect ry="0" rx="0" stroke-width="1" stroke="#FFFFFF" height="1" width="32" y="-0.5" x="475.5" fill="#2f7ed8"></rect></g><g clip-path="none" transform="translate(65,76) scale(1 1)"  visibility="visible" class="highcharts-markers"></g><g clip-path="url(#highcharts-5)" style="" transform="translate(65,76) scale(1 1)"  visibility="visible" class="highcharts-series highcharts-tracker"><rect ry="0" rx="0" stroke-width="1" stroke="#FFFFFF" height="38" width="32" y="105.5" x="16.5" fill="#0d233a"></rect><rect ry="0" rx="0" stroke-width="1" stroke="#FFFFFF" height="86" width="32" y="52.5" x="82.5" fill="#0d233a"></rect><rect ry="0" rx="0" stroke-width="1" stroke="#FFFFFF" height="12" width="32" y="152.5" x="147.5" fill="#0d233a"></rect><rect ry="0" rx="0" stroke-width="1" stroke="#FFFFFF" height="38" width="32" y="88.5" x="213.5" fill="#0d233a"></rect><rect ry="0" rx="0" stroke-width="1" stroke="#FFFFFF" height="20" width="32" y="2.5" x="279.5" fill="#0d233a"></rect><rect ry="0" rx="0" stroke-width="1" stroke="#FFFFFF" height="23" width="32" y="2.5" x="344.5" fill="#0d233a"></rect><rect ry="0" rx="0" stroke-width="1" stroke="#FFFFFF" height="54" width="32" y="-0.5" x="410.5" fill="#0d233a"></rect><rect ry="0" rx="0" stroke-width="1" stroke="#FFFFFF" height="57" width="32" y="-0.5" x="475.5" fill="#0d233a"></rect></g><g clip-path="none" transform="translate(65,76) scale(1 1)"  visibility="visible" class="highcharts-markers"></g><g clip-path="url(#highcharts-5)" style="" transform="translate(65,76) scale(1 1)"  visibility="visible" class="highcharts-series highcharts-tracker"><rect ry="0" rx="0" stroke-width="1" stroke="#FFFFFF" height="12" width="32" y="143.5" x="16.5" fill="#8bbc21"></rect><rect ry="0" rx="0" stroke-width="1" stroke="#FFFFFF" height="11" width="32" y="138.5" x="82.5" fill="#8bbc21"></rect><rect ry="0" rx="0" stroke-width="1" stroke="#FFFFFF" height="3" width="32" y="164.5" x="147.5" fill="#8bbc21"></rect><rect ry="0" rx="0" stroke-width="1" stroke="#FFFFFF" height="10" width="32" y="126.5" x="213.5" fill="#8bbc21"></rect><rect ry="0" rx="0" stroke-width="1" stroke="#FFFFFF" height="105" width="32" y="22.5" x="279.5" fill="#8bbc21"></rect><rect ry="0" rx="0" stroke-width="1" stroke="#FFFFFF" height="106" width="32" y="25.5" x="344.5" fill="#8bbc21"></rect><rect ry="0" rx="0" stroke-width="1" stroke="#FFFFFF" height="71" width="32" y="53.5" x="410.5" fill="#8bbc21"></rect><rect ry="0" rx="0" stroke-width="1" stroke="#FFFFFF" height="76" width="32" y="56.5" x="475.5" fill="#8bbc21"></rect></g><g clip-path="none" transform="translate(65,76) scale(1 1)"  visibility="visible" class="highcharts-markers"></g><g clip-path="url(#highcharts-5)" style="" transform="translate(65,76) scale(1 1)"  visibility="visible" class="highcharts-series highcharts-tracker"><rect ry="0" rx="0" stroke-width="1" stroke="#FFFFFF" height="8" width="32" y="155.5" x="16.5" fill="#910000"></rect><rect ry="0" rx="0" stroke-width="1" stroke="#FFFFFF" height="12" width="32" y="149.5" x="82.5" fill="#910000"></rect><rect ry="0" rx="0" stroke-width="1" stroke="#FFFFFF" height="4" width="32" y="167.5" x="147.5" fill="#910000"></rect><rect ry="0" rx="0" stroke-width="1" stroke="#FFFFFF" height="25" width="32" y="136.5" x="213.5" fill="#910000"></rect><rect ry="0" rx="0" stroke-width="1" stroke="#FFFFFF" height="14" width="32" y="127.5" x="279.5" fill="#910000"></rect><rect ry="0" rx="0" stroke-width="1" stroke="#FFFFFF" height="13" width="32" y="131.5" x="344.5" fill="#910000"></rect><rect ry="0" rx="0" stroke-width="1" stroke="#FFFFFF" height="19" width="32" y="124.5" x="410.5" fill="#910000"></rect><rect ry="0" rx="0" stroke-width="1" stroke="#FFFFFF" height="18" width="32" y="132.5" x="475.5" fill="#910000"></rect></g><g clip-path="none" transform="translate(65,76) scale(1 1)"  visibility="visible" class="highcharts-markers"></g><g clip-path="url(#highcharts-5)" style="" transform="translate(65,76) scale(1 1)"  visibility="visible" class="highcharts-series highcharts-tracker"><rect ry="0" rx="0" stroke-width="1" stroke="#FFFFFF" height="11" width="32" y="163.5" x="16.5" fill="#1aadce"></rect><rect ry="0" rx="0" stroke-width="1" stroke="#FFFFFF" height="13" width="32" y="161.5" x="82.5" fill="#1aadce"></rect><rect ry="0" rx="0" stroke-width="1" stroke="#FFFFFF" height="3" width="32" y="171.5" x="147.5" fill="#1aadce"></rect><rect ry="0" rx="0" stroke-width="1" stroke="#FFFFFF" height="13" width="32" y="161.5" x="213.5" fill="#1aadce"></rect><rect ry="0" rx="0" stroke-width="1" stroke="#FFFFFF" height="33" width="32" y="141.5" x="279.5" fill="#1aadce"></rect><rect ry="0" rx="0" stroke-width="1" stroke="#FFFFFF" height="30" width="32" y="144.5" x="344.5" fill="#1aadce"></rect><rect ry="0" rx="0" stroke-width="1" stroke="#FFFFFF" height="31" width="32" y="143.5" x="410.5" fill="#1aadce"></rect><rect ry="0" rx="0" stroke-width="1" stroke="#FFFFFF" height="24" width="32" y="150.5" x="475.5" fill="#1aadce"></rect></g><g clip-path="none" transform="translate(65,76) scale(1 1)"  visibility="visible" class="highcharts-markers"></g></g><text  class="highcharts-title" text-anchor="middle" style="font-family:'lucida grande', 'lucida sans unicode', verdana, arial, helvetica, sans-serif;font-size:16px;color:#274b6d;fill:#274b6d;" y="25" x="300"><tspan x="300">Poklicna struktura prebivalstva jugoslovanske Slovenije iz leta 1931,</tspan><tspan x="300" dy="16">Judovskega prebivalstva iz leta 1937 ter judovskih in slovenskih</tspan><tspan x="300" dy="16">žrtev druge svetovne vojne</tspan></text><g transform="translate(57,329)"  class="highcharts-legend"><rect visibility="visible" stroke-width="1" stroke="#909090" height="55" width="484" y="0.5" x="0.5" fill="none" ry="5" rx="5"></rect><g ><g><g transform="translate(8,3)"  class="highcharts-legend-item"><text  text-anchor="start" style="font-family:'lucida grande', 'lucida sans unicode', verdana, arial, helvetica, sans-serif;font-size:12px;cursor:pointer;color:#274b6d;fill:#274b6d;" y="15" x="21"><tspan x="21">A - kmetijstvo in gozdarstvo</tspan></text><rect  height="12" width="16" y="4" x="0" fill="#2f7ed8" ry="2" rx="2"></rect></g><g transform="translate(204.88333129882812,3)"  class="highcharts-legend-item"><text  text-anchor="start" style="font-family:'lucida grande', 'lucida sans unicode', verdana, arial, helvetica, sans-serif;font-size:12px;cursor:pointer;color:#274b6d;fill:#274b6d;" y="15" x="21"><tspan x="21">B - obrt in industrija</tspan></text><rect  height="12" width="16" y="4" x="0" fill="#0d233a" ry="2" rx="2"></rect></g><g transform="translate(8,18)"  class="highcharts-legend-item"><text  text-anchor="start" style="font-family:'lucida grande', 'lucida sans unicode', verdana, arial, helvetica, sans-serif;font-size:12px;cursor:pointer;color:#274b6d;fill:#274b6d;" y="15" x="21"><tspan x="21">C - trgovina, denarništvo in promet</tspan></text><rect  height="12" width="16" y="4" x="0" fill="#8bbc21" ry="2" rx="2"></rect></g><g transform="translate(245.28334045410156,18)"  class="highcharts-legend-item"><text  text-anchor="start" style="font-family:'lucida grande', 'lucida sans unicode', verdana, arial, helvetica, sans-serif;font-size:12px;cursor:pointer;color:#274b6d;fill:#274b6d;" y="15" x="21"><tspan x="21">D - javne službe in svobodni poklici</tspan></text><rect  height="12" width="16" y="4" x="0" fill="#910000" ry="2" rx="2"></rect></g><g transform="translate(8,33)"  class="highcharts-legend-item"><text  text-anchor="start" style="font-family:'lucida grande', 'lucida sans unicode', verdana, arial, helvetica, sans-serif;font-size:12px;cursor:pointer;color:#274b6d;fill:#274b6d;" y="15" x="21"><tspan x="21">E - drugi poklici, brez poklica, brez oznake poklica</tspan></text><rect  height="12" width="16" y="4" x="0" fill="#1aadce" ry="2" rx="2"></rect></g></g></g></g><g  class="highcharts-axis-labels"><text opacity="1" text-anchor="middle" style="font-family:'lucida grande', 'lucida sans unicode', verdana, arial, helvetica, sans-serif;font-size:11px;color:#666;cursor:default;line-height:14px;fill:#666;" y="264" x="97.8125"><tspan x="97.8125">Slovenija</tspan><tspan x="97.8125" dy="14">(vsi</tspan><tspan x="97.8125" dy="14">1931)</tspan></text><text opacity="1" text-anchor="middle" style="font-family:'lucida grande', 'lucida sans unicode', verdana, arial, helvetica, sans-serif;font-size:11px;color:#666;cursor:default;line-height:14px;fill:#666;" y="264" x="163.4375"><tspan x="163.4375">Slovenija</tspan><tspan x="163.4375" dy="14">(žrtve)</tspan></text><text opacity="1" text-anchor="middle" style="font-family:'lucida grande', 'lucida sans unicode', verdana, arial, helvetica, sans-serif;font-size:11px;color:#666;cursor:default;line-height:14px;fill:#666;" y="264" x="229.0625"><tspan x="229.0625">Prekmurje</tspan><tspan x="229.0625" dy="14">(vsi 1931)</tspan></text><text opacity="1" text-anchor="middle" style="font-family:'lucida grande', 'lucida sans unicode', verdana, arial, helvetica, sans-serif;font-size:11px;color:#666;cursor:default;line-height:14px;fill:#666;" y="264" x="294.6875"><tspan x="294.6875">Prekmurje</tspan><tspan x="294.6875" dy="14">(vse</tspan><tspan x="294.6875" dy="14">žrtve)</tspan></text><text opacity="1" text-anchor="middle" style="font-family:'lucida grande', 'lucida sans unicode', verdana, arial, helvetica, sans-serif;font-size:11px;color:#666;cursor:default;line-height:14px;fill:#666;" y="264" x="360.3125"><tspan x="360.3125">Prekmurje</tspan><tspan x="360.3125" dy="14">(Judje</tspan><tspan x="360.3125" dy="14">1937)</tspan></text><text opacity="1" text-anchor="middle" style="font-family:'lucida grande', 'lucida sans unicode', verdana, arial, helvetica, sans-serif;font-size:11px;color:#666;cursor:default;line-height:14px;fill:#666;" y="264" x="425.9375"><tspan x="425.9375">Prekmurje</tspan><tspan x="425.9375" dy="14">(judovske</tspan><tspan x="425.9375" dy="14">žrtve)</tspan></text><text opacity="1" text-anchor="middle" style="font-family:'lucida grande', 'lucida sans unicode', verdana, arial, helvetica, sans-serif;font-size:11px;color:#666;cursor:default;line-height:14px;fill:#666;" y="264" x="491.5625"><tspan x="491.5625">Slovenija</tspan><tspan x="491.5625" dy="14">brez</tspan><tspan x="491.5625" dy="14">Prekmurja</tspan><tspan x="491.5625" dy="14">(Judje</tspan><tspan x="491.5625" dy="14">1937)</tspan></text><text opacity="1" text-anchor="middle" style="font-family:'lucida grande', 'lucida sans unicode', verdana, arial, helvetica, sans-serif;font-size:11px;color:#666;cursor:default;line-height:14px;fill:#666;" y="264" x="557.1875"><tspan x="557.1875">Slovenija</tspan><tspan x="557.1875" dy="14">brez</tspan><tspan x="557.1875" dy="14">Prekmurja</tspan><tspan x="557.1875" dy="14">(judovske</tspan><tspan x="557.1875" dy="14">žrtve)</tspan></text></g><g  class="highcharts-axis-labels"><text opacity="1" text-anchor="end" style="font-family:'lucida grande', 'lucida sans unicode', verdana, arial, helvetica, sans-serif;font-size:11px;color:#666;cursor:default;line-height:14px;fill:#666;" y="255.25" x="57"><tspan x="57">0</tspan></text><text opacity="1" text-anchor="end" style="font-family:'lucida grande', 'lucida sans unicode', verdana, arial, helvetica, sans-serif;font-size:11px;color:#666;cursor:default;line-height:14px;fill:#666;" y="81.25" x="57"><tspan x="57">100</tspan></text><text opacity="1" text-anchor="end" style="font-family:'lucida grande', 'lucida sans unicode', verdana, arial, helvetica, sans-serif;font-size:11px;color:#666;cursor:default;line-height:14px;fill:#666;" y="168.25" x="57"><tspan x="57">50</tspan></text></g><g transform="translate(0,-999)" style="cursor:default;padding:0;white-space:nowrap;"  class="highcharts-tooltip"><rect transform="translate(1, 1)" stroke-width="5" stroke-opacity="0.049999999999999996" stroke="black"  fill-opacity="0.85" height="16" width="16" y="0.5" x="0.5" fill="none" ry="3" rx="3"></rect><rect transform="translate(1, 1)" stroke-width="3" stroke-opacity="0.09999999999999999" stroke="black"  fill-opacity="0.85" height="16" width="16" y="0.5" x="0.5" fill="none" ry="3" rx="3"></rect><rect transform="translate(1, 1)" stroke-width="1" stroke-opacity="0.15" stroke="black"  fill-opacity="0.85" height="16" width="16" y="0.5" x="0.5" fill="none" ry="3" rx="3"></rect><rect fill-opacity="0.85" height="16" width="16" y="0.5" x="0.5" fill="rgb(255,255,255)" ry="3" rx="3"></rect><text  style="font-family:'lucida grande', 'lucida sans unicode', verdana, arial, helvetica, sans-serif;font-size:12px;color:#333333;fill:#333333;" y="21" x="8"></text></g></svg>