<?xml version="1.0" standalone="no"?><!DOCTYPE svg PUBLIC "-//W3C//DTD SVG 1.1//EN" "http://www.w3.org/Graphics/SVG/1.1/DTD/svg11.dtd"><svg xmlns:xlink="http://www.w3.org/1999/xlink" height="400" width="600" xmlns="http://www.w3.org/2000/svg" version="1.1"><desc>Created with Highcharts 3.0.7</desc><defs><clipPath id="highcharts-7"><rect height="231" width="515" y="0" x="0" fill="none"></rect></clipPath></defs><rect height="400" width="600" y="0" x="0" fill="#FFFFFF" ry="0" rx="0"></rect><path stroke-width="1" stroke="#808080" d="M 75 269.5 L 590 269.5" fill="none"></path><g  class="highcharts-grid"></g><g  class="highcharts-grid"><path opacity="1"  stroke-width="1" stroke="#C0C0C0" d="M 75 269.5 L 590 269.5" fill="none"></path><path opacity="1"  stroke-width="1" stroke="#C0C0C0" d="M 75 230.5 L 590 230.5" fill="none"></path><path opacity="1"  stroke-width="1" stroke="#C0C0C0" d="M 75 192.5 L 590 192.5" fill="none"></path><path opacity="1"  stroke-width="1" stroke="#C0C0C0" d="M 75 153.5 L 590 153.5" fill="none"></path><path opacity="1"  stroke-width="1" stroke="#C0C0C0" d="M 75 115.5 L 590 115.5" fill="none"></path><path opacity="1"  stroke-width="1" stroke="#C0C0C0" d="M 75 75.5 L 590 75.5" fill="none"></path><path opacity="1"  stroke-width="1" stroke="#C0C0C0" d="M 75 307.5 L 590 307.5" fill="none"></path></g><g  class="highcharts-axis"><path opacity="1" stroke-width="1" stroke="#C0D0E0" d="M 126.5 307 L 126.5 312" fill="none"></path><path opacity="1" stroke-width="1" stroke="#C0D0E0" d="M 151.5 307 L 151.5 312" fill="none"></path><path opacity="1" stroke-width="1" stroke="#C0D0E0" d="M 177.5 307 L 177.5 312" fill="none"></path><path opacity="1" stroke-width="1" stroke="#C0D0E0" d="M 203.5 307 L 203.5 312" fill="none"></path><path opacity="1" stroke-width="1" stroke="#C0D0E0" d="M 229.5 307 L 229.5 312" fill="none"></path><path opacity="1" stroke-width="1" stroke="#C0D0E0" d="M 254.5 307 L 254.5 312" fill="none"></path><path opacity="1" stroke-width="1" stroke="#C0D0E0" d="M 280.5 307 L 280.5 312" fill="none"></path><path opacity="1" stroke-width="1" stroke="#C0D0E0" d="M 306.5 307 L 306.5 312" fill="none"></path><path opacity="1" stroke-width="1" stroke="#C0D0E0" d="M 332.5 307 L 332.5 312" fill="none"></path><path opacity="1" stroke-width="1" stroke="#C0D0E0" d="M 357.5 307 L 357.5 312" fill="none"></path><path opacity="1" stroke-width="1" stroke="#C0D0E0" d="M 383.5 307 L 383.5 312" fill="none"></path><path opacity="1" stroke-width="1" stroke="#C0D0E0" d="M 409.5 307 L 409.5 312" fill="none"></path><path opacity="1" stroke-width="1" stroke="#C0D0E0" d="M 435.5 307 L 435.5 312" fill="none"></path><path opacity="1" stroke-width="1" stroke="#C0D0E0" d="M 460.5 307 L 460.5 312" fill="none"></path><path opacity="1" stroke-width="1" stroke="#C0D0E0" d="M 486.5 307 L 486.5 312" fill="none"></path><path opacity="1" stroke-width="1" stroke="#C0D0E0" d="M 512.5 307 L 512.5 312" fill="none"></path><path opacity="1" stroke-width="1" stroke="#C0D0E0" d="M 538.5 307 L 538.5 312" fill="none"></path><path opacity="1" stroke-width="1" stroke="#C0D0E0" d="M 563.5 307 L 563.5 312" fill="none"></path><path opacity="1" stroke-width="1" stroke="#C0D0E0" d="M 590.5 307 L 590.5 312" fill="none"></path><path opacity="1" stroke-width="1" stroke="#C0D0E0" d="M 100.5 307 L 100.5 312" fill="none"></path><path stroke-width="1" stroke="#C0D0E0" d="M 74.5 307 L 74.5 312" fill="none"></path><path visibility="visible"  stroke-width="1" stroke="#C0D0E0" d="M 75 307.5 L 590 307.5" fill="none"></path></g><g  class="highcharts-axis"><text visibility="visible" transform="translate(0,0) rotate(270 24.733333587646484 191.5)" text-anchor="middle"  style="font-family:'lucida grande', 'lucida sans unicode', verdana, arial, helvetica, sans-serif;font-size:12px;color:#4d759e;font-weight:bold;fill:#4d759e;" y="191.5" x="24.733333587646484"><tspan x="24.733333587646484">Število Judov</tspan></text></g><g  class="highcharts-series-group"><g clip-path="url(#highcharts-7)" transform="translate(75,76) scale(1 1)"  visibility="visible" class="highcharts-series"><path stroke-linecap="round" stroke-linejoin="round"  stroke-width="2" stroke="#2f7ed8" d="M 12.875 190.344 L 38.625 183.26 L 64.375 180.796 L 90.125 160.006 L 115.875 143.066 L 141.625 121.81400000000001 L 167.375 84.69999999999999 L 193.125 25.872000000000014 L 218.875 34.34200000000001 L 244.625 50.97399999999999 L 270.375 42.196 L 296.125 96.404 L 321.875 119.196 L 347.625 128.28199999999998 L 373.375 127.82000000000001 L 399.125 125.048 L 424.875 123.2 L 450.625 119.196 L 476.375 190.498 L 502.125 180.18" fill="none"></path><path style="" class=" highcharts-tracker"  stroke-width="22" stroke="rgb(192,192,192)" stroke-opacity="0.0001" visibility="visible" stroke-linejoin="round" d="M 2.875 190.344 L 12.875 190.344 L 38.625 183.26 L 64.375 180.796 L 90.125 160.006 L 115.875 143.066 L 141.625 121.81400000000001 L 167.375 84.69999999999999 L 193.125 25.872000000000014 L 218.875 34.34200000000001 L 244.625 50.97399999999999 L 270.375 42.196 L 296.125 96.404 L 321.875 119.196 L 347.625 128.28199999999998 L 373.375 127.82000000000001 L 399.125 125.048 L 424.875 123.2 L 450.625 119.196 L 476.375 190.498 L 502.125 180.18 L 512.125 180.18" fill="none"></path></g><g clip-path="none" style="" transform="translate(75,76) scale(1 1)"  visibility="visible" class="highcharts-markers highcharts-tracker"><path d="M 502 176.18 C 507.328 176.18 507.328 184.18 502 184.18 C 496.672 184.18 496.672 176.18 502 176.18 Z" fill="#2f7ed8"></path><path d="M 476 186.498 C 481.328 186.498 481.328 194.498 476 194.498 C 470.672 194.498 470.672 186.498 476 186.498 Z" fill="#2f7ed8"></path><path d="M 450 115.196 C 455.328 115.196 455.328 123.196 450 123.196 C 444.672 123.196 444.672 115.196 450 115.196 Z" fill="#2f7ed8"></path><path d="M 424 119.2 C 429.328 119.2 429.328 127.2 424 127.2 C 418.672 127.2 418.672 119.2 424 119.2 Z" fill="#2f7ed8"></path><path d="M 399 121.048 C 404.328 121.048 404.328 129.048 399 129.048 C 393.672 129.048 393.672 121.048 399 121.048 Z" fill="#2f7ed8"></path><path d="M 373 123.82000000000001 C 378.328 123.82000000000001 378.328 131.82 373 131.82 C 367.672 131.82 367.672 123.82000000000001 373 123.82000000000001 Z" fill="#2f7ed8"></path><path d="M 347 124.28199999999998 C 352.328 124.28199999999998 352.328 132.28199999999998 347 132.28199999999998 C 341.672 132.28199999999998 341.672 124.28199999999998 347 124.28199999999998 Z" fill="#2f7ed8"></path><path d="M 321 115.196 C 326.328 115.196 326.328 123.196 321 123.196 C 315.672 123.196 315.672 115.196 321 115.196 Z" fill="#2f7ed8"></path><path d="M 296 92.404 C 301.328 92.404 301.328 100.404 296 100.404 C 290.672 100.404 290.672 92.404 296 92.404 Z" fill="#2f7ed8"></path><path d="M 270 38.196 C 275.328 38.196 275.328 46.196 270 46.196 C 264.672 46.196 264.672 38.196 270 38.196 Z" fill="#2f7ed8"></path><path d="M 244 46.97399999999999 C 249.328 46.97399999999999 249.328 54.97399999999999 244 54.97399999999999 C 238.672 54.97399999999999 238.672 46.97399999999999 244 46.97399999999999 Z" fill="#2f7ed8"></path><path d="M 218 30.342000000000013 C 223.328 30.342000000000013 223.328 38.34200000000001 218 38.34200000000001 C 212.672 38.34200000000001 212.672 30.342000000000013 218 30.342000000000013 Z" fill="#2f7ed8"></path><path d="M 193 21.872000000000014 C 198.328 21.872000000000014 198.328 29.872000000000014 193 29.872000000000014 C 187.672 29.872000000000014 187.672 21.872000000000014 193 21.872000000000014 Z" fill="#2f7ed8"></path><path d="M 167 80.69999999999999 C 172.328 80.69999999999999 172.328 88.69999999999999 167 88.69999999999999 C 161.672 88.69999999999999 161.672 80.69999999999999 167 80.69999999999999 Z" fill="#2f7ed8"></path><path d="M 141 117.81400000000001 C 146.328 117.81400000000001 146.328 125.81400000000001 141 125.81400000000001 C 135.672 125.81400000000001 135.672 117.81400000000001 141 117.81400000000001 Z" fill="#2f7ed8"></path><path d="M 115 139.066 C 120.328 139.066 120.328 147.066 115 147.066 C 109.672 147.066 109.672 139.066 115 139.066 Z" fill="#2f7ed8"></path><path d="M 90 156.006 C 95.328 156.006 95.328 164.006 90 164.006 C 84.672 164.006 84.672 156.006 90 156.006 Z" fill="#2f7ed8"></path><path d="M 64 176.796 C 69.328 176.796 69.328 184.796 64 184.796 C 58.672 184.796 58.672 176.796 64 176.796 Z" fill="#2f7ed8"></path><path d="M 38 179.26 C 43.328 179.26 43.328 187.26 38 187.26 C 32.672 187.26 32.672 179.26 38 179.26 Z" fill="#2f7ed8"></path><path d="M 12 186.344 C 17.328 186.344 17.328 194.344 12 194.344 C 6.672 194.344 6.672 186.344 12 186.344 Z" fill="#2f7ed8"></path></g><g clip-path="url(#highcharts-7)" transform="translate(75,76) scale(1 1)"  visibility="visible" class="highcharts-series"><path stroke-linecap="round" stroke-linejoin="round"  stroke-width="2" stroke="#0d233a" d="M 12.875 192.5 L 38.625 192.5 L 64.375 192.5 L 90.125 192.5 L 115.875 192.5 L 141.625 192.5 L 167.375 189.42000000000002 L 193.125 180.334 L 218.875 179.102 L 244.625 172.326 L 270.375 172.172 L 296.125 177.716 L 321.875 174.79 L 347.625 170.17000000000002 L 373.375 167.09 L 399.125 107.8 L 424.875 184.8 L 450.625 187.572 L 476.375 192.5 L 502.125 184.8" fill="none"></path><path style="" class=" highcharts-tracker"  stroke-width="22" stroke="rgb(192,192,192)" stroke-opacity="0.0001" visibility="visible" stroke-linejoin="round" d="M 2.875 192.5 L 12.875 192.5 L 38.625 192.5 L 64.375 192.5 L 90.125 192.5 L 115.875 192.5 L 141.625 192.5 L 167.375 189.42000000000002 L 193.125 180.334 L 218.875 179.102 L 244.625 172.326 L 270.375 172.172 L 296.125 177.716 L 321.875 174.79 L 347.625 170.17000000000002 L 373.375 167.09 L 399.125 107.8 L 424.875 184.8 L 450.625 187.572 L 476.375 192.5 L 502.125 184.8 L 512.125 184.8" fill="none"></path></g><g clip-path="none" style="" transform="translate(75,76) scale(1 1)"  visibility="visible" class="highcharts-markers highcharts-tracker"><path d="M 502 180.8 L 506 184.8 502 188.8 498 184.8 Z" fill="#0d233a"></path><path d="M 476 188.5 L 480 192.5 476 196.5 472 192.5 Z" fill="#0d233a"></path><path d="M 450 183.572 L 454 187.572 450 191.572 446 187.572 Z" fill="#0d233a"></path><path d="M 424 180.8 L 428 184.8 424 188.8 420 184.8 Z" fill="#0d233a"></path><path d="M 399 103.8 L 403 107.8 399 111.8 395 107.8 Z" fill="#0d233a"></path><path d="M 373 163.09 L 377 167.09 373 171.09 369 167.09 Z" fill="#0d233a"></path><path d="M 347 166.17000000000002 L 351 170.17000000000002 347 174.17000000000002 343 170.17000000000002 Z" fill="#0d233a"></path><path d="M 321 170.79 L 325 174.79 321 178.79 317 174.79 Z" fill="#0d233a"></path><path d="M 296 173.716 L 300 177.716 296 181.716 292 177.716 Z" fill="#0d233a"></path><path d="M 270 168.172 L 274 172.172 270 176.172 266 172.172 Z" fill="#0d233a"></path><path d="M 244 168.326 L 248 172.326 244 176.326 240 172.326 Z" fill="#0d233a"></path><path d="M 218 175.102 L 222 179.102 218 183.102 214 179.102 Z" fill="#0d233a"></path><path d="M 193 176.334 L 197 180.334 193 184.334 189 180.334 Z" fill="#0d233a"></path><path d="M 167 185.42000000000002 L 171 189.42000000000002 167 193.42000000000002 163 189.42000000000002 Z" fill="#0d233a"></path><path d="M 141 188.5 L 145 192.5 141 196.5 137 192.5 Z" fill="#0d233a"></path><path d="M 115 188.5 L 119 192.5 115 196.5 111 192.5 Z" fill="#0d233a"></path><path d="M 90 188.5 L 94 192.5 90 196.5 86 192.5 Z" fill="#0d233a"></path><path d="M 64 188.5 L 68 192.5 64 196.5 60 192.5 Z" fill="#0d233a"></path><path d="M 38 188.5 L 42 192.5 38 196.5 34 192.5 Z" fill="#0d233a"></path><path d="M 12 188.5 L 16 192.5 12 196.5 8 192.5 Z" fill="#0d233a"></path></g><g clip-path="url(#highcharts-7)" transform="translate(75,76) scale(1 1)"  visibility="visible" class="highcharts-series"><path stroke-linecap="round" stroke-linejoin="round"  stroke-width="2" stroke="#8bbc21" d="M 12.875 192.5 L 38.625 192.5 L 64.375 192.5 L 90.125 192.5 L 115.875 192.5 L 141.625 191.576 L 167.375 182.028 L 193.125 167.86 L 218.875 162.624 L 244.625 163.086 L 270.375 161.392 L 296.125 159.236 L 321.875 157.23399999999998 L 347.625 159.236 L 373.375 152.46 L 399.125 184.8 L 424.875 192.192 L 450.625 192.192 L 476.375 192.192 L 502.125 181.72" fill="none"></path><path style="" class=" highcharts-tracker"  stroke-width="22" stroke="rgb(192,192,192)" stroke-opacity="0.0001" visibility="visible" stroke-linejoin="round" d="M 2.875 192.5 L 12.875 192.5 L 38.625 192.5 L 64.375 192.5 L 90.125 192.5 L 115.875 192.5 L 141.625 191.576 L 167.375 182.028 L 193.125 167.86 L 218.875 162.624 L 244.625 163.086 L 270.375 161.392 L 296.125 159.236 L 321.875 157.23399999999998 L 347.625 159.236 L 373.375 152.46 L 399.125 184.8 L 424.875 192.192 L 450.625 192.192 L 476.375 192.192 L 502.125 181.72 L 512.125 181.72" fill="none"></path></g><g clip-path="none" style="" transform="translate(75,76) scale(1 1)"  visibility="visible" class="highcharts-markers highcharts-tracker"><path d="M 498 177.72 L 506 177.72 506 185.72 498 185.72 Z" fill="#8bbc21"></path><path d="M 472 188.192 L 480 188.192 480 196.192 472 196.192 Z" fill="#8bbc21"></path><path d="M 446 188.192 L 454 188.192 454 196.192 446 196.192 Z" fill="#8bbc21"></path><path d="M 420 188.192 L 428 188.192 428 196.192 420 196.192 Z" fill="#8bbc21"></path><path d="M 395 180.8 L 403 180.8 403 188.8 395 188.8 Z" fill="#8bbc21"></path><path d="M 369 148.46 L 377 148.46 377 156.46 369 156.46 Z" fill="#8bbc21"></path><path d="M 343 155.236 L 351 155.236 351 163.236 343 163.236 Z" fill="#8bbc21"></path><path d="M 317 153.23399999999998 L 325 153.23399999999998 325 161.23399999999998 317 161.23399999999998 Z" fill="#8bbc21"></path><path d="M 292 155.236 L 300 155.236 300 163.236 292 163.236 Z" fill="#8bbc21"></path><path d="M 266 157.392 L 274 157.392 274 165.392 266 165.392 Z" fill="#8bbc21"></path><path d="M 240 159.086 L 248 159.086 248 167.086 240 167.086 Z" fill="#8bbc21"></path><path d="M 214 158.624 L 222 158.624 222 166.624 214 166.624 Z" fill="#8bbc21"></path><path d="M 189 163.86 L 197 163.86 197 171.86 189 171.86 Z" fill="#8bbc21"></path><path d="M 163 178.028 L 171 178.028 171 186.028 163 186.028 Z" fill="#8bbc21"></path><path d="M 137 187.576 L 145 187.576 145 195.576 137 195.576 Z" fill="#8bbc21"></path><path d="M 111 188.5 L 119 188.5 119 196.5 111 196.5 Z" fill="#8bbc21"></path><path d="M 86 188.5 L 94 188.5 94 196.5 86 196.5 Z" fill="#8bbc21"></path><path d="M 60 188.5 L 68 188.5 68 196.5 60 196.5 Z" fill="#8bbc21"></path><path d="M 34 188.5 L 42 188.5 42 196.5 34 196.5 Z" fill="#8bbc21"></path><path d="M 8 188.5 L 16 188.5 16 196.5 8 196.5 Z" fill="#8bbc21"></path></g></g><text  class="highcharts-title" text-anchor="middle" style="font-family:'lucida grande', 'lucida sans unicode', verdana, arial, helvetica, sans-serif;font-size:16px;color:#274b6d;fill:#274b6d;" y="25" x="300"><tspan x="300">Gibanje števila judovskega prebivalstva od njihove naselitve do</tspan><tspan x="300" dy="16">holokavsta z ozirom na posamezna okupirana ozemlja Slovenije</tspan><tspan x="300" dy="16">med drugo svetovno vojno</tspan></text><g transform="translate(77,344)"  class="highcharts-legend"><rect visibility="visible" stroke-width="1" stroke="#909090" height="40" width="445" y="0.5" x="0.5" fill="none" ry="5" rx="5"></rect><g ><g><g transform="translate(8,3)"  class="highcharts-legend-item"><path stroke-width="2" stroke="#2f7ed8" d="M 0 11 L 16 11" fill="none"></path><path d="M 8 7 C 13.328 7 13.328 15 8 15 C 2.6719999999999997 15 2.6719999999999997 7 8 7 Z" fill="#2f7ed8"></path><text  text-anchor="start" style="font-family:'lucida grande', 'lucida sans unicode', verdana, arial, helvetica, sans-serif;font-size:12px;cursor:pointer;color:#274b6d;fill:#274b6d;" y="15" x="21"><tspan x="21">madžarsko okupacijsko območje</tspan></text></g><g transform="translate(229.48333740234375,3)"  class="highcharts-legend-item"><path stroke-width="2" stroke="#0d233a" d="M 0 11 L 16 11" fill="none"></path><path d="M 8 7 L 12 11 8 15 4 11 Z" fill="#0d233a"></path><text  text-anchor="start" style="font-family:'lucida grande', 'lucida sans unicode', verdana, arial, helvetica, sans-serif;font-size:12px;cursor:pointer;color:#274b6d;fill:#274b6d;" y="15" x="21"><tspan x="21">italijansko okupacijsko območje</tspan></text></g><g transform="translate(8,18)"  class="highcharts-legend-item"><path stroke-width="2" stroke="#8bbc21" d="M 0 11 L 16 11" fill="none"></path><path d="M 4 7 L 12 7 12 15 4 15 Z" fill="#8bbc21"></path><text  text-anchor="start" style="font-family:'lucida grande', 'lucida sans unicode', verdana, arial, helvetica, sans-serif;font-size:12px;cursor:pointer;color:#274b6d;fill:#274b6d;" y="15" x="21"><tspan x="21">nemško okupacijsko območje</tspan></text></g></g></g></g><g  class="highcharts-axis-labels"><text opacity="1" text-anchor="middle" style="font-family:'lucida grande', 'lucida sans unicode', verdana, arial, helvetica, sans-serif;font-size:11px;color:#666;cursor:default;line-height:14px;fill:#666;" y="321" x="87.875"><tspan x="87.875">1778</tspan></text><text opacity="1" text-anchor="middle" style="font-family:'lucida grande', 'lucida sans unicode', verdana, arial, helvetica, sans-serif;font-size:11px;color:#666;cursor:default;line-height:14px;fill:#666;" y="334.5" x="113.625"><tspan x="113.625">1793</tspan></text><text opacity="1" text-anchor="middle" style="font-family:'lucida grande', 'lucida sans unicode', verdana, arial, helvetica, sans-serif;font-size:11px;color:#666;cursor:default;line-height:14px;fill:#666;" y="321" x="139.375"><tspan x="139.375">1812</tspan></text><text opacity="1" text-anchor="middle" style="font-family:'lucida grande', 'lucida sans unicode', verdana, arial, helvetica, sans-serif;font-size:11px;color:#666;cursor:default;line-height:14px;fill:#666;" y="334.5" x="165.125"><tspan x="165.125">1836</tspan></text><text opacity="1" text-anchor="middle" style="font-family:'lucida grande', 'lucida sans unicode', verdana, arial, helvetica, sans-serif;font-size:11px;color:#666;cursor:default;line-height:14px;fill:#666;" y="321" x="190.875"><tspan x="190.875">1846</tspan></text><text opacity="1" text-anchor="middle" style="font-family:'lucida grande', 'lucida sans unicode', verdana, arial, helvetica, sans-serif;font-size:11px;color:#666;cursor:default;line-height:14px;fill:#666;" y="334.5" x="216.625"><tspan x="216.625">1854</tspan></text><text opacity="1" text-anchor="middle" style="font-family:'lucida grande', 'lucida sans unicode', verdana, arial, helvetica, sans-serif;font-size:11px;color:#666;cursor:default;line-height:14px;fill:#666;" y="321" x="242.375"><tspan x="242.375">1869</tspan></text><text opacity="1" text-anchor="middle" style="font-family:'lucida grande', 'lucida sans unicode', verdana, arial, helvetica, sans-serif;font-size:11px;color:#666;cursor:default;line-height:14px;fill:#666;" y="334.5" x="268.125"><tspan x="268.125">1880</tspan></text><text opacity="1" text-anchor="middle" style="font-family:'lucida grande', 'lucida sans unicode', verdana, arial, helvetica, sans-serif;font-size:11px;color:#666;cursor:default;line-height:14px;fill:#666;" y="321" x="293.875"><tspan x="293.875">1890</tspan></text><text opacity="1" text-anchor="middle" style="font-family:'lucida grande', 'lucida sans unicode', verdana, arial, helvetica, sans-serif;font-size:11px;color:#666;cursor:default;line-height:14px;fill:#666;" y="334.5" x="319.625"><tspan x="319.625">1900</tspan></text><text opacity="1" text-anchor="middle" style="font-family:'lucida grande', 'lucida sans unicode', verdana, arial, helvetica, sans-serif;font-size:11px;color:#666;cursor:default;line-height:14px;fill:#666;" y="321" x="345.375"><tspan x="345.375">1910</tspan></text><text opacity="1" text-anchor="middle" style="font-family:'lucida grande', 'lucida sans unicode', verdana, arial, helvetica, sans-serif;font-size:11px;color:#666;cursor:default;line-height:14px;fill:#666;" y="334.5" x="371.125"><tspan x="371.125">1921</tspan></text><text opacity="1" text-anchor="middle" style="font-family:'lucida grande', 'lucida sans unicode', verdana, arial, helvetica, sans-serif;font-size:11px;color:#666;cursor:default;line-height:14px;fill:#666;" y="321" x="396.875"><tspan x="396.875">1931</tspan></text><text opacity="1" text-anchor="middle" style="font-family:'lucida grande', 'lucida sans unicode', verdana, arial, helvetica, sans-serif;font-size:11px;color:#666;cursor:default;line-height:14px;fill:#666;" y="334.5" x="422.625"><tspan x="422.625">1937</tspan></text><text opacity="1" text-anchor="middle" style="font-family:'lucida grande', 'lucida sans unicode', verdana, arial, helvetica, sans-serif;font-size:11px;color:#666;cursor:default;line-height:14px;fill:#666;" y="321" x="448.375"><tspan x="448.375">1940</tspan></text><text opacity="1" text-anchor="middle" style="font-family:'lucida grande', 'lucida sans unicode', verdana, arial, helvetica, sans-serif;font-size:11px;color:#666;cursor:default;line-height:14px;fill:#666;" y="334.5" x="474.125"><tspan x="474.125">1941</tspan></text><text opacity="1" text-anchor="middle" style="font-family:'lucida grande', 'lucida sans unicode', verdana, arial, helvetica, sans-serif;font-size:11px;color:#666;cursor:default;line-height:14px;fill:#666;" y="321" x="499.875"><tspan x="499.875">1942</tspan></text><text opacity="1" text-anchor="middle" style="font-family:'lucida grande', 'lucida sans unicode', verdana, arial, helvetica, sans-serif;font-size:11px;color:#666;cursor:default;line-height:14px;fill:#666;" y="334.5" x="525.625"><tspan x="525.625">1944</tspan></text><text opacity="1" text-anchor="middle" style="font-family:'lucida grande', 'lucida sans unicode', verdana, arial, helvetica, sans-serif;font-size:11px;color:#666;cursor:default;line-height:14px;fill:#666;" y="321" x="551.375"><tspan x="551.375">1945</tspan></text><text opacity="1" text-anchor="middle" style="font-family:'lucida grande', 'lucida sans unicode', verdana, arial, helvetica, sans-serif;font-size:11px;color:#666;cursor:default;line-height:14px;fill:#666;" y="334.5" x="577.125"><tspan x="577.125">1946</tspan></text></g><g  class="highcharts-axis-labels"><text opacity="1" text-anchor="end" style="font-family:'lucida grande', 'lucida sans unicode', verdana, arial, helvetica, sans-serif;font-size:11px;color:#666;cursor:default;line-height:14px;fill:#666;" y="312.25" x="67"><tspan x="67">-250</tspan></text><text opacity="1" text-anchor="end" style="font-family:'lucida grande', 'lucida sans unicode', verdana, arial, helvetica, sans-serif;font-size:11px;color:#666;cursor:default;line-height:14px;fill:#666;" y="273.75" x="67"><tspan x="67">0</tspan></text><text opacity="1" text-anchor="end" style="font-family:'lucida grande', 'lucida sans unicode', verdana, arial, helvetica, sans-serif;font-size:11px;color:#666;cursor:default;line-height:14px;fill:#666;" y="235.25" x="67"><tspan x="67">250</tspan></text><text opacity="1" text-anchor="end" style="font-family:'lucida grande', 'lucida sans unicode', verdana, arial, helvetica, sans-serif;font-size:11px;color:#666;cursor:default;line-height:14px;fill:#666;" y="196.75" x="67"><tspan x="67">500</tspan></text><text opacity="1" text-anchor="end" style="font-family:'lucida grande', 'lucida sans unicode', verdana, arial, helvetica, sans-serif;font-size:11px;color:#666;cursor:default;line-height:14px;fill:#666;" y="158.25" x="67"><tspan x="67">750</tspan></text><text opacity="1" text-anchor="end" style="font-family:'lucida grande', 'lucida sans unicode', verdana, arial, helvetica, sans-serif;font-size:11px;color:#666;cursor:default;line-height:14px;fill:#666;" y="119.75" x="67"><tspan x="67">1,000</tspan></text><text opacity="1" text-anchor="end" style="font-family:'lucida grande', 'lucida sans unicode', verdana, arial, helvetica, sans-serif;font-size:11px;color:#666;cursor:default;line-height:14px;fill:#666;" y="81.25" x="67"><tspan x="67">1,250</tspan></text></g><g transform="translate(0,-999)" style="cursor:default;padding:0;white-space:nowrap;"  class="highcharts-tooltip"><rect transform="translate(1, 1)" stroke-width="5" stroke-opacity="0.049999999999999996" stroke="black"  fill-opacity="0.85" height="16" width="16" y="0.5" x="0.5" fill="none" ry="3" rx="3"></rect><rect transform="translate(1, 1)" stroke-width="3" stroke-opacity="0.09999999999999999" stroke="black"  fill-opacity="0.85" height="16" width="16" y="0.5" x="0.5" fill="none" ry="3" rx="3"></rect><rect transform="translate(1, 1)" stroke-width="1" stroke-opacity="0.15" stroke="black"  fill-opacity="0.85" height="16" width="16" y="0.5" x="0.5" fill="none" ry="3" rx="3"></rect><rect fill-opacity="0.85" height="16" width="16" y="0.5" x="0.5" fill="rgb(255,255,255)" ry="3" rx="3"></rect><text  style="font-family:'lucida grande', 'lucida sans unicode', verdana, arial, helvetica, sans-serif;font-size:12px;color:#333333;fill:#333333;" y="21" x="8"></text></g></svg>