<?xml version="1.0" standalone="no"?><!DOCTYPE svg PUBLIC "-//W3C//DTD SVG 1.1//EN" "http://www.w3.org/Graphics/SVG/1.1/DTD/svg11.dtd"><svg xmlns:xlink="http://www.w3.org/1999/xlink" height="400" width="600" xmlns="http://www.w3.org/2000/svg" version="1.1"><desc>Created with Highcharts 3.0.7</desc><defs><clipPath id="highcharts-7"><rect height="262" width="525" y="0" x="0" fill="none"></rect></clipPath></defs><rect height="400" width="600" y="0" x="0" fill="#FFFFFF" ry="0" rx="0"></rect><path stroke-width="1" stroke="#808080" d="M 65 270.5 L 590 270.5" fill="none"></path><g  class="highcharts-grid"></g><g  class="highcharts-grid"><path opacity="1"  stroke-width="1" stroke="#C0C0C0" d="M 65 270.5 L 590 270.5" fill="none"></path><path opacity="1"  stroke-width="1" stroke="#C0C0C0" d="M 65 217.5 L 590 217.5" fill="none"></path><path opacity="1"  stroke-width="1" stroke="#C0C0C0" d="M 65 165.5 L 590 165.5" fill="none"></path><path opacity="1"  stroke-width="1" stroke="#C0C0C0" d="M 65 112.5 L 590 112.5" fill="none"></path><path opacity="1"  stroke-width="1" stroke="#C0C0C0" d="M 65 59.5 L 590 59.5" fill="none"></path><path opacity="1"  stroke-width="1" stroke="#C0C0C0" d="M 65 322.5 L 590 322.5" fill="none"></path></g><g  class="highcharts-axis"><path opacity="1" stroke-width="1" stroke="#C0D0E0" d="M 117.5 322 L 117.5 327" fill="none"></path><path opacity="1" stroke-width="1" stroke="#C0D0E0" d="M 143.5 322 L 143.5 327" fill="none"></path><path opacity="1" stroke-width="1" stroke="#C0D0E0" d="M 169.5 322 L 169.5 327" fill="none"></path><path opacity="1" stroke-width="1" stroke="#C0D0E0" d="M 195.5 322 L 195.5 327" fill="none"></path><path opacity="1" stroke-width="1" stroke="#C0D0E0" d="M 222.5 322 L 222.5 327" fill="none"></path><path opacity="1" stroke-width="1" stroke="#C0D0E0" d="M 248.5 322 L 248.5 327" fill="none"></path><path opacity="1" stroke-width="1" stroke="#C0D0E0" d="M 274.5 322 L 274.5 327" fill="none"></path><path opacity="1" stroke-width="1" stroke="#C0D0E0" d="M 300.5 322 L 300.5 327" fill="none"></path><path opacity="1" stroke-width="1" stroke="#C0D0E0" d="M 327.5 322 L 327.5 327" fill="none"></path><path opacity="1" stroke-width="1" stroke="#C0D0E0" d="M 353.5 322 L 353.5 327" fill="none"></path><path opacity="1" stroke-width="1" stroke="#C0D0E0" d="M 379.5 322 L 379.5 327" fill="none"></path><path opacity="1" stroke-width="1" stroke="#C0D0E0" d="M 405.5 322 L 405.5 327" fill="none"></path><path opacity="1" stroke-width="1" stroke="#C0D0E0" d="M 432.5 322 L 432.5 327" fill="none"></path><path opacity="1" stroke-width="1" stroke="#C0D0E0" d="M 458.5 322 L 458.5 327" fill="none"></path><path opacity="1" stroke-width="1" stroke="#C0D0E0" d="M 484.5 322 L 484.5 327" fill="none"></path><path opacity="1" stroke-width="1" stroke="#C0D0E0" d="M 510.5 322 L 510.5 327" fill="none"></path><path opacity="1" stroke-width="1" stroke="#C0D0E0" d="M 537.5 322 L 537.5 327" fill="none"></path><path opacity="1" stroke-width="1" stroke="#C0D0E0" d="M 563.5 322 L 563.5 327" fill="none"></path><path opacity="1" stroke-width="1" stroke="#C0D0E0" d="M 590.5 322 L 590.5 327" fill="none"></path><path opacity="1" stroke-width="1" stroke="#C0D0E0" d="M 90.5 322 L 90.5 327" fill="none"></path><path stroke-width="1" stroke="#C0D0E0" d="M 64.5 322 L 64.5 327" fill="none"></path><path visibility="visible"  stroke-width="1" stroke="#C0D0E0" d="M 65 322.5 L 590 322.5" fill="none"></path></g><g  class="highcharts-axis"><text visibility="visible" transform="translate(0,0) rotate(270 25.149999618530273 191)" text-anchor="middle"  style="font-family:'lucida grande', 'lucida sans unicode', verdana, arial, helvetica, sans-serif;font-size:12px;color:#4d759e;font-weight:bold;fill:#4d759e;" y="191" x="25.149999618530273"><tspan x="25.149999618530273">Število žrtev</tspan></text></g><g  class="highcharts-series-group"><g clip-path="url(#highcharts-7)" transform="translate(65,60) scale(1 1)"  visibility="visible" class="highcharts-series"><path stroke-linecap="round" stroke-linejoin="round"  stroke-width="2" stroke="#2f7ed8" d="M 13.125 208.552 L 39.375 209.6 L 65.625 206.456 L 91.875 198.072 L 118.125 194.928 L 144.375 188.64 L 170.625 178.16 L 196.875 172.92000000000002 L 223.125 175.016 L 249.375 178.16 L 275.625 179.208 L 301.875 172.92000000000002 L 328.125 179.208 L 354.375 179.208 L 380.625 190.736 L 406.875 194.928 L 433.125 191.784 L 459.375 192.832 L 485.625 195.976 L 511.875 198.072" fill="none"></path><path style="" class=" highcharts-tracker"  stroke-width="22" stroke="rgb(192,192,192)" stroke-opacity="0.0001" visibility="visible" stroke-linejoin="round" d="M 3.125 208.552 L 13.125 208.552 L 39.375 209.6 L 65.625 206.456 L 91.875 198.072 L 118.125 194.928 L 144.375 188.64 L 170.625 178.16 L 196.875 172.92000000000002 L 223.125 175.016 L 249.375 178.16 L 275.625 179.208 L 301.875 172.92000000000002 L 328.125 179.208 L 354.375 179.208 L 380.625 190.736 L 406.875 194.928 L 433.125 191.784 L 459.375 192.832 L 485.625 195.976 L 511.875 198.072 L 521.875 198.072" fill="none"></path></g><g clip-path="none" style="" transform="translate(65,60) scale(1 1)"  visibility="visible" class="highcharts-markers highcharts-tracker"><path d="M 511 194.072 C 516.328 194.072 516.328 202.072 511 202.072 C 505.672 202.072 505.672 194.072 511 194.072 Z" fill="#2f7ed8"></path><path d="M 485 191.976 C 490.328 191.976 490.328 199.976 485 199.976 C 479.672 199.976 479.672 191.976 485 191.976 Z" fill="#2f7ed8"></path><path d="M 459 188.832 C 464.328 188.832 464.328 196.832 459 196.832 C 453.672 196.832 453.672 188.832 459 188.832 Z" fill="#2f7ed8"></path><path d="M 433 187.784 C 438.328 187.784 438.328 195.784 433 195.784 C 427.672 195.784 427.672 187.784 433 187.784 Z" fill="#2f7ed8"></path><path d="M 406 190.928 C 411.328 190.928 411.328 198.928 406 198.928 C 400.672 198.928 400.672 190.928 406 190.928 Z" fill="#2f7ed8"></path><path d="M 380 186.736 C 385.328 186.736 385.328 194.736 380 194.736 C 374.672 194.736 374.672 186.736 380 186.736 Z" fill="#2f7ed8"></path><path d="M 354 175.208 C 359.328 175.208 359.328 183.208 354 183.208 C 348.672 183.208 348.672 175.208 354 175.208 Z" fill="#2f7ed8"></path><path d="M 328 175.208 C 333.328 175.208 333.328 183.208 328 183.208 C 322.672 183.208 322.672 175.208 328 175.208 Z" fill="#2f7ed8"></path><path d="M 301 168.92000000000002 C 306.328 168.92000000000002 306.328 176.92000000000002 301 176.92000000000002 C 295.672 176.92000000000002 295.672 168.92000000000002 301 168.92000000000002 Z" fill="#2f7ed8"></path><path d="M 275 175.208 C 280.328 175.208 280.328 183.208 275 183.208 C 269.672 183.208 269.672 175.208 275 175.208 Z" fill="#2f7ed8"></path><path d="M 249 174.16 C 254.328 174.16 254.328 182.16 249 182.16 C 243.672 182.16 243.672 174.16 249 174.16 Z" fill="#2f7ed8"></path><path d="M 223 171.016 C 228.328 171.016 228.328 179.016 223 179.016 C 217.672 179.016 217.672 171.016 223 171.016 Z" fill="#2f7ed8"></path><path d="M 196 168.92000000000002 C 201.328 168.92000000000002 201.328 176.92000000000002 196 176.92000000000002 C 190.672 176.92000000000002 190.672 168.92000000000002 196 168.92000000000002 Z" fill="#2f7ed8"></path><path d="M 170 174.16 C 175.328 174.16 175.328 182.16 170 182.16 C 164.672 182.16 164.672 174.16 170 174.16 Z" fill="#2f7ed8"></path><path d="M 144 184.64 C 149.328 184.64 149.328 192.64 144 192.64 C 138.672 192.64 138.672 184.64 144 184.64 Z" fill="#2f7ed8"></path><path d="M 118 190.928 C 123.328 190.928 123.328 198.928 118 198.928 C 112.672 198.928 112.672 190.928 118 190.928 Z" fill="#2f7ed8"></path><path d="M 91 194.072 C 96.328 194.072 96.328 202.072 91 202.072 C 85.672 202.072 85.672 194.072 91 194.072 Z" fill="#2f7ed8"></path><path d="M 65 202.456 C 70.328 202.456 70.328 210.456 65 210.456 C 59.672 210.456 59.672 202.456 65 202.456 Z" fill="#2f7ed8"></path><path d="M 39 205.6 C 44.328 205.6 44.328 213.6 39 213.6 C 33.672 213.6 33.672 205.6 39 205.6 Z" fill="#2f7ed8"></path><path d="M 13 204.552 C 18.328 204.552 18.328 212.552 13 212.552 C 7.672 212.552 7.672 204.552 13 204.552 Z" fill="#2f7ed8"></path></g><g clip-path="url(#highcharts-7)" transform="translate(65,60) scale(1 1)"  visibility="visible" class="highcharts-series"><path stroke-linecap="round" stroke-linejoin="round"  stroke-width="2" stroke="#0d233a" d="M 13.125 209.6 L 39.375 209.6 L 65.625 208.552 L 91.875 206.456 L 118.125 204.36 L 144.375 200.168 L 170.625 194.928 L 196.875 181.304 L 223.125 186.54399999999998 L 249.375 190.736 L 275.625 167.68 L 301.875 161.392 L 328.125 144.624 L 354.375 128.904 L 380.625 115.28 L 406.875 53.44799999999998 L 433.125 161.392 L 459.375 192.832 L 485.625 197.024 L 511.875 197.024" fill="none"></path><path style="" class=" highcharts-tracker"  stroke-width="22" stroke="rgb(192,192,192)" stroke-opacity="0.0001" visibility="visible" stroke-linejoin="round" d="M 3.125 209.6 L 13.125 209.6 L 39.375 209.6 L 65.625 208.552 L 91.875 206.456 L 118.125 204.36 L 144.375 200.168 L 170.625 194.928 L 196.875 181.304 L 223.125 186.54399999999998 L 249.375 190.736 L 275.625 167.68 L 301.875 161.392 L 328.125 144.624 L 354.375 128.904 L 380.625 115.28 L 406.875 53.44799999999998 L 433.125 161.392 L 459.375 192.832 L 485.625 197.024 L 511.875 197.024 L 521.875 197.024" fill="none"></path></g><g clip-path="none" style="" transform="translate(65,60) scale(1 1)"  visibility="visible" class="highcharts-markers highcharts-tracker"><path d="M 511 193.024 L 515 197.024 511 201.024 507 197.024 Z" fill="#0d233a"></path><path d="M 485 193.024 L 489 197.024 485 201.024 481 197.024 Z" fill="#0d233a"></path><path d="M 459 188.832 L 463 192.832 459 196.832 455 192.832 Z" fill="#0d233a"></path><path d="M 433 157.392 L 437 161.392 433 165.392 429 161.392 Z" fill="#0d233a"></path><path d="M 406 49.44799999999998 L 410 53.44799999999998 406 57.44799999999998 402 53.44799999999998 Z" fill="#0d233a"></path><path d="M 380 111.28 L 384 115.28 380 119.28 376 115.28 Z" fill="#0d233a"></path><path d="M 354 124.904 L 358 128.904 354 132.904 350 128.904 Z" fill="#0d233a"></path><path d="M 328 140.624 L 332 144.624 328 148.624 324 144.624 Z" fill="#0d233a"></path><path d="M 301 157.392 L 305 161.392 301 165.392 297 161.392 Z" fill="#0d233a"></path><path d="M 275 163.68 L 279 167.68 275 171.68 271 167.68 Z" fill="#0d233a"></path><path d="M 249 186.736 L 253 190.736 249 194.736 245 190.736 Z" fill="#0d233a"></path><path d="M 223 182.54399999999998 L 227 186.54399999999998 223 190.54399999999998 219 186.54399999999998 Z" fill="#0d233a"></path><path d="M 196 177.304 L 200 181.304 196 185.304 192 181.304 Z" fill="#0d233a"></path><path d="M 170 190.928 L 174 194.928 170 198.928 166 194.928 Z" fill="#0d233a"></path><path d="M 144 196.168 L 148 200.168 144 204.168 140 200.168 Z" fill="#0d233a"></path><path d="M 118 200.36 L 122 204.36 118 208.36 114 204.36 Z" fill="#0d233a"></path><path d="M 91 202.456 L 95 206.456 91 210.456 87 206.456 Z" fill="#0d233a"></path><path d="M 65 204.552 L 69 208.552 65 212.552 61 208.552 Z" fill="#0d233a"></path><path d="M 39 205.6 L 43 209.6 39 213.6 35 209.6 Z" fill="#0d233a"></path><path d="M 13 205.6 L 17 209.6 13 213.6 9 209.6 Z" fill="#0d233a"></path></g></g><text  class="highcharts-title" text-anchor="middle" style="font-family:'lucida grande', 'lucida sans unicode', verdana, arial, helvetica, sans-serif;font-size:16px;color:#274b6d;fill:#274b6d;" y="25" x="300"><tspan x="300">Slovenske in judovske žrtve druge svetovno vojne v Prekmurju glede</tspan><tspan x="300" dy="16">na datum rojstva</tspan></text><g transform="translate(178,359)"  class="highcharts-legend"><rect visibility="visible" stroke-width="1" stroke="#909090" height="25" width="242" y="0.5" x="0.5" fill="none" ry="5" rx="5"></rect><g ><g><g transform="translate(8,3)"  class="highcharts-legend-item"><path stroke-width="2" stroke="#2f7ed8" d="M 0 11 L 16 11" fill="none"></path><path d="M 8 7 C 13.328 7 13.328 15 8 15 C 2.6719999999999997 15 2.6719999999999997 7 8 7 Z" fill="#2f7ed8"></path><text  text-anchor="start" style="font-family:'lucida grande', 'lucida sans unicode', verdana, arial, helvetica, sans-serif;font-size:12px;cursor:pointer;color:#274b6d;fill:#274b6d;" y="15" x="21"><tspan x="21">judovske žrtve</tspan></text></g><g transform="translate(123.83333587646484,3)"  class="highcharts-legend-item"><path stroke-width="2" stroke="#0d233a" d="M 0 11 L 16 11" fill="none"></path><path d="M 8 7 L 12 11 8 15 4 11 Z" fill="#0d233a"></path><text  text-anchor="start" style="font-family:'lucida grande', 'lucida sans unicode', verdana, arial, helvetica, sans-serif;font-size:12px;cursor:pointer;color:#274b6d;fill:#274b6d;" y="15" x="21"><tspan x="21">slovenske žrtve</tspan></text></g></g></g></g><g  class="highcharts-axis-labels"><text opacity="1" text-anchor="middle" style="font-family:'lucida grande', 'lucida sans unicode', verdana, arial, helvetica, sans-serif;font-size:11px;color:#666;cursor:default;line-height:14px;fill:#666;" y="336" x="78.125"><tspan x="78.125">1845/9</tspan></text><text opacity="1" text-anchor="middle" style="font-family:'lucida grande', 'lucida sans unicode', verdana, arial, helvetica, sans-serif;font-size:11px;color:#666;cursor:default;line-height:14px;fill:#666;" y="349.5" x="104.375"><tspan x="104.375">1850/4</tspan></text><text opacity="1" text-anchor="middle" style="font-family:'lucida grande', 'lucida sans unicode', verdana, arial, helvetica, sans-serif;font-size:11px;color:#666;cursor:default;line-height:14px;fill:#666;" y="336" x="130.625"><tspan x="130.625">1855/9</tspan></text><text opacity="1" text-anchor="middle" style="font-family:'lucida grande', 'lucida sans unicode', verdana, arial, helvetica, sans-serif;font-size:11px;color:#666;cursor:default;line-height:14px;fill:#666;" y="349.5" x="156.875"><tspan x="156.875">1860/4</tspan></text><text opacity="1" text-anchor="middle" style="font-family:'lucida grande', 'lucida sans unicode', verdana, arial, helvetica, sans-serif;font-size:11px;color:#666;cursor:default;line-height:14px;fill:#666;" y="336" x="183.125"><tspan x="183.125">1865/9</tspan></text><text opacity="1" text-anchor="middle" style="font-family:'lucida grande', 'lucida sans unicode', verdana, arial, helvetica, sans-serif;font-size:11px;color:#666;cursor:default;line-height:14px;fill:#666;" y="349.5" x="209.375"><tspan x="209.375">1870/4</tspan></text><text opacity="1" text-anchor="middle" style="font-family:'lucida grande', 'lucida sans unicode', verdana, arial, helvetica, sans-serif;font-size:11px;color:#666;cursor:default;line-height:14px;fill:#666;" y="336" x="235.625"><tspan x="235.625">1875/9</tspan></text><text opacity="1" text-anchor="middle" style="font-family:'lucida grande', 'lucida sans unicode', verdana, arial, helvetica, sans-serif;font-size:11px;color:#666;cursor:default;line-height:14px;fill:#666;" y="349.5" x="261.875"><tspan x="261.875">1880/4</tspan></text><text opacity="1" text-anchor="middle" style="font-family:'lucida grande', 'lucida sans unicode', verdana, arial, helvetica, sans-serif;font-size:11px;color:#666;cursor:default;line-height:14px;fill:#666;" y="336" x="288.125"><tspan x="288.125">1885/9</tspan></text><text opacity="1" text-anchor="middle" style="font-family:'lucida grande', 'lucida sans unicode', verdana, arial, helvetica, sans-serif;font-size:11px;color:#666;cursor:default;line-height:14px;fill:#666;" y="349.5" x="314.375"><tspan x="314.375">1890/4</tspan></text><text opacity="1" text-anchor="middle" style="font-family:'lucida grande', 'lucida sans unicode', verdana, arial, helvetica, sans-serif;font-size:11px;color:#666;cursor:default;line-height:14px;fill:#666;" y="336" x="340.625"><tspan x="340.625">1895/9</tspan></text><text opacity="1" text-anchor="middle" style="font-family:'lucida grande', 'lucida sans unicode', verdana, arial, helvetica, sans-serif;font-size:11px;color:#666;cursor:default;line-height:14px;fill:#666;" y="349.5" x="366.875"><tspan x="366.875">1900/4</tspan></text><text opacity="1" text-anchor="middle" style="font-family:'lucida grande', 'lucida sans unicode', verdana, arial, helvetica, sans-serif;font-size:11px;color:#666;cursor:default;line-height:14px;fill:#666;" y="336" x="393.125"><tspan x="393.125">1905/9</tspan></text><text opacity="1" text-anchor="middle" style="font-family:'lucida grande', 'lucida sans unicode', verdana, arial, helvetica, sans-serif;font-size:11px;color:#666;cursor:default;line-height:14px;fill:#666;" y="349.5" x="419.375"><tspan x="419.375">1910/4</tspan></text><text opacity="1" text-anchor="middle" style="font-family:'lucida grande', 'lucida sans unicode', verdana, arial, helvetica, sans-serif;font-size:11px;color:#666;cursor:default;line-height:14px;fill:#666;" y="336" x="445.625"><tspan x="445.625">1915/9</tspan></text><text opacity="1" text-anchor="middle" style="font-family:'lucida grande', 'lucida sans unicode', verdana, arial, helvetica, sans-serif;font-size:11px;color:#666;cursor:default;line-height:14px;fill:#666;" y="349.5" x="471.875"><tspan x="471.875">1920/4</tspan></text><text opacity="1" text-anchor="middle" style="font-family:'lucida grande', 'lucida sans unicode', verdana, arial, helvetica, sans-serif;font-size:11px;color:#666;cursor:default;line-height:14px;fill:#666;" y="336" x="498.125"><tspan x="498.125">1925/9</tspan></text><text opacity="1" text-anchor="middle" style="font-family:'lucida grande', 'lucida sans unicode', verdana, arial, helvetica, sans-serif;font-size:11px;color:#666;cursor:default;line-height:14px;fill:#666;" y="349.5" x="524.375"><tspan x="524.375">1930/4</tspan></text><text opacity="1" text-anchor="middle" style="font-family:'lucida grande', 'lucida sans unicode', verdana, arial, helvetica, sans-serif;font-size:11px;color:#666;cursor:default;line-height:14px;fill:#666;" y="336" x="550.625"><tspan x="550.625">1935/9</tspan></text><text opacity="1" text-anchor="middle" style="font-family:'lucida grande', 'lucida sans unicode', verdana, arial, helvetica, sans-serif;font-size:11px;color:#666;cursor:default;line-height:14px;fill:#666;" y="349.5" x="576.875"><tspan x="576.875">1940/3</tspan></text></g><g  class="highcharts-axis-labels"><text opacity="1" text-anchor="end" style="font-family:'lucida grande', 'lucida sans unicode', verdana, arial, helvetica, sans-serif;font-size:11px;color:#666;cursor:default;line-height:14px;fill:#666;" y="274.85" x="57"><tspan x="57">0</tspan></text><text opacity="1" text-anchor="end" style="font-family:'lucida grande', 'lucida sans unicode', verdana, arial, helvetica, sans-serif;font-size:11px;color:#666;cursor:default;line-height:14px;fill:#666;" y="222.45" x="57"><tspan x="57">50</tspan></text><text opacity="1" text-anchor="end" style="font-family:'lucida grande', 'lucida sans unicode', verdana, arial, helvetica, sans-serif;font-size:11px;color:#666;cursor:default;line-height:14px;fill:#666;" y="170.04999999999998" x="57"><tspan x="57">100</tspan></text><text opacity="1" text-anchor="end" style="font-family:'lucida grande', 'lucida sans unicode', verdana, arial, helvetica, sans-serif;font-size:11px;color:#666;cursor:default;line-height:14px;fill:#666;" y="117.64999999999998" x="57"><tspan x="57">150</tspan></text><text opacity="1" text-anchor="end" style="font-family:'lucida grande', 'lucida sans unicode', verdana, arial, helvetica, sans-serif;font-size:11px;color:#666;cursor:default;line-height:14px;fill:#666;" y="327.25" x="57"><tspan x="57">-50</tspan></text><text opacity="1" text-anchor="end" style="font-family:'lucida grande', 'lucida sans unicode', verdana, arial, helvetica, sans-serif;font-size:11px;color:#666;cursor:default;line-height:14px;fill:#666;" y="65.25" x="57"><tspan x="57">200</tspan></text></g><g transform="translate(0,-999)" style="cursor:default;padding:0;white-space:nowrap;"  class="highcharts-tooltip"><rect transform="translate(1, 1)" stroke-width="5" stroke-opacity="0.049999999999999996" stroke="black"  fill-opacity="0.85" height="16" width="16" y="0.5" x="0.5" fill="none" ry="3" rx="3"></rect><rect transform="translate(1, 1)" stroke-width="3" stroke-opacity="0.09999999999999999" stroke="black"  fill-opacity="0.85" height="16" width="16" y="0.5" x="0.5" fill="none" ry="3" rx="3"></rect><rect transform="translate(1, 1)" stroke-width="1" stroke-opacity="0.15" stroke="black"  fill-opacity="0.85" height="16" width="16" y="0.5" x="0.5" fill="none" ry="3" rx="3"></rect><rect fill-opacity="0.85" height="16" width="16" y="0.5" x="0.5" fill="rgb(255,255,255)" ry="3" rx="3"></rect><text  style="font-family:'lucida grande', 'lucida sans unicode', verdana, arial, helvetica, sans-serif;font-size:12px;color:#333333;fill:#333333;" y="21" x="8"></text></g></svg>