<?xml version="1.0" standalone="no"?><!DOCTYPE svg PUBLIC "-//W3C//DTD SVG 1.1//EN" "http://www.w3.org/Graphics/SVG/1.1/DTD/svg11.dtd"><svg xmlns:xlink="http://www.w3.org/1999/xlink" height="400" width="600" xmlns="http://www.w3.org/2000/svg" version="1.1"><desc>Created with Highcharts 3.0.7</desc><defs><clipPath id="highcharts-9"><rect height="276" width="515" y="0" x="0" fill="none"></rect></clipPath></defs><rect height="400" width="600" y="0" x="0" fill="#FFFFFF" ry="0" rx="0"></rect><g  class="highcharts-grid"></g><g  class="highcharts-grid"><path opacity="1"  stroke-width="1" stroke="#C0C0C0" d="M 75 290.5 L 590 290.5" fill="none"></path><path opacity="1"  stroke-width="1" stroke="#C0C0C0" d="M 75 244.5 L 590 244.5" fill="none"></path><path opacity="1"  stroke-width="1" stroke="#C0C0C0" d="M 75 198.5 L 590 198.5" fill="none"></path><path opacity="1"  stroke-width="1" stroke="#C0C0C0" d="M 75 152.5 L 590 152.5" fill="none"></path><path opacity="1"  stroke-width="1" stroke="#C0C0C0" d="M 75 106.5 L 590 106.5" fill="none"></path><path opacity="1"  stroke-width="1" stroke="#C0C0C0" d="M 75 59.5 L 590 59.5" fill="none"></path><path opacity="1"  stroke-width="1" stroke="#C0C0C0" d="M 75 336.5 L 590 336.5" fill="none"></path></g><g  class="highcharts-axis"><path opacity="1" stroke-width="1" stroke="#C0D0E0" d="M 184.5 336 L 184.5 341" fill="none"></path><path opacity="1" stroke-width="1" stroke="#C0D0E0" d="M 258.5 336 L 258.5 341" fill="none"></path><path opacity="1" stroke-width="1" stroke="#C0D0E0" d="M 332.5 336 L 332.5 341" fill="none"></path><path opacity="1" stroke-width="1" stroke="#C0D0E0" d="M 405.5 336 L 405.5 341" fill="none"></path><path opacity="1" stroke-width="1" stroke="#C0D0E0" d="M 479.5 336 L 479.5 341" fill="none"></path><path opacity="1" stroke-width="1" stroke="#C0D0E0" d="M 552.5 336 L 552.5 341" fill="none"></path><path opacity="1" stroke-width="1" stroke="#C0D0E0" d="M 111.5 336 L 111.5 341" fill="none"></path><path visibility="visible"  stroke-width="1" stroke="#C0D0E0" d="M 75 336.5 L 590 336.5" fill="none"></path></g><g  class="highcharts-axis"><text visibility="visible" transform="translate(0,0) rotate(270 24.733333587646484 198)" text-anchor="middle"  style="font-family:'lucida grande', 'lucida sans unicode', verdana, arial, helvetica, sans-serif;font-size:12px;color:#4d759e;font-weight:bold;fill:#4d759e;" y="198" x="24.733333587646484"><tspan x="24.733333587646484">Število Judov</tspan></text></g><g  class="highcharts-series-group"><g clip-path="url(#highcharts-9)" transform="translate(75,60) scale(1 1)"  visibility="visible" class="highcharts-series"><path  fill-opacity="0.75" d="M 36.785714285714285 32.93600000000001 L 110.35714285714286 35.328 L 183.92857142857142 47.656000000000006 L 257.5 34.96000000000001 L 331.07142857142856 103.77600000000001 L 404.6428571428571 125.12 L 478.2142857142857 132.848 478.2142857142857 199.272 404.6428571428571 188.416 331.07142857142856 161.184 257.5 96.416 183.92857142857142 106.904 110.35714285714286 87.03200000000001 36.785714285714285 76.912" fill="rgb(47,126,216)"></path><path stroke-linecap="round" stroke-linejoin="round"  stroke-width="1" stroke="#ffffff" d="M 36.785714285714285 32.93600000000001 L 110.35714285714286 35.328 L 183.92857142857142 47.656000000000006 L 257.5 34.96000000000001 L 331.07142857142856 103.77600000000001 L 404.6428571428571 125.12 L 478.2142857142857 132.848" fill="none"></path><path style="" class=" highcharts-tracker"  stroke-width="21" stroke="rgb(192,192,192)" stroke-opacity="0.0001" visibility="visible" stroke-linejoin="round" d="M 26.785714285714285 32.93600000000001 L 36.785714285714285 32.93600000000001 L 110.35714285714286 35.328 L 183.92857142857142 47.656000000000006 L 257.5 34.96000000000001 L 331.07142857142856 103.77600000000001 L 404.6428571428571 125.12 L 478.2142857142857 132.848 L 488.2142857142857 132.848" fill="none"></path></g><g clip-path="none" style="" transform="translate(75,60) scale(1 1)"  visibility="visible" class="highcharts-markers highcharts-tracker"><path stroke-width="1" stroke="#ffffff" d="M 478 128.848 C 483.328 128.848 483.328 136.848 478 136.848 C 472.672 136.848 472.672 128.848 478 128.848 Z" fill="#2f7ed8"></path><path stroke-width="1" stroke="#ffffff" d="M 404 121.12 C 409.328 121.12 409.328 129.12 404 129.12 C 398.672 129.12 398.672 121.12 404 121.12 Z" fill="#2f7ed8"></path><path stroke-width="1" stroke="#ffffff" d="M 331 99.77600000000001 C 336.328 99.77600000000001 336.328 107.77600000000001 331 107.77600000000001 C 325.672 107.77600000000001 325.672 99.77600000000001 331 99.77600000000001 Z" fill="#2f7ed8"></path><path stroke-width="1" stroke="#ffffff" d="M 257 30.960000000000008 C 262.328 30.960000000000008 262.328 38.96000000000001 257 38.96000000000001 C 251.672 38.96000000000001 251.672 30.960000000000008 257 30.960000000000008 Z" fill="#2f7ed8"></path><path stroke-width="1" stroke="#ffffff" d="M 183 43.656000000000006 C 188.328 43.656000000000006 188.328 51.656000000000006 183 51.656000000000006 C 177.672 51.656000000000006 177.672 43.656000000000006 183 43.656000000000006 Z" fill="#2f7ed8"></path><path stroke-width="1" stroke="#ffffff" d="M 110 31.328000000000003 C 115.328 31.328000000000003 115.328 39.328 110 39.328 C 104.672 39.328 104.672 31.328000000000003 110 31.328000000000003 Z" fill="#2f7ed8"></path><path stroke-width="1" stroke="#ffffff" d="M 36 28.936000000000007 C 41.328 28.936000000000007 41.328 36.93600000000001 36 36.93600000000001 C 30.672 36.93600000000001 30.672 28.936000000000007 36 28.936000000000007 Z" fill="#2f7ed8"></path></g><g clip-path="url(#highcharts-9)" transform="translate(75,60) scale(1 1)"  visibility="visible" class="highcharts-series"><path  fill-opacity="0.75" d="M 36.785714285714285 76.912 L 110.35714285714286 87.03200000000001 L 183.92857142857142 106.904 L 257.5 96.416 L 331.07142857142856 161.184 L 404.6428571428571 188.416 L 478.2142857142857 199.272 478.2142857142857 276 404.6428571428571 276 331.07142857142856 276 257.5 276 183.92857142857142 276 110.35714285714286 276 36.785714285714285 276" fill="rgb(13,35,58)"></path><path stroke-linecap="round" stroke-linejoin="round"  stroke-width="1" stroke="#ffffff" d="M 36.785714285714285 76.912 L 110.35714285714286 87.03200000000001 L 183.92857142857142 106.904 L 257.5 96.416 L 331.07142857142856 161.184 L 404.6428571428571 188.416 L 478.2142857142857 199.272" fill="none"></path><path style="" class=" highcharts-tracker"  stroke-width="21" stroke="rgb(192,192,192)" stroke-opacity="0.0001" visibility="visible" stroke-linejoin="round" d="M 26.785714285714285 76.912 L 36.785714285714285 76.912 L 110.35714285714286 87.03200000000001 L 183.92857142857142 106.904 L 257.5 96.416 L 331.07142857142856 161.184 L 404.6428571428571 188.416 L 478.2142857142857 199.272 L 488.2142857142857 199.272" fill="none"></path></g><g clip-path="none" style="" transform="translate(75,60) scale(1 1)"  visibility="visible" class="highcharts-markers highcharts-tracker"><path stroke-width="1" stroke="#ffffff" d="M 478 195.272 L 482 199.272 478 203.272 474 199.272 Z" fill="#0d233a"></path><path stroke-width="1" stroke="#ffffff" d="M 404 184.416 L 408 188.416 404 192.416 400 188.416 Z" fill="#0d233a"></path><path stroke-width="1" stroke="#ffffff" d="M 331 157.184 L 335 161.184 331 165.184 327 161.184 Z" fill="#0d233a"></path><path stroke-width="1" stroke="#ffffff" d="M 257 92.416 L 261 96.416 257 100.416 253 96.416 Z" fill="#0d233a"></path><path stroke-width="1" stroke="#ffffff" d="M 183 102.904 L 187 106.904 183 110.904 179 106.904 Z" fill="#0d233a"></path><path stroke-width="1" stroke="#ffffff" d="M 110 83.03200000000001 L 114 87.03200000000001 110 91.03200000000001 106 87.03200000000001 Z" fill="#0d233a"></path><path stroke-width="1" stroke="#ffffff" d="M 36 72.912 L 40 76.912 36 80.912 32 76.912 Z" fill="#0d233a"></path></g></g><text  class="highcharts-title" text-anchor="middle" style="font-family:'lucida grande', 'lucida sans unicode', verdana, arial, helvetica, sans-serif;font-size:16px;color:#274b6d;fill:#274b6d;" y="25" x="300"><tspan x="300">Število Judov v mejah ozemlja Dravske banovine med leti 1880 in</tspan><tspan x="300" dy="16">1937</tspan></text><g transform="translate(166,359)"  class="highcharts-legend"><rect visibility="visible" stroke-width="1" stroke="#909090" height="25" width="267" y="0.5" x="0.5" fill="none" ry="5" rx="5"></rect><g ><g><g transform="translate(8,3)"  class="highcharts-legend-item"><text  text-anchor="start" style="font-family:'lucida grande', 'lucida sans unicode', verdana, arial, helvetica, sans-serif;font-size:12px;cursor:pointer;color:#274b6d;fill:#274b6d;" y="15" x="21"><tspan x="21">ostala Dravska banovina</tspan></text><rect  height="12" width="16" y="4" x="0" fill="#2f7ed8" ry="2" rx="2"></rect></g><g transform="translate(179.38333129882812,3)"  class="highcharts-legend-item"><text  text-anchor="start" style="font-family:'lucida grande', 'lucida sans unicode', verdana, arial, helvetica, sans-serif;font-size:12px;cursor:pointer;color:#274b6d;fill:#274b6d;" y="15" x="21"><tspan x="21">Prekmurje</tspan></text><rect  height="12" width="16" y="4" x="0" fill="#0d233a" ry="2" rx="2"></rect></g></g></g></g><g  class="highcharts-axis-labels"><text opacity="1" text-anchor="middle" style="font-family:'lucida grande', 'lucida sans unicode', verdana, arial, helvetica, sans-serif;font-size:11px;color:#666;cursor:default;line-height:14px;fill:#666;" y="350" x="111.78571428571428"><tspan x="111.78571428571428">1880</tspan></text><text opacity="1" text-anchor="middle" style="font-family:'lucida grande', 'lucida sans unicode', verdana, arial, helvetica, sans-serif;font-size:11px;color:#666;cursor:default;line-height:14px;fill:#666;" y="350" x="185.35714285714286"><tspan x="185.35714285714286">1890</tspan></text><text opacity="1" text-anchor="middle" style="font-family:'lucida grande', 'lucida sans unicode', verdana, arial, helvetica, sans-serif;font-size:11px;color:#666;cursor:default;line-height:14px;fill:#666;" y="350" x="258.92857142857144"><tspan x="258.92857142857144">1900</tspan></text><text opacity="1" text-anchor="middle" style="font-family:'lucida grande', 'lucida sans unicode', verdana, arial, helvetica, sans-serif;font-size:11px;color:#666;cursor:default;line-height:14px;fill:#666;" y="350" x="332.5"><tspan x="332.5">1910</tspan></text><text opacity="1" text-anchor="middle" style="font-family:'lucida grande', 'lucida sans unicode', verdana, arial, helvetica, sans-serif;font-size:11px;color:#666;cursor:default;line-height:14px;fill:#666;" y="350" x="406.07142857142856"><tspan x="406.07142857142856">1921</tspan></text><text opacity="1" text-anchor="middle" style="font-family:'lucida grande', 'lucida sans unicode', verdana, arial, helvetica, sans-serif;font-size:11px;color:#666;cursor:default;line-height:14px;fill:#666;" y="350" x="479.6428571428571"><tspan x="479.6428571428571">1931</tspan></text><text opacity="1" text-anchor="middle" style="font-family:'lucida grande', 'lucida sans unicode', verdana, arial, helvetica, sans-serif;font-size:11px;color:#666;cursor:default;line-height:14px;fill:#666;" y="350" x="553.2142857142858"><tspan x="553.2142857142858">1937</tspan></text></g><g  class="highcharts-axis-labels"><text opacity="1" text-anchor="end" style="font-family:'lucida grande', 'lucida sans unicode', verdana, arial, helvetica, sans-serif;font-size:11px;color:#666;cursor:default;line-height:14px;fill:#666;" y="341.25" x="67"><tspan x="67">0</tspan></text><text opacity="1" text-anchor="end" style="font-family:'lucida grande', 'lucida sans unicode', verdana, arial, helvetica, sans-serif;font-size:11px;color:#666;cursor:default;line-height:14px;fill:#666;" y="295.25" x="67"><tspan x="67">250</tspan></text><text opacity="1" text-anchor="end" style="font-family:'lucida grande', 'lucida sans unicode', verdana, arial, helvetica, sans-serif;font-size:11px;color:#666;cursor:default;line-height:14px;fill:#666;" y="249.25" x="67"><tspan x="67">500</tspan></text><text opacity="1" text-anchor="end" style="font-family:'lucida grande', 'lucida sans unicode', verdana, arial, helvetica, sans-serif;font-size:11px;color:#666;cursor:default;line-height:14px;fill:#666;" y="203.25" x="67"><tspan x="67">750</tspan></text><text opacity="1" text-anchor="end" style="font-family:'lucida grande', 'lucida sans unicode', verdana, arial, helvetica, sans-serif;font-size:11px;color:#666;cursor:default;line-height:14px;fill:#666;" y="157.25" x="67"><tspan x="67">1,000</tspan></text><text opacity="1" text-anchor="end" style="font-family:'lucida grande', 'lucida sans unicode', verdana, arial, helvetica, sans-serif;font-size:11px;color:#666;cursor:default;line-height:14px;fill:#666;" y="111.25" x="67"><tspan x="67">1,250</tspan></text><text opacity="1" text-anchor="end" style="font-family:'lucida grande', 'lucida sans unicode', verdana, arial, helvetica, sans-serif;font-size:11px;color:#666;cursor:default;line-height:14px;fill:#666;" y="65.25" x="67"><tspan x="67">1,500</tspan></text></g><g transform="translate(0,-999)" style="cursor:default;padding:0;white-space:nowrap;"  class="highcharts-tooltip"><rect transform="translate(1, 1)" stroke-width="5" stroke-opacity="0.049999999999999996" stroke="black"  fill-opacity="0.85" height="16" width="16" y="0.5" x="0.5" fill="none" ry="3" rx="3"></rect><rect transform="translate(1, 1)" stroke-width="3" stroke-opacity="0.09999999999999999" stroke="black"  fill-opacity="0.85" height="16" width="16" y="0.5" x="0.5" fill="none" ry="3" rx="3"></rect><rect transform="translate(1, 1)" stroke-width="1" stroke-opacity="0.15" stroke="black"  fill-opacity="0.85" height="16" width="16" y="0.5" x="0.5" fill="none" ry="3" rx="3"></rect><rect fill-opacity="0.85" height="16" width="16" y="0.5" x="0.5" fill="rgb(255,255,255)" ry="3" rx="3"></rect><text  style="font-family:'lucida grande', 'lucida sans unicode', verdana, arial, helvetica, sans-serif;font-size:12px;color:#333333;fill:#333333;" y="21" x="8"></text></g></svg>