<?xml version="1.0" standalone="no"?><!DOCTYPE svg PUBLIC "-//W3C//DTD SVG 1.1//EN" "http://www.w3.org/Graphics/SVG/1.1/DTD/svg11.dtd"><svg xmlns:xlink="http://www.w3.org/1999/xlink" height="400" width="600" xmlns="http://www.w3.org/2000/svg" version="1.1"><desc>Created with Highcharts 3.0.7</desc><defs><clipPath id="highcharts-5"><rect height="220" width="525" y="0" x="0" fill="none"></rect></clipPath></defs><rect height="400" width="600" y="0" x="0" fill="#FFFFFF" ry="0" rx="0"></rect><g  class="highcharts-grid"></g><g  class="highcharts-grid"><path opacity="1"  stroke-width="1" stroke="#C0C0C0" d="M 65 225.5 L 590 225.5" fill="none"></path><path opacity="1"  stroke-width="1" stroke="#C0C0C0" d="M 65 170.5 L 590 170.5" fill="none"></path><path opacity="1"  stroke-width="1" stroke="#C0C0C0" d="M 65 115.5 L 590 115.5" fill="none"></path><path opacity="1"  stroke-width="1" stroke="#C0C0C0" d="M 65 60.5 L 590 60.5" fill="none"></path><path opacity="1"  stroke-width="1" stroke="#C0C0C0" d="M 65 280.5 L 590 280.5" fill="none"></path></g><g  class="highcharts-axis"><path opacity="1" stroke-width="1" stroke="#C0D0E0" d="M 195.5 280 L 195.5 285" fill="none"></path><path opacity="1" stroke-width="1" stroke="#C0D0E0" d="M 261.5 280 L 261.5 285" fill="none"></path><path opacity="1" stroke-width="1" stroke="#C0D0E0" d="M 327.5 280 L 327.5 285" fill="none"></path><path opacity="1" stroke-width="1" stroke="#C0D0E0" d="M 392.5 280 L 392.5 285" fill="none"></path><path opacity="1" stroke-width="1" stroke="#C0D0E0" d="M 458.5 280 L 458.5 285" fill="none"></path><path opacity="1" stroke-width="1" stroke="#C0D0E0" d="M 523.5 280 L 523.5 285" fill="none"></path><path opacity="1" stroke-width="1" stroke="#C0D0E0" d="M 590.5 280 L 590.5 285" fill="none"></path><path opacity="1" stroke-width="1" stroke="#C0D0E0" d="M 130.5 280 L 130.5 285" fill="none"></path><path stroke-width="1" stroke="#C0D0E0" d="M 64.5 280 L 64.5 285" fill="none"></path><path visibility="visible"  stroke-width="1" stroke="#C0D0E0" d="M 65 280.5 L 590 280.5" fill="none"></path></g><g  class="highcharts-axis"><text visibility="visible" transform="translate(0,0) rotate(270 25.149999618530273 170)" text-anchor="middle"  style="font-family:'lucida grande', 'lucida sans unicode', verdana, arial, helvetica, sans-serif;font-size:12px;color:#4d759e;font-weight:bold;fill:#4d759e;" y="170" x="25.149999618530273"><tspan x="25.149999618530273">Odstotki</tspan></text></g><g  class="highcharts-series-group"><g clip-path="url(#highcharts-5)" style="" transform="translate(65,60) scale(1 1)"  visibility="visible" class="highcharts-series highcharts-tracker"><rect ry="0" rx="0" stroke-width="1" stroke="#FFFFFF" height="47" width="32" y="-0.5" x="16.5" fill="#2f7ed8"></rect><rect ry="0" rx="0" stroke-width="1" stroke="#FFFFFF" height="175" width="32" y="-0.5" x="82.5" fill="#2f7ed8"></rect><rect ry="0" rx="0" stroke-width="1" stroke="#FFFFFF" height="63" width="32" y="-0.5" x="147.5" fill="#2f7ed8"></rect><rect ry="0" rx="0" stroke-width="1" stroke="#FFFFFF" height="215" width="32" y="-0.5" x="213.5" fill="#2f7ed8"></rect><rect ry="0" rx="0" stroke-width="1" stroke="#FFFFFF" height="213" width="32" y="-0.5" x="279.5" fill="#2f7ed8"></rect><rect ry="0" rx="0" stroke-width="1" stroke="#FFFFFF" height="221" width="32" y="-0.5" x="344.5" fill="#2f7ed8"></rect><rect ry="0" rx="0" stroke-width="1" stroke="#FFFFFF" height="202" width="32" y="-0.5" x="410.5" fill="#2f7ed8"></rect><rect ry="0" rx="0" stroke-width="1" stroke="#FFFFFF" height="221" width="32" y="-0.5" x="475.5" fill="#2f7ed8"></rect></g><g clip-path="none" transform="translate(65,60) scale(1 1)"  visibility="visible" class="highcharts-markers"></g><g clip-path="url(#highcharts-5)" style="" transform="translate(65,60) scale(1 1)"  visibility="visible" class="highcharts-series highcharts-tracker"><rect ry="0" rx="0" stroke-width="1" stroke="#FFFFFF" height="174" width="32" y="46.5" x="16.5" fill="#0d233a"></rect><rect ry="0" rx="0" stroke-width="1" stroke="#FFFFFF" height="46" width="32" y="174.5" x="82.5" fill="#0d233a"></rect><rect ry="0" rx="0" stroke-width="1" stroke="#FFFFFF" height="158" width="32" y="62.5" x="147.5" fill="#0d233a"></rect><rect ry="0" rx="0" stroke-width="1" stroke="#FFFFFF" height="6" width="32" y="214.5" x="213.5" fill="#0d233a"></rect><rect ry="0" rx="0" stroke-width="1" stroke="#FFFFFF" height="8" width="32" y="212.5" x="279.5" fill="#0d233a"></rect><rect ry="0" rx="0" stroke-width="1" stroke="#FFFFFF" height="0" width="32" y="220.5" x="344.5" fill="#0d233a"></rect><rect ry="0" rx="0" stroke-width="1" stroke="#FFFFFF" height="19" width="32" y="201.5" x="410.5" fill="#0d233a"></rect><rect ry="0" rx="0" stroke-width="1" stroke="#FFFFFF" height="0" width="32" y="220.5" x="475.5" fill="#0d233a"></rect></g><g clip-path="none" transform="translate(65,60) scale(1 1)"  visibility="visible" class="highcharts-markers"></g></g><text  class="highcharts-title" text-anchor="middle" style="font-family:'lucida grande', 'lucida sans unicode', verdana, arial, helvetica, sans-serif;font-size:16px;color:#274b6d;fill:#274b6d;" y="25" x="300"><tspan x="300">Deleži judovskih in ostalih civilnih žrtev druge svetovne vojne v</tspan><tspan x="300" dy="16">Sloveniji glede na spol; v %</tspan></text><g transform="translate(231,359)"  class="highcharts-legend"><rect visibility="visible" stroke-width="1" stroke="#909090" height="25" width="136" y="0.5" x="0.5" fill="none" ry="5" rx="5"></rect><g ><g><g transform="translate(8,3)"  class="highcharts-legend-item"><text  text-anchor="start" style="font-family:'lucida grande', 'lucida sans unicode', verdana, arial, helvetica, sans-serif;font-size:12px;cursor:pointer;color:#274b6d;fill:#274b6d;" y="15" x="21"><tspan x="21">civilisti</tspan></text><rect  height="12" width="16" y="4" x="0" fill="#2f7ed8" ry="2" rx="2"></rect></g><g transform="translate(78.26666641235352,3)"  class="highcharts-legend-item"><text  text-anchor="start" style="font-family:'lucida grande', 'lucida sans unicode', verdana, arial, helvetica, sans-serif;font-size:12px;cursor:pointer;color:#274b6d;fill:#274b6d;" y="15" x="21"><tspan x="21">borci</tspan></text><rect  height="12" width="16" y="4" x="0" fill="#0d233a" ry="2" rx="2"></rect></g></g></g></g><g  class="highcharts-axis-labels"><text opacity="1" text-anchor="middle" style="font-family:'lucida grande', 'lucida sans unicode', verdana, arial, helvetica, sans-serif;font-size:11px;color:#666;cursor:default;line-height:14px;fill:#666;" y="294" x="97.8125"><tspan x="97.8125">Slovenija</tspan><tspan x="97.8125" dy="14">(moški)</tspan></text><text opacity="1" text-anchor="middle" style="font-family:'lucida grande', 'lucida sans unicode', verdana, arial, helvetica, sans-serif;font-size:11px;color:#666;cursor:default;line-height:14px;fill:#666;" y="294" x="163.4375"><tspan x="163.4375">Slovenija</tspan><tspan x="163.4375" dy="14">(ženske)</tspan></text><text opacity="1" text-anchor="middle" style="font-family:'lucida grande', 'lucida sans unicode', verdana, arial, helvetica, sans-serif;font-size:11px;color:#666;cursor:default;line-height:14px;fill:#666;" y="294" x="229.0625"><tspan x="229.0625">Prekmurje</tspan><tspan x="229.0625" dy="14">(Slovenci</tspan><tspan x="229.0625" dy="14">moški)</tspan></text><text opacity="1" text-anchor="middle" style="font-family:'lucida grande', 'lucida sans unicode', verdana, arial, helvetica, sans-serif;font-size:11px;color:#666;cursor:default;line-height:14px;fill:#666;" y="294" x="294.6875"><tspan x="294.6875">Prekmurje</tspan><tspan x="294.6875" dy="14">(Slovenci</tspan><tspan x="294.6875" dy="14">ženske)</tspan></text><text opacity="1" text-anchor="middle" style="font-family:'lucida grande', 'lucida sans unicode', verdana, arial, helvetica, sans-serif;font-size:11px;color:#666;cursor:default;line-height:14px;fill:#666;" y="294" x="360.3125"><tspan x="360.3125">Prekmurje</tspan><tspan x="360.3125" dy="14">(Judje</tspan><tspan x="360.3125" dy="14">moški)</tspan></text><text opacity="1" text-anchor="middle" style="font-family:'lucida grande', 'lucida sans unicode', verdana, arial, helvetica, sans-serif;font-size:11px;color:#666;cursor:default;line-height:14px;fill:#666;" y="294" x="425.9375"><tspan x="425.9375">Prekmurje</tspan><tspan x="425.9375" dy="14">(Judje</tspan><tspan x="425.9375" dy="14">ženske)</tspan></text><text opacity="1" text-anchor="middle" style="font-family:'lucida grande', 'lucida sans unicode', verdana, arial, helvetica, sans-serif;font-size:11px;color:#666;cursor:default;line-height:14px;fill:#666;" y="294" x="491.5625"><tspan x="491.5625">Slovenija</tspan><tspan x="491.5625" dy="14">brez</tspan><tspan x="491.5625" dy="14">Prekmurja</tspan><tspan x="491.5625" dy="14">(Judje</tspan><tspan x="491.5625" dy="14">moški)</tspan></text><text opacity="1" text-anchor="middle" style="font-family:'lucida grande', 'lucida sans unicode', verdana, arial, helvetica, sans-serif;font-size:11px;color:#666;cursor:default;line-height:14px;fill:#666;" y="294" x="557.1875"><tspan x="557.1875">Slovenija</tspan><tspan x="557.1875" dy="14">brez</tspan><tspan x="557.1875" dy="14">Prekmurja</tspan><tspan x="557.1875" dy="14">(Judje</tspan><tspan x="557.1875" dy="14">ženske)</tspan></text></g><g  class="highcharts-axis-labels"><text opacity="1" text-anchor="end" style="font-family:'lucida grande', 'lucida sans unicode', verdana, arial, helvetica, sans-serif;font-size:11px;color:#666;cursor:default;line-height:14px;fill:#666;" y="285.25" x="57"><tspan x="57">0</tspan></text><text opacity="1" text-anchor="end" style="font-family:'lucida grande', 'lucida sans unicode', verdana, arial, helvetica, sans-serif;font-size:11px;color:#666;cursor:default;line-height:14px;fill:#666;" y="65.24999999999997" x="57"><tspan x="57">100</tspan></text><text opacity="1" text-anchor="end" style="font-family:'lucida grande', 'lucida sans unicode', verdana, arial, helvetica, sans-serif;font-size:11px;color:#666;cursor:default;line-height:14px;fill:#666;" y="230.25" x="57"><tspan x="57">25</tspan></text><text opacity="1" text-anchor="end" style="font-family:'lucida grande', 'lucida sans unicode', verdana, arial, helvetica, sans-serif;font-size:11px;color:#666;cursor:default;line-height:14px;fill:#666;" y="175.25" x="57"><tspan x="57">50</tspan></text><text opacity="1" text-anchor="end" style="font-family:'lucida grande', 'lucida sans unicode', verdana, arial, helvetica, sans-serif;font-size:11px;color:#666;cursor:default;line-height:14px;fill:#666;" y="120.25" x="57"><tspan x="57">75</tspan></text></g><g transform="translate(0,-999)" style="cursor:default;padding:0;white-space:nowrap;"  class="highcharts-tooltip"><rect transform="translate(1, 1)" stroke-width="5" stroke-opacity="0.049999999999999996" stroke="black"  fill-opacity="0.85" height="16" width="16" y="0.5" x="0.5" fill="none" ry="3" rx="3"></rect><rect transform="translate(1, 1)" stroke-width="3" stroke-opacity="0.09999999999999999" stroke="black"  fill-opacity="0.85" height="16" width="16" y="0.5" x="0.5" fill="none" ry="3" rx="3"></rect><rect transform="translate(1, 1)" stroke-width="1" stroke-opacity="0.15" stroke="black"  fill-opacity="0.85" height="16" width="16" y="0.5" x="0.5" fill="none" ry="3" rx="3"></rect><rect fill-opacity="0.85" height="16" width="16" y="0.5" x="0.5" fill="rgb(255,255,255)" ry="3" rx="3"></rect><text  style="font-family:'lucida grande', 'lucida sans unicode', verdana, arial, helvetica, sans-serif;font-size:12px;color:#333333;fill:#333333;" y="21" x="8"></text></g></svg>