<?xml version="1.0" standalone="no"?><!DOCTYPE svg PUBLIC "-//W3C//DTD SVG 1.1//EN" "http://www.w3.org/Graphics/SVG/1.1/DTD/svg11.dtd"><svg xmlns:xlink="http://www.w3.org/1999/xlink" height="400" width="600" xmlns="http://www.w3.org/2000/svg" version="1.1"><desc>Created with Highcharts 3.0.7</desc><defs><clipPath id="highcharts-7"><rect height="276" width="525" y="0" x="0" fill="none"></rect></clipPath></defs><rect height="400" width="600" y="0" x="0" fill="#FFFFFF" ry="0" rx="0"></rect><g  class="highcharts-grid"></g><g  class="highcharts-grid"><path opacity="1"  stroke-width="1" stroke="#C0C0C0" d="M 65 267.5 L 590 267.5" fill="none"></path><path opacity="1"  stroke-width="1" stroke="#C0C0C0" d="M 65 198.5 L 590 198.5" fill="none"></path><path opacity="1"  stroke-width="1" stroke="#C0C0C0" d="M 65 129.5 L 590 129.5" fill="none"></path><path opacity="1"  stroke-width="1" stroke="#C0C0C0" d="M 65 59.5 L 590 59.5" fill="none"></path><path opacity="1"  stroke-width="1" stroke="#C0C0C0" d="M 65 336.5 L 590 336.5" fill="none"></path></g><g  class="highcharts-axis"><path opacity="1" stroke-width="1" stroke="#C0D0E0" d="M 177.5 336 L 177.5 341" fill="none"></path><path opacity="1" stroke-width="1" stroke="#C0D0E0" d="M 252.5 336 L 252.5 341" fill="none"></path><path opacity="1" stroke-width="1" stroke="#C0D0E0" d="M 327.5 336 L 327.5 341" fill="none"></path><path opacity="1" stroke-width="1" stroke="#C0D0E0" d="M 402.5 336 L 402.5 341" fill="none"></path><path opacity="1" stroke-width="1" stroke="#C0D0E0" d="M 477.5 336 L 477.5 341" fill="none"></path><path opacity="1" stroke-width="1" stroke="#C0D0E0" d="M 552.5 336 L 552.5 341" fill="none"></path><path opacity="1" stroke-width="1" stroke="#C0D0E0" d="M 102.5 336 L 102.5 341" fill="none"></path><path visibility="visible"  stroke-width="1" stroke="#C0D0E0" d="M 65 336.5 L 590 336.5" fill="none"></path></g><g  class="highcharts-axis"><text visibility="visible" transform="translate(0,0) rotate(270 25.149999618530273 198)" text-anchor="middle"  style="font-family:'lucida grande', 'lucida sans unicode', verdana, arial, helvetica, sans-serif;font-size:12px;color:#4d759e;font-weight:bold;fill:#4d759e;" y="198" x="25.149999618530273"><tspan x="25.149999618530273">Odstotki</tspan></text></g><g  class="highcharts-series-group"><g clip-path="url(#highcharts-7)" transform="translate(65,60) scale(1 1)"  visibility="visible" class="highcharts-series"><path  fill-opacity="0.75" d="M 37.5 0 L 112.5 0 L 187.5 0 L 262.5 0 L 337.5 0 L 412.5 0 L 487.5 0 487.5 80.27700831024853 412.5 85.04651162790671 337.5 86.69230769230657 262.5 74.37125748502959 187.5 81.42857142857116 112.5 72.68327402135304 37.5 87.76569037656816" fill="rgb(47,126,216)"></path><path stroke-linecap="round" stroke-linejoin="round"  stroke-width="1" stroke="#ffffff" d="M 37.5 0 L 112.5 0 L 187.5 0 L 262.5 0 L 337.5 0 L 412.5 0 L 487.5 0" fill="none"></path><path style="" class=" highcharts-tracker"  stroke-width="21" stroke="rgb(192,192,192)" stroke-opacity="0.0001" visibility="visible" stroke-linejoin="round" d="M 27.5 0 L 37.5 0 L 112.5 0 L 187.5 0 L 262.5 0 L 337.5 0 L 412.5 0 L 487.5 0 L 497.5 0" fill="none"></path></g><g clip-path="none" style="" transform="translate(65,60) scale(1 1)"  visibility="visible" class="highcharts-markers highcharts-tracker"><path stroke-width="1" stroke="#ffffff" d="M 487 -4 C 492.328 -4 492.328 4 487 4 C 481.672 4 481.672 -4 487 -4 Z" fill="#2f7ed8"></path><path stroke-width="1" stroke="#ffffff" d="M 412 -4 C 417.328 -4 417.328 4 412 4 C 406.672 4 406.672 -4 412 -4 Z" fill="#2f7ed8"></path><path stroke-width="1" stroke="#ffffff" d="M 337 -4 C 342.328 -4 342.328 4 337 4 C 331.672 4 331.672 -4 337 -4 Z" fill="#2f7ed8"></path><path stroke-width="1" stroke="#ffffff" d="M 262 -4 C 267.328 -4 267.328 4 262 4 C 256.672 4 256.672 -4 262 -4 Z" fill="#2f7ed8"></path><path stroke-width="1" stroke="#ffffff" d="M 187 -4 C 192.328 -4 192.328 4 187 4 C 181.672 4 181.672 -4 187 -4 Z" fill="#2f7ed8"></path><path stroke-width="1" stroke="#ffffff" d="M 112 -4 C 117.328 -4 117.328 4 112 4 C 106.672 4 106.672 -4 112 -4 Z" fill="#2f7ed8"></path><path stroke-width="1" stroke="#ffffff" d="M 37 -4 C 42.328 -4 42.328 4 37 4 C 31.672 4 31.672 -4 37 -4 Z" fill="#2f7ed8"></path></g><g clip-path="url(#highcharts-7)" transform="translate(65,60) scale(1 1)"  visibility="visible" class="highcharts-series"><path  fill-opacity="0.75" d="M 37.5 87.76569037656816 L 112.5 72.68327402135304 L 187.5 81.42857142857116 L 262.5 74.37125748502959 L 337.5 86.69230769230657 L 412.5 85.04651162790671 L 487.5 80.27700831024853 487.5 96.3324099722999 412.5 109.11627906976682 337.5 109.69230769230842 262.5 95.02994011976077 187.5 101.14285714285646 112.5 78.57651245551682 37.5 99.31380753137978" fill="rgb(13,35,58)"></path><path stroke-linecap="round" stroke-linejoin="round"  stroke-width="1" stroke="#ffffff" d="M 37.5 87.76569037656816 L 112.5 72.68327402135304 L 187.5 81.42857142857116 L 262.5 74.37125748502959 L 337.5 86.69230769230657 L 412.5 85.04651162790671 L 487.5 80.27700831024853" fill="none"></path><path style="" class=" highcharts-tracker"  stroke-width="21" stroke="rgb(192,192,192)" stroke-opacity="0.0001" visibility="visible" stroke-linejoin="round" d="M 27.5 87.76569037656816 L 37.5 87.76569037656816 L 112.5 72.68327402135304 L 187.5 81.42857142857116 L 262.5 74.37125748502959 L 337.5 86.69230769230657 L 412.5 85.04651162790671 L 487.5 80.27700831024853 L 497.5 80.27700831024853" fill="none"></path></g><g clip-path="none" style="" transform="translate(65,60) scale(1 1)"  visibility="visible" class="highcharts-markers highcharts-tracker"><path stroke-width="1" stroke="#ffffff" d="M 487 76.27700831024853 L 491 80.27700831024853 487 84.27700831024853 483 80.27700831024853 Z" fill="#0d233a"></path><path stroke-width="1" stroke="#ffffff" d="M 412 81.04651162790671 L 416 85.04651162790671 412 89.04651162790671 408 85.04651162790671 Z" fill="#0d233a"></path><path stroke-width="1" stroke="#ffffff" d="M 337 82.69230769230657 L 341 86.69230769230657 337 90.69230769230657 333 86.69230769230657 Z" fill="#0d233a"></path><path stroke-width="1" stroke="#ffffff" d="M 262 70.37125748502959 L 266 74.37125748502959 262 78.37125748502959 258 74.37125748502959 Z" fill="#0d233a"></path><path stroke-width="1" stroke="#ffffff" d="M 187 77.42857142857116 L 191 81.42857142857116 187 85.42857142857116 183 81.42857142857116 Z" fill="#0d233a"></path><path stroke-width="1" stroke="#ffffff" d="M 112 68.68327402135304 L 116 72.68327402135304 112 76.68327402135304 108 72.68327402135304 Z" fill="#0d233a"></path><path stroke-width="1" stroke="#ffffff" d="M 37 83.76569037656816 L 41 87.76569037656816 37 91.76569037656816 33 87.76569037656816 Z" fill="#0d233a"></path></g><g clip-path="url(#highcharts-7)" transform="translate(65,60) scale(1 1)"  visibility="visible" class="highcharts-series"><path  fill-opacity="0.75" d="M 37.5 99.31380753137978 L 112.5 78.57651245551682 L 187.5 101.14285714285646 L 262.5 95.02994011976077 L 337.5 109.69230769230842 L 412.5 109.11627906976682 L 487.5 96.3324099722999 487.5 118.50415512465469 412.5 134.7906976744198 337.5 134.46153846153925 262.5 125.6047904191613 187.5 132.8571428571431 112.5 131.61565836299064 37.5 146.6610878661101" fill="rgb(139,188,33)"></path><path stroke-linecap="round" stroke-linejoin="round"  stroke-width="1" stroke="#ffffff" d="M 37.5 99.31380753137978 L 112.5 78.57651245551682 L 187.5 101.14285714285646 L 262.5 95.02994011976077 L 337.5 109.69230769230842 L 412.5 109.11627906976682 L 487.5 96.3324099722999" fill="none"></path><path style="" class=" highcharts-tracker"  stroke-width="21" stroke="rgb(192,192,192)" stroke-opacity="0.0001" visibility="visible" stroke-linejoin="round" d="M 27.5 99.31380753137978 L 37.5 99.31380753137978 L 112.5 78.57651245551682 L 187.5 101.14285714285646 L 262.5 95.02994011976077 L 337.5 109.69230769230842 L 412.5 109.11627906976682 L 487.5 96.3324099722999 L 497.5 96.3324099722999" fill="none"></path></g><g clip-path="none" style="" transform="translate(65,60) scale(1 1)"  visibility="visible" class="highcharts-markers highcharts-tracker"><path stroke-width="1" stroke="#ffffff" d="M 483 92.3324099722999 L 491 92.3324099722999 491 100.3324099722999 483 100.3324099722999 Z" fill="#8bbc21"></path><path stroke-width="1" stroke="#ffffff" d="M 408 105.11627906976682 L 416 105.11627906976682 416 113.11627906976682 408 113.11627906976682 Z" fill="#8bbc21"></path><path stroke-width="1" stroke="#ffffff" d="M 333 105.69230769230842 L 341 105.69230769230842 341 113.69230769230842 333 113.69230769230842 Z" fill="#8bbc21"></path><path stroke-width="1" stroke="#ffffff" d="M 258 91.02994011976077 L 266 91.02994011976077 266 99.02994011976077 258 99.02994011976077 Z" fill="#8bbc21"></path><path stroke-width="1" stroke="#ffffff" d="M 183 97.14285714285646 L 191 97.14285714285646 191 105.14285714285646 183 105.14285714285646 Z" fill="#8bbc21"></path><path stroke-width="1" stroke="#ffffff" d="M 108 74.57651245551682 L 116 74.57651245551682 116 82.57651245551682 108 82.57651245551682 Z" fill="#8bbc21"></path><path stroke-width="1" stroke="#ffffff" d="M 33 95.31380753137978 L 41 95.31380753137978 41 103.31380753137978 33 103.31380753137978 Z" fill="#8bbc21"></path></g><g clip-path="url(#highcharts-7)" transform="translate(65,60) scale(1 1)"  visibility="visible" class="highcharts-series"><path  fill-opacity="0.75" d="M 37.5 146.6610878661101 L 112.5 131.61565836299064 L 187.5 132.8571428571431 L 262.5 125.6047904191613 L 337.5 134.46153846153925 L 412.5 134.7906976744198 L 487.5 118.50415512465469 487.5 170.49307479224495 412.5 199.7790697674431 337.5 191.07692307692244 262.5 180.14371257484945 187.5 185.99999999999977 112.5 194.47686832740132 37.5 189.38912133891301" fill="rgb(145,0,0)"></path><path stroke-linecap="round" stroke-linejoin="round"  stroke-width="1" stroke="#ffffff" d="M 37.5 146.6610878661101 L 112.5 131.61565836299064 L 187.5 132.8571428571431 L 262.5 125.6047904191613 L 337.5 134.46153846153925 L 412.5 134.7906976744198 L 487.5 118.50415512465469" fill="none"></path><path style="" class=" highcharts-tracker"  stroke-width="21" stroke="rgb(192,192,192)" stroke-opacity="0.0001" visibility="visible" stroke-linejoin="round" d="M 27.5 146.6610878661101 L 37.5 146.6610878661101 L 112.5 131.61565836299064 L 187.5 132.8571428571431 L 262.5 125.6047904191613 L 337.5 134.46153846153925 L 412.5 134.7906976744198 L 487.5 118.50415512465469 L 497.5 118.50415512465469" fill="none"></path></g><g clip-path="none" style="" transform="translate(65,60) scale(1 1)"  visibility="visible" class="highcharts-markers highcharts-tracker"><path stroke-width="1" stroke="#ffffff" d="M 487 114.50415512465469 L 491 122.50415512465469 483 122.50415512465469 Z" fill="#910000"></path><path stroke-width="1" stroke="#ffffff" d="M 412 130.7906976744198 L 416 138.7906976744198 408 138.7906976744198 Z" fill="#910000"></path><path stroke-width="1" stroke="#ffffff" d="M 337 130.46153846153925 L 341 138.46153846153925 333 138.46153846153925 Z" fill="#910000"></path><path stroke-width="1" stroke="#ffffff" d="M 262 121.6047904191613 L 266 129.6047904191613 258 129.6047904191613 Z" fill="#910000"></path><path stroke-width="1" stroke="#ffffff" d="M 187 128.8571428571431 L 191 136.8571428571431 183 136.8571428571431 Z" fill="#910000"></path><path stroke-width="1" stroke="#ffffff" d="M 112 127.61565836299064 L 116 135.61565836299064 108 135.61565836299064 Z" fill="#910000"></path><path stroke-width="1" stroke="#ffffff" d="M 37 142.6610878661101 L 41 150.6610878661101 33 150.6610878661101 Z" fill="#910000"></path></g><g clip-path="url(#highcharts-7)" transform="translate(65,60) scale(1 1)"  visibility="visible" class="highcharts-series"><path  fill-opacity="0.75" d="M 37.5 189.38912133891301 L 112.5 194.47686832740132 L 187.5 185.99999999999977 L 262.5 180.14371257484945 L 337.5 191.07692307692244 L 412.5 199.7790697674431 L 487.5 170.49307479224495 487.5 276 412.5 276 337.5 276 262.5 276 187.5 276 112.5 276 37.5 276" fill="rgb(26,173,206)"></path><path stroke-linecap="round" stroke-linejoin="round"  stroke-width="1" stroke="#ffffff" d="M 37.5 189.38912133891301 L 112.5 194.47686832740132 L 187.5 185.99999999999977 L 262.5 180.14371257484945 L 337.5 191.07692307692244 L 412.5 199.7790697674431 L 487.5 170.49307479224495" fill="none"></path><path style="" class=" highcharts-tracker"  stroke-width="21" stroke="rgb(192,192,192)" stroke-opacity="0.0001" visibility="visible" stroke-linejoin="round" d="M 27.5 189.38912133891301 L 37.5 189.38912133891301 L 112.5 194.47686832740132 L 187.5 185.99999999999977 L 262.5 180.14371257484945 L 337.5 191.07692307692244 L 412.5 199.7790697674431 L 487.5 170.49307479224495 L 497.5 170.49307479224495" fill="none"></path></g><g clip-path="none" style="" transform="translate(65,60) scale(1 1)"  visibility="visible" class="highcharts-markers highcharts-tracker"><path stroke-width="1" stroke="#ffffff" d="M 483 166.49307479224495 L 491 166.49307479224495 487 174.49307479224495 Z" fill="#1aadce"></path><path stroke-width="1" stroke="#ffffff" d="M 408 195.7790697674431 L 416 195.7790697674431 412 203.7790697674431 Z" fill="#1aadce"></path><path stroke-width="1" stroke="#ffffff" d="M 333 187.07692307692244 L 341 187.07692307692244 337 195.07692307692244 Z" fill="#1aadce"></path><path stroke-width="1" stroke="#ffffff" d="M 258 176.14371257484945 L 266 176.14371257484945 262 184.14371257484945 Z" fill="#1aadce"></path><path stroke-width="1" stroke="#ffffff" d="M 183 181.99999999999977 L 191 181.99999999999977 187 189.99999999999977 Z" fill="#1aadce"></path><path stroke-width="1" stroke="#ffffff" d="M 108 190.47686832740132 L 116 190.47686832740132 112 198.47686832740132 Z" fill="#1aadce"></path><path stroke-width="1" stroke="#ffffff" d="M 33 185.38912133891301 L 41 185.38912133891301 37 193.38912133891301 Z" fill="#1aadce"></path></g></g><text  class="highcharts-title" text-anchor="middle" style="font-family:'lucida grande', 'lucida sans unicode', verdana, arial, helvetica, sans-serif;font-size:16px;color:#274b6d;fill:#274b6d;" y="25" x="300"><tspan x="300">Prisotno judovsko prebivalstvo z ozemlja Dravske banovine brez</tspan><tspan x="300" dy="16">Prekmurja po večjih mestih (1880-1937)</tspan></text><g transform="translate(116,359)"  class="highcharts-legend"><rect visibility="visible" stroke-width="1" stroke="#909090" height="25" width="366" y="0.5" x="0.5" fill="none" ry="5" rx="5"></rect><g ><g><g transform="translate(8,3)"  class="highcharts-legend-item"><text  text-anchor="start" style="font-family:'lucida grande', 'lucida sans unicode', verdana, arial, helvetica, sans-serif;font-size:12px;cursor:pointer;color:#274b6d;fill:#274b6d;" y="15" x="21"><tspan x="21">ostali kraji</tspan></text><rect  height="12" width="16" y="4" x="0" fill="#2f7ed8" ry="2" rx="2"></rect></g><g transform="translate(98.95000076293945,3)"  class="highcharts-legend-item"><text  text-anchor="start" style="font-family:'lucida grande', 'lucida sans unicode', verdana, arial, helvetica, sans-serif;font-size:12px;cursor:pointer;color:#274b6d;fill:#274b6d;" y="15" x="21"><tspan x="21">Celje</tspan></text><rect  height="12" width="16" y="4" x="0" fill="#0d233a" ry="2" rx="2"></rect></g><g transform="translate(157.73333358764648,3)"  class="highcharts-legend-item"><text  text-anchor="start" style="font-family:'lucida grande', 'lucida sans unicode', verdana, arial, helvetica, sans-serif;font-size:12px;cursor:pointer;color:#274b6d;fill:#274b6d;" y="15" x="21"><tspan x="21">Ptuj</tspan></text><rect  height="12" width="16" y="4" x="0" fill="#8bbc21" ry="2" rx="2"></rect></g><g transform="translate(209.9166660308838,3)"  class="highcharts-legend-item"><text  text-anchor="start" style="font-family:'lucida grande', 'lucida sans unicode', verdana, arial, helvetica, sans-serif;font-size:12px;cursor:pointer;color:#274b6d;fill:#274b6d;" y="15" x="21"><tspan x="21">Maribor</tspan></text><rect  height="12" width="16" y="4" x="0" fill="#910000" ry="2" rx="2"></rect></g><g transform="translate(285.0500011444092,3)"  class="highcharts-legend-item"><text  text-anchor="start" style="font-family:'lucida grande', 'lucida sans unicode', verdana, arial, helvetica, sans-serif;font-size:12px;cursor:pointer;color:#274b6d;fill:#274b6d;" y="15" x="21"><tspan x="21">Ljubljana</tspan></text><rect  height="12" width="16" y="4" x="0" fill="#1aadce" ry="2" rx="2"></rect></g></g></g></g><g  class="highcharts-axis-labels"><text opacity="1" text-anchor="middle" style="font-family:'lucida grande', 'lucida sans unicode', verdana, arial, helvetica, sans-serif;font-size:11px;color:#666;cursor:default;line-height:14px;fill:#666;" y="350" x="102.5"><tspan x="102.5">1880</tspan></text><text opacity="1" text-anchor="middle" style="font-family:'lucida grande', 'lucida sans unicode', verdana, arial, helvetica, sans-serif;font-size:11px;color:#666;cursor:default;line-height:14px;fill:#666;" y="350" x="177.5"><tspan x="177.5">1890</tspan></text><text opacity="1" text-anchor="middle" style="font-family:'lucida grande', 'lucida sans unicode', verdana, arial, helvetica, sans-serif;font-size:11px;color:#666;cursor:default;line-height:14px;fill:#666;" y="350" x="252.5"><tspan x="252.5">1900</tspan></text><text opacity="1" text-anchor="middle" style="font-family:'lucida grande', 'lucida sans unicode', verdana, arial, helvetica, sans-serif;font-size:11px;color:#666;cursor:default;line-height:14px;fill:#666;" y="350" x="327.5"><tspan x="327.5">1910</tspan></text><text opacity="1" text-anchor="middle" style="font-family:'lucida grande', 'lucida sans unicode', verdana, arial, helvetica, sans-serif;font-size:11px;color:#666;cursor:default;line-height:14px;fill:#666;" y="350" x="402.5"><tspan x="402.5">1921</tspan></text><text opacity="1" text-anchor="middle" style="font-family:'lucida grande', 'lucida sans unicode', verdana, arial, helvetica, sans-serif;font-size:11px;color:#666;cursor:default;line-height:14px;fill:#666;" y="350" x="477.5"><tspan x="477.5">1931</tspan></text><text opacity="1" text-anchor="middle" style="font-family:'lucida grande', 'lucida sans unicode', verdana, arial, helvetica, sans-serif;font-size:11px;color:#666;cursor:default;line-height:14px;fill:#666;" y="350" x="552.5"><tspan x="552.5">1937</tspan></text></g><g  class="highcharts-axis-labels"><text opacity="1" text-anchor="end" style="font-family:'lucida grande', 'lucida sans unicode', verdana, arial, helvetica, sans-serif;font-size:11px;color:#666;cursor:default;line-height:14px;fill:#666;" y="341.25" x="57"><tspan x="57">0</tspan></text><text opacity="1" text-anchor="end" style="font-family:'lucida grande', 'lucida sans unicode', verdana, arial, helvetica, sans-serif;font-size:11px;color:#666;cursor:default;line-height:14px;fill:#666;" y="65.25" x="57"><tspan x="57">100</tspan></text><text opacity="1" text-anchor="end" style="font-family:'lucida grande', 'lucida sans unicode', verdana, arial, helvetica, sans-serif;font-size:11px;color:#666;cursor:default;line-height:14px;fill:#666;" y="272.25" x="57"><tspan x="57">25</tspan></text><text opacity="1" text-anchor="end" style="font-family:'lucida grande', 'lucida sans unicode', verdana, arial, helvetica, sans-serif;font-size:11px;color:#666;cursor:default;line-height:14px;fill:#666;" y="203.25" x="57"><tspan x="57">50</tspan></text><text opacity="1" text-anchor="end" style="font-family:'lucida grande', 'lucida sans unicode', verdana, arial, helvetica, sans-serif;font-size:11px;color:#666;cursor:default;line-height:14px;fill:#666;" y="134.25000000000003" x="57"><tspan x="57">75</tspan></text></g><g transform="translate(0,-999)" style="cursor:default;padding:0;white-space:nowrap;"  class="highcharts-tooltip"><rect transform="translate(1, 1)" stroke-width="5" stroke-opacity="0.049999999999999996" stroke="black"  fill-opacity="0.85" height="16" width="16" y="0.5" x="0.5" fill="none" ry="3" rx="3"></rect><rect transform="translate(1, 1)" stroke-width="3" stroke-opacity="0.09999999999999999" stroke="black"  fill-opacity="0.85" height="16" width="16" y="0.5" x="0.5" fill="none" ry="3" rx="3"></rect><rect transform="translate(1, 1)" stroke-width="1" stroke-opacity="0.15" stroke="black"  fill-opacity="0.85" height="16" width="16" y="0.5" x="0.5" fill="none" ry="3" rx="3"></rect><rect fill-opacity="0.85" height="16" width="16" y="0.5" x="0.5" fill="rgb(255,255,255)" ry="3" rx="3"></rect><text  style="font-family:'lucida grande', 'lucida sans unicode', verdana, arial, helvetica, sans-serif;font-size:12px;color:#333333;fill:#333333;" y="21" x="8"></text></g></svg>