<?xml version="1.0" standalone="no"?><!DOCTYPE svg PUBLIC "-//W3C//DTD SVG 1.1//EN" "http://www.w3.org/Graphics/SVG/1.1/DTD/svg11.dtd"><svg xmlns:xlink="http://www.w3.org/1999/xlink" height="400" width="600" xmlns="http://www.w3.org/2000/svg" version="1.1"><desc>Created with Highcharts 3.0.7</desc><defs><clipPath id="highcharts-5"><rect height="282" width="525" y="0" x="0" fill="none"></rect></clipPath></defs><rect height="400" width="600" y="0" x="0" fill="#FFFFFF" ry="0" rx="0"></rect><g  class="highcharts-grid"></g><g  class="highcharts-grid"><path opacity="1"  stroke-width="1" stroke="#C0C0C0" d="M 65 252.5 L 590 252.5" fill="none"></path><path opacity="1"  stroke-width="1" stroke="#C0C0C0" d="M 65 181.5 L 590 181.5" fill="none"></path><path opacity="1"  stroke-width="1" stroke="#C0C0C0" d="M 65 111.5 L 590 111.5" fill="none"></path><path opacity="1"  stroke-width="1" stroke="#C0C0C0" d="M 65 39.5 L 590 39.5" fill="none"></path><path opacity="1"  stroke-width="1" stroke="#C0C0C0" d="M 65 322.5 L 590 322.5" fill="none"></path></g><g  class="highcharts-axis"><path opacity="1" stroke-width="1" stroke="#C0D0E0" d="M 327.5 322 L 327.5 327" fill="none"></path><path opacity="1" stroke-width="1" stroke="#C0D0E0" d="M 458.5 322 L 458.5 327" fill="none"></path><path opacity="1" stroke-width="1" stroke="#C0D0E0" d="M 590.5 322 L 590.5 327" fill="none"></path><path opacity="1" stroke-width="1" stroke="#C0D0E0" d="M 195.5 322 L 195.5 327" fill="none"></path><path stroke-width="1" stroke="#C0D0E0" d="M 64.5 322 L 64.5 327" fill="none"></path><path visibility="visible"  stroke-width="1" stroke="#C0D0E0" d="M 65 322.5 L 590 322.5" fill="none"></path></g><g  class="highcharts-axis"><text visibility="visible" transform="translate(0,0) rotate(270 25.149999618530273 181)" text-anchor="middle"  style="font-family:'lucida grande', 'lucida sans unicode', verdana, arial, helvetica, sans-serif;font-size:12px;color:#4d759e;font-weight:bold;fill:#4d759e;" y="181" x="25.149999618530273"><tspan x="25.149999618530273">Odstotki</tspan></text></g><g  class="highcharts-series-group"><g clip-path="url(#highcharts-5)" style="" transform="translate(65,40) scale(1 1)"  visibility="visible" class="highcharts-series highcharts-tracker"><rect ry="0" rx="0" stroke-width="1" stroke="#FFFFFF" height="253" width="63" y="-0.5" x="33.5" fill="#2f7ed8"></rect><rect ry="0" rx="0" stroke-width="1" stroke="#FFFFFF" height="243" width="63" y="-0.5" x="164.5" fill="#2f7ed8"></rect><rect ry="0" rx="0" stroke-width="1" stroke="#FFFFFF" height="135" width="63" y="-0.5" x="296.5" fill="#2f7ed8"></rect><rect ry="0" rx="0" stroke-width="1" stroke="#FFFFFF" height="185" width="63" y="-0.5" x="427.5" fill="#2f7ed8"></rect></g><g clip-path="none" transform="translate(65,40) scale(1 1)"  visibility="visible" class="highcharts-markers"></g><g clip-path="url(#highcharts-5)" style="" transform="translate(65,40) scale(1 1)"  visibility="visible" class="highcharts-series highcharts-tracker"><rect ry="0" rx="0" stroke-width="1" stroke="#FFFFFF" height="30" width="63" y="252.5" x="33.5" fill="#0d233a"></rect><rect ry="0" rx="0" stroke-width="1" stroke="#FFFFFF" height="40" width="63" y="242.5" x="164.5" fill="#0d233a"></rect><rect ry="0" rx="0" stroke-width="1" stroke="#FFFFFF" height="148" width="63" y="134.5" x="296.5" fill="#0d233a"></rect><rect ry="0" rx="0" stroke-width="1" stroke="#FFFFFF" height="98" width="63" y="184.5" x="427.5" fill="#0d233a"></rect></g><g clip-path="none" transform="translate(65,40) scale(1 1)"  visibility="visible" class="highcharts-markers"></g></g><text  class="highcharts-title" text-anchor="middle" style="font-family:'lucida grande', 'lucida sans unicode', verdana, arial, helvetica, sans-serif;font-size:16px;color:#274b6d;fill:#274b6d;" y="25" x="300"><tspan x="300">Spol judovskih in ostalih žrtev druge svetovne vojne v Sloveniji; v %</tspan></text><g transform="translate(228,359)"  class="highcharts-legend"><rect visibility="visible" stroke-width="1" stroke="#909090" height="25" width="142" y="0.5" x="0.5" fill="none" ry="5" rx="5"></rect><g ><g><g transform="translate(8,3)"  class="highcharts-legend-item"><text  text-anchor="start" style="font-family:'lucida grande', 'lucida sans unicode', verdana, arial, helvetica, sans-serif;font-size:12px;cursor:pointer;color:#274b6d;fill:#274b6d;" y="15" x="21"><tspan x="21">moški</tspan></text><rect  height="12" width="16" y="4" x="0" fill="#2f7ed8" ry="2" rx="2"></rect></g><g transform="translate(73.1500015258789,3)"  class="highcharts-legend-item"><text  text-anchor="start" style="font-family:'lucida grande', 'lucida sans unicode', verdana, arial, helvetica, sans-serif;font-size:12px;cursor:pointer;color:#274b6d;fill:#274b6d;" y="15" x="21"><tspan x="21">ženske</tspan></text><rect  height="12" width="16" y="4" x="0" fill="#0d233a" ry="2" rx="2"></rect></g></g></g></g><g  class="highcharts-axis-labels"><text opacity="1" text-anchor="middle" style="font-family:'lucida grande', 'lucida sans unicode', verdana, arial, helvetica, sans-serif;font-size:11px;color:#666;cursor:default;line-height:14px;fill:#666;" y="336" x="130.625"><tspan x="130.625">Slovenija</tspan></text><text opacity="1" text-anchor="middle" style="font-family:'lucida grande', 'lucida sans unicode', verdana, arial, helvetica, sans-serif;font-size:11px;color:#666;cursor:default;line-height:14px;fill:#666;" y="336" x="261.875"><tspan x="261.875">Prekmurje (Slovenci)</tspan></text><text opacity="1" text-anchor="middle" style="font-family:'lucida grande', 'lucida sans unicode', verdana, arial, helvetica, sans-serif;font-size:11px;color:#666;cursor:default;line-height:14px;fill:#666;" y="336" x="393.125"><tspan x="393.125">Prekmurje (Judje)</tspan></text><text opacity="1" text-anchor="middle" style="font-family:'lucida grande', 'lucida sans unicode', verdana, arial, helvetica, sans-serif;font-size:11px;color:#666;cursor:default;line-height:14px;fill:#666;" y="336" x="524.375"><tspan x="524.375">Slovenija brez</tspan><tspan x="524.375" dy="14">Prekmurja (Judje)</tspan></text></g><g  class="highcharts-axis-labels"><text opacity="1" text-anchor="end" style="font-family:'lucida grande', 'lucida sans unicode', verdana, arial, helvetica, sans-serif;font-size:11px;color:#666;cursor:default;line-height:14px;fill:#666;" y="327.25" x="57"><tspan x="57">0</tspan></text><text opacity="1" text-anchor="end" style="font-family:'lucida grande', 'lucida sans unicode', verdana, arial, helvetica, sans-serif;font-size:11px;color:#666;cursor:default;line-height:14px;fill:#666;" y="45.25" x="57"><tspan x="57">100</tspan></text><text opacity="1" text-anchor="end" style="font-family:'lucida grande', 'lucida sans unicode', verdana, arial, helvetica, sans-serif;font-size:11px;color:#666;cursor:default;line-height:14px;fill:#666;" y="256.75" x="57"><tspan x="57">25</tspan></text><text opacity="1" text-anchor="end" style="font-family:'lucida grande', 'lucida sans unicode', verdana, arial, helvetica, sans-serif;font-size:11px;color:#666;cursor:default;line-height:14px;fill:#666;" y="186.25" x="57"><tspan x="57">50</tspan></text><text opacity="1" text-anchor="end" style="font-family:'lucida grande', 'lucida sans unicode', verdana, arial, helvetica, sans-serif;font-size:11px;color:#666;cursor:default;line-height:14px;fill:#666;" y="115.75" x="57"><tspan x="57">75</tspan></text></g><g transform="translate(0,-999)" style="cursor:default;padding:0;white-space:nowrap;"  class="highcharts-tooltip"><rect transform="translate(1, 1)" stroke-width="5" stroke-opacity="0.049999999999999996" stroke="black"  fill-opacity="0.85" height="16" width="16" y="0.5" x="0.5" fill="none" ry="3" rx="3"></rect><rect transform="translate(1, 1)" stroke-width="3" stroke-opacity="0.09999999999999999" stroke="black"  fill-opacity="0.85" height="16" width="16" y="0.5" x="0.5" fill="none" ry="3" rx="3"></rect><rect transform="translate(1, 1)" stroke-width="1" stroke-opacity="0.15" stroke="black"  fill-opacity="0.85" height="16" width="16" y="0.5" x="0.5" fill="none" ry="3" rx="3"></rect><rect fill-opacity="0.85" height="16" width="16" y="0.5" x="0.5" fill="rgb(255,255,255)" ry="3" rx="3"></rect><text  style="font-family:'lucida grande', 'lucida sans unicode', verdana, arial, helvetica, sans-serif;font-size:12px;color:#333333;fill:#333333;" y="21" x="8"></text></g></svg>