<?xml version="1.0" standalone="no"?><!DOCTYPE svg PUBLIC "-//W3C//DTD SVG 1.1//EN" "http://www.w3.org/Graphics/SVG/1.1/DTD/svg11.dtd"><svg xmlns:xlink="http://www.w3.org/1999/xlink" height="400" width="600" xmlns="http://www.w3.org/2000/svg" version="1.1"><desc>Created with Highcharts 3.0.7</desc><defs><clipPath id="highcharts-5"><rect height="175" width="525" y="0" x="0" fill="none"></rect></clipPath></defs><rect height="400" width="600" y="0" x="0" fill="#FFFFFF" ry="0" rx="0"></rect><g  class="highcharts-grid"></g><g  class="highcharts-grid"><path opacity="1"  stroke-width="1" stroke="#C0C0C0" d="M 65 148.5 L 590 148.5" fill="none"></path><path opacity="1"  stroke-width="1" stroke="#C0C0C0" d="M 65 59.5 L 590 59.5" fill="none"></path><path opacity="1"  stroke-width="1" stroke="#C0C0C0" d="M 65 235.5 L 590 235.5" fill="none"></path></g><g  class="highcharts-axis"><path opacity="1" stroke-width="1" stroke="#C0D0E0" d="M 195.5 235 L 195.5 240" fill="none"></path><path opacity="1" stroke-width="1" stroke="#C0D0E0" d="M 261.5 235 L 261.5 240" fill="none"></path><path opacity="1" stroke-width="1" stroke="#C0D0E0" d="M 327.5 235 L 327.5 240" fill="none"></path><path opacity="1" stroke-width="1" stroke="#C0D0E0" d="M 392.5 235 L 392.5 240" fill="none"></path><path opacity="1" stroke-width="1" stroke="#C0D0E0" d="M 458.5 235 L 458.5 240" fill="none"></path><path opacity="1" stroke-width="1" stroke="#C0D0E0" d="M 523.5 235 L 523.5 240" fill="none"></path><path opacity="1" stroke-width="1" stroke="#C0D0E0" d="M 590.5 235 L 590.5 240" fill="none"></path><path opacity="1" stroke-width="1" stroke="#C0D0E0" d="M 130.5 235 L 130.5 240" fill="none"></path><path stroke-width="1" stroke="#C0D0E0" d="M 64.5 235 L 64.5 240" fill="none"></path><path visibility="visible"  stroke-width="1" stroke="#C0D0E0" d="M 65 235.5 L 590 235.5" fill="none"></path></g><g  class="highcharts-axis"><text visibility="visible" transform="translate(0,0) rotate(270 25.149999618530273 147.5)" text-anchor="middle"  style="font-family:'lucida grande', 'lucida sans unicode', verdana, arial, helvetica, sans-serif;font-size:12px;color:#4d759e;font-weight:bold;fill:#4d759e;" y="147.5" x="25.149999618530273"><tspan x="25.149999618530273">Odstotki</tspan></text></g><g  class="highcharts-series-group"><g clip-path="url(#highcharts-5)" style="" transform="translate(65,60) scale(1 1)"  visibility="visible" class="highcharts-series highcharts-tracker"><rect ry="0" rx="0" stroke-width="1" stroke="#FFFFFF" height="51" width="32" y="-0.5" x="16.5" fill="#2f7ed8"></rect><rect ry="0" rx="0" stroke-width="1" stroke="#FFFFFF" height="12" width="32" y="-0.5" x="82.5" fill="#2f7ed8"></rect><rect ry="0" rx="0" stroke-width="1" stroke="#FFFFFF" height="24" width="32" y="-0.5" x="147.5" fill="#2f7ed8"></rect><rect ry="0" rx="0" stroke-width="1" stroke="#FFFFFF" height="2" width="32" y="-0.5" x="213.5" fill="#2f7ed8"></rect><rect ry="0" rx="0" stroke-width="1" stroke="#FFFFFF" height="2" width="32" y="-0.5" x="279.5" fill="#2f7ed8"></rect><rect ry="0" rx="0" stroke-width="1" stroke="#FFFFFF" height="1" width="32" y="-0.5" x="344.5" fill="#2f7ed8"></rect><rect ry="0" rx="0" stroke-width="1" stroke="#FFFFFF" height="16" width="32" y="-0.5" x="410.5" fill="#2f7ed8"></rect><rect ry="0" rx="0" stroke-width="1" stroke="#FFFFFF" height="1" width="32" y="-0.5" x="475.5" fill="#2f7ed8"></rect></g><g clip-path="none" transform="translate(65,60) scale(1 1)"  visibility="visible" class="highcharts-markers"></g><g clip-path="url(#highcharts-5)" style="" transform="translate(65,60) scale(1 1)"  visibility="visible" class="highcharts-series highcharts-tracker"><rect ry="0" rx="0" stroke-width="1" stroke="#FFFFFF" height="41" width="32" y="50.5" x="16.5" fill="#0d233a"></rect><rect ry="0" rx="0" stroke-width="1" stroke="#FFFFFF" height="66" width="32" y="11.5" x="82.5" fill="#0d233a"></rect><rect ry="0" rx="0" stroke-width="1" stroke="#FFFFFF" height="35" width="32" y="23.5" x="147.5" fill="#0d233a"></rect><rect ry="0" rx="0" stroke-width="1" stroke="#FFFFFF" height="59" width="32" y="1.5" x="213.5" fill="#0d233a"></rect><rect ry="0" rx="0" stroke-width="1" stroke="#FFFFFF" height="8" width="32" y="1.5" x="279.5" fill="#0d233a"></rect><rect ry="0" rx="0" stroke-width="1" stroke="#FFFFFF" height="3" width="32" y="-0.5" x="344.5" fill="#0d233a"></rect><rect ry="0" rx="0" stroke-width="1" stroke="#FFFFFF" height="0" width="32" y="15.5" x="410.5" fill="#0d233a"></rect><rect ry="0" rx="0" stroke-width="1" stroke="#FFFFFF" height="1" width="32" y="-0.5" x="475.5" fill="#0d233a"></rect></g><g clip-path="none" transform="translate(65,60) scale(1 1)"  visibility="visible" class="highcharts-markers"></g><g clip-path="url(#highcharts-5)" style="" transform="translate(65,60) scale(1 1)"  visibility="visible" class="highcharts-series highcharts-tracker"><rect ry="0" rx="0" stroke-width="1" stroke="#FFFFFF" height="18" width="32" y="91.5" x="16.5" fill="#8bbc21"></rect><rect ry="0" rx="0" stroke-width="1" stroke="#FFFFFF" height="40" width="32" y="77.5" x="82.5" fill="#8bbc21"></rect><rect ry="0" rx="0" stroke-width="1" stroke="#FFFFFF" height="35" width="32" y="58.5" x="147.5" fill="#8bbc21"></rect><rect ry="0" rx="0" stroke-width="1" stroke="#FFFFFF" height="84" width="32" y="60.5" x="213.5" fill="#8bbc21"></rect><rect ry="0" rx="0" stroke-width="1" stroke="#FFFFFF" height="150" width="32" y="9.5" x="279.5" fill="#8bbc21"></rect><rect ry="0" rx="0" stroke-width="1" stroke="#FFFFFF" height="169" width="32" y="2.5" x="344.5" fill="#8bbc21"></rect><rect ry="0" rx="0" stroke-width="1" stroke="#FFFFFF" height="129" width="32" y="15.5" x="410.5" fill="#8bbc21"></rect><rect ry="0" rx="0" stroke-width="1" stroke="#FFFFFF" height="127" width="32" y="-0.5" x="475.5" fill="#8bbc21"></rect></g><g clip-path="none" transform="translate(65,60) scale(1 1)"  visibility="visible" class="highcharts-markers"></g><g clip-path="url(#highcharts-5)" style="" transform="translate(65,60) scale(1 1)"  visibility="visible" class="highcharts-series highcharts-tracker"><rect ry="0" rx="0" stroke-width="1" stroke="#FFFFFF" height="26" width="32" y="109.5" x="16.5" fill="#910000"></rect><rect ry="0" rx="0" stroke-width="1" stroke="#FFFFFF" height="8" width="32" y="117.5" x="82.5" fill="#910000"></rect><rect ry="0" rx="0" stroke-width="1" stroke="#FFFFFF" height="0" width="32" y="93.5" x="147.5" fill="#910000"></rect><rect ry="0" rx="0" stroke-width="1" stroke="#FFFFFF" height="0" width="32" y="144.5" x="213.5" fill="#910000"></rect><rect ry="0" rx="0" stroke-width="1" stroke="#FFFFFF" height="0" width="32" y="159.5" x="279.5" fill="#910000"></rect><rect ry="0" rx="0" stroke-width="1" stroke="#FFFFFF" height="0" width="32" y="171.5" x="344.5" fill="#910000"></rect><rect ry="0" rx="0" stroke-width="1" stroke="#FFFFFF" height="0" width="32" y="144.5" x="410.5" fill="#910000"></rect><rect ry="0" rx="0" stroke-width="1" stroke="#FFFFFF" height="0" width="32" y="126.5" x="475.5" fill="#910000"></rect></g><g clip-path="none" transform="translate(65,60) scale(1 1)"  visibility="visible" class="highcharts-markers"></g><g clip-path="url(#highcharts-5)" style="" transform="translate(65,60) scale(1 1)"  visibility="visible" class="highcharts-series highcharts-tracker"><rect ry="0" rx="0" stroke-width="1" stroke="#FFFFFF" height="8" width="32" y="135.5" x="16.5" fill="#1aadce"></rect><rect ry="0" rx="0" stroke-width="1" stroke="#FFFFFF" height="3" width="32" y="125.5" x="82.5" fill="#1aadce"></rect><rect ry="0" rx="0" stroke-width="1" stroke="#FFFFFF" height="3" width="32" y="93.5" x="147.5" fill="#1aadce"></rect><rect ry="0" rx="0" stroke-width="1" stroke="#FFFFFF" height="0" width="32" y="144.5" x="213.5" fill="#1aadce"></rect><rect ry="0" rx="0" stroke-width="1" stroke="#FFFFFF" height="1" width="32" y="159.5" x="279.5" fill="#1aadce"></rect><rect ry="0" rx="0" stroke-width="1" stroke="#FFFFFF" height="0" width="32" y="171.5" x="344.5" fill="#1aadce"></rect><rect ry="0" rx="0" stroke-width="1" stroke="#FFFFFF" height="0" width="32" y="144.5" x="410.5" fill="#1aadce"></rect><rect ry="0" rx="0" stroke-width="1" stroke="#FFFFFF" height="0" width="32" y="126.5" x="475.5" fill="#1aadce"></rect></g><g clip-path="none" transform="translate(65,60) scale(1 1)"  visibility="visible" class="highcharts-markers"></g><g clip-path="url(#highcharts-5)" style="" transform="translate(65,60) scale(1 1)"  visibility="visible" class="highcharts-series highcharts-tracker"><rect ry="0" rx="0" stroke-width="1" stroke="#FFFFFF" height="1" width="32" y="143.5" x="16.5" fill="#492970"></rect><rect ry="0" rx="0" stroke-width="1" stroke="#FFFFFF" height="0" width="32" y="128.5" x="82.5" fill="#492970"></rect><rect ry="0" rx="0" stroke-width="1" stroke="#FFFFFF" height="6" width="32" y="96.5" x="147.5" fill="#492970"></rect><rect ry="0" rx="0" stroke-width="1" stroke="#FFFFFF" height="2" width="32" y="144.5" x="213.5" fill="#492970"></rect><rect ry="0" rx="0" stroke-width="1" stroke="#FFFFFF" height="4" width="32" y="160.5" x="279.5" fill="#492970"></rect><rect ry="0" rx="0" stroke-width="1" stroke="#FFFFFF" height="0" width="32" y="171.5" x="344.5" fill="#492970"></rect><rect ry="0" rx="0" stroke-width="1" stroke="#FFFFFF" height="0" width="32" y="144.5" x="410.5" fill="#492970"></rect><rect ry="0" rx="0" stroke-width="1" stroke="#FFFFFF" height="0" width="32" y="126.5" x="475.5" fill="#492970"></rect></g><g clip-path="none" transform="translate(65,60) scale(1 1)"  visibility="visible" class="highcharts-markers"></g><g clip-path="url(#highcharts-5)" style="" transform="translate(65,60) scale(1 1)"  visibility="visible" class="highcharts-series highcharts-tracker"><rect ry="0" rx="0" stroke-width="1" stroke="#FFFFFF" height="2" width="32" y="144.5" x="16.5" fill="#f28f43"></rect><rect ry="0" rx="0" stroke-width="1" stroke="#FFFFFF" height="17" width="32" y="128.5" x="82.5" fill="#f28f43"></rect><rect ry="0" rx="0" stroke-width="1" stroke="#FFFFFF" height="3" width="32" y="102.5" x="147.5" fill="#f28f43"></rect><rect ry="0" rx="0" stroke-width="1" stroke="#FFFFFF" height="17" width="32" y="146.5" x="213.5" fill="#f28f43"></rect><rect ry="0" rx="0" stroke-width="1" stroke="#FFFFFF" height="0" width="32" y="164.5" x="279.5" fill="#f28f43"></rect><rect ry="0" rx="0" stroke-width="1" stroke="#FFFFFF" height="0" width="32" y="171.5" x="344.5" fill="#f28f43"></rect><rect ry="0" rx="0" stroke-width="1" stroke="#FFFFFF" height="31" width="32" y="144.5" x="410.5" fill="#f28f43"></rect><rect ry="0" rx="0" stroke-width="1" stroke="#FFFFFF" height="39" width="32" y="126.5" x="475.5" fill="#f28f43"></rect></g><g clip-path="none" transform="translate(65,60) scale(1 1)"  visibility="visible" class="highcharts-markers"></g><g clip-path="url(#highcharts-5)" style="" transform="translate(65,60) scale(1 1)"  visibility="visible" class="highcharts-series highcharts-tracker"><rect ry="0" rx="0" stroke-width="1" stroke="#FFFFFF" height="2" width="32" y="146.5" x="16.5" fill="#77a1e5"></rect><rect ry="0" rx="0" stroke-width="1" stroke="#FFFFFF" height="2" width="32" y="145.5" x="82.5" fill="#77a1e5"></rect><rect ry="0" rx="0" stroke-width="1" stroke="#FFFFFF" height="7" width="32" y="105.5" x="147.5" fill="#77a1e5"></rect><rect ry="0" rx="0" stroke-width="1" stroke="#FFFFFF" height="2" width="32" y="163.5" x="213.5" fill="#77a1e5"></rect><rect ry="0" rx="0" stroke-width="1" stroke="#FFFFFF" height="0" width="32" y="164.5" x="279.5" fill="#77a1e5"></rect><rect ry="0" rx="0" stroke-width="1" stroke="#FFFFFF" height="0" width="32" y="171.5" x="344.5" fill="#77a1e5"></rect><rect ry="0" rx="0" stroke-width="1" stroke="#FFFFFF" height="0" width="32" y="175.5" x="410.5" fill="#77a1e5"></rect><rect ry="0" rx="0" stroke-width="1" stroke="#FFFFFF" height="0" width="32" y="165.5" x="475.5" fill="#77a1e5"></rect></g><g clip-path="none" transform="translate(65,60) scale(1 1)"  visibility="visible" class="highcharts-markers"></g><g clip-path="url(#highcharts-5)" style="" transform="translate(65,60) scale(1 1)"  visibility="visible" class="highcharts-series highcharts-tracker"><rect ry="0" rx="0" stroke-width="1" stroke="#FFFFFF" height="1" width="32" y="148.5" x="16.5" fill="#c42525"></rect><rect ry="0" rx="0" stroke-width="1" stroke="#FFFFFF" height="0" width="32" y="147.5" x="82.5" fill="#c42525"></rect><rect ry="0" rx="0" stroke-width="1" stroke="#FFFFFF" height="3" width="32" y="112.5" x="147.5" fill="#c42525"></rect><rect ry="0" rx="0" stroke-width="1" stroke="#FFFFFF" height="0" width="32" y="165.5" x="213.5" fill="#c42525"></rect><rect ry="0" rx="0" stroke-width="1" stroke="#FFFFFF" height="2" width="32" y="164.5" x="279.5" fill="#c42525"></rect><rect ry="0" rx="0" stroke-width="1" stroke="#FFFFFF" height="0" width="32" y="171.5" x="344.5" fill="#c42525"></rect><rect ry="0" rx="0" stroke-width="1" stroke="#FFFFFF" height="0" width="32" y="175.5" x="410.5" fill="#c42525"></rect><rect ry="0" rx="0" stroke-width="1" stroke="#FFFFFF" height="0" width="32" y="165.5" x="475.5" fill="#c42525"></rect></g><g clip-path="none" transform="translate(65,60) scale(1 1)"  visibility="visible" class="highcharts-markers"></g><g clip-path="url(#highcharts-5)" style="" transform="translate(65,60) scale(1 1)"  visibility="visible" class="highcharts-series highcharts-tracker"><rect ry="0" rx="0" stroke-width="1" stroke="#FFFFFF" height="1" width="32" y="149.5" x="16.5" fill="#a6c96a"></rect><rect ry="0" rx="0" stroke-width="1" stroke="#FFFFFF" height="1" width="32" y="147.5" x="82.5" fill="#a6c96a"></rect><rect ry="0" rx="0" stroke-width="1" stroke="#FFFFFF" height="0" width="32" y="115.5" x="147.5" fill="#a6c96a"></rect><rect ry="0" rx="0" stroke-width="1" stroke="#FFFFFF" height="0" width="32" y="165.5" x="213.5" fill="#a6c96a"></rect><rect ry="0" rx="0" stroke-width="1" stroke="#FFFFFF" height="0" width="32" y="166.5" x="279.5" fill="#a6c96a"></rect><rect ry="0" rx="0" stroke-width="1" stroke="#FFFFFF" height="0" width="32" y="171.5" x="344.5" fill="#a6c96a"></rect><rect ry="0" rx="0" stroke-width="1" stroke="#FFFFFF" height="0" width="32" y="175.5" x="410.5" fill="#a6c96a"></rect><rect ry="0" rx="0" stroke-width="1" stroke="#FFFFFF" height="0" width="32" y="165.5" x="475.5" fill="#a6c96a"></rect></g><g clip-path="none" transform="translate(65,60) scale(1 1)"  visibility="visible" class="highcharts-markers"></g><g clip-path="url(#highcharts-5)" style="" transform="translate(65,60) scale(1 1)"  visibility="visible" class="highcharts-series highcharts-tracker"><rect ry="0" rx="0" stroke-width="1" stroke="#FFFFFF" height="3" width="32" y="150.5" x="16.5" fill="#2f7ed8"></rect><rect ry="0" rx="0" stroke-width="1" stroke="#FFFFFF" height="16" width="32" y="148.5" x="82.5" fill="#2f7ed8"></rect><rect ry="0" rx="0" stroke-width="1" stroke="#FFFFFF" height="6" width="32" y="115.5" x="147.5" fill="#2f7ed8"></rect><rect ry="0" rx="0" stroke-width="1" stroke="#FFFFFF" height="4" width="32" y="165.5" x="213.5" fill="#2f7ed8"></rect><rect ry="0" rx="0" stroke-width="1" stroke="#FFFFFF" height="3" width="32" y="166.5" x="279.5" fill="#2f7ed8"></rect><rect ry="0" rx="0" stroke-width="1" stroke="#FFFFFF" height="1" width="32" y="171.5" x="344.5" fill="#2f7ed8"></rect><rect ry="0" rx="0" stroke-width="1" stroke="#FFFFFF" height="0" width="32" y="175.5" x="410.5" fill="#2f7ed8"></rect><rect ry="0" rx="0" stroke-width="1" stroke="#FFFFFF" height="0" width="32" y="165.5" x="475.5" fill="#2f7ed8"></rect></g><g clip-path="none" transform="translate(65,60) scale(1 1)"  visibility="visible" class="highcharts-markers"></g><g clip-path="url(#highcharts-5)" style="" transform="translate(65,60) scale(1 1)"  visibility="visible" class="highcharts-series highcharts-tracker"><rect ry="0" rx="0" stroke-width="1" stroke="#FFFFFF" height="3" width="32" y="153.5" x="16.5" fill="#0d233a"></rect><rect ry="0" rx="0" stroke-width="1" stroke="#FFFFFF" height="2" width="32" y="164.5" x="82.5" fill="#0d233a"></rect><rect ry="0" rx="0" stroke-width="1" stroke="#FFFFFF" height="4" width="32" y="121.5" x="147.5" fill="#0d233a"></rect><rect ry="0" rx="0" stroke-width="1" stroke="#FFFFFF" height="4" width="32" y="169.5" x="213.5" fill="#0d233a"></rect><rect ry="0" rx="0" stroke-width="1" stroke="#FFFFFF" height="0" width="32" y="169.5" x="279.5" fill="#0d233a"></rect><rect ry="0" rx="0" stroke-width="1" stroke="#FFFFFF" height="0" width="32" y="172.5" x="344.5" fill="#0d233a"></rect><rect ry="0" rx="0" stroke-width="1" stroke="#FFFFFF" height="0" width="32" y="175.5" x="410.5" fill="#0d233a"></rect><rect ry="0" rx="0" stroke-width="1" stroke="#FFFFFF" height="0" width="32" y="165.5" x="475.5" fill="#0d233a"></rect></g><g clip-path="none" transform="translate(65,60) scale(1 1)"  visibility="visible" class="highcharts-markers"></g><g clip-path="url(#highcharts-5)" style="" transform="translate(65,60) scale(1 1)"  visibility="visible" class="highcharts-series highcharts-tracker"><rect ry="0" rx="0" stroke-width="1" stroke="#FFFFFF" height="9" width="32" y="156.5" x="16.5" fill="#8bbc21"></rect><rect ry="0" rx="0" stroke-width="1" stroke="#FFFFFF" height="6" width="32" y="166.5" x="82.5" fill="#8bbc21"></rect><rect ry="0" rx="0" stroke-width="1" stroke="#FFFFFF" height="45" width="32" y="125.5" x="147.5" fill="#8bbc21"></rect><rect ry="0" rx="0" stroke-width="1" stroke="#FFFFFF" height="2" width="32" y="173.5" x="213.5" fill="#8bbc21"></rect><rect ry="0" rx="0" stroke-width="1" stroke="#FFFFFF" height="2" width="32" y="169.5" x="279.5" fill="#8bbc21"></rect><rect ry="0" rx="0" stroke-width="1" stroke="#FFFFFF" height="0" width="32" y="172.5" x="344.5" fill="#8bbc21"></rect><rect ry="0" rx="0" stroke-width="1" stroke="#FFFFFF" height="0" width="32" y="175.5" x="410.5" fill="#8bbc21"></rect><rect ry="0" rx="0" stroke-width="1" stroke="#FFFFFF" height="0" width="32" y="165.5" x="475.5" fill="#8bbc21"></rect></g><g clip-path="none" transform="translate(65,60) scale(1 1)"  visibility="visible" class="highcharts-markers"></g><g clip-path="url(#highcharts-5)" style="" transform="translate(65,60) scale(1 1)"  visibility="visible" class="highcharts-series highcharts-tracker"><rect ry="0" rx="0" stroke-width="1" stroke="#FFFFFF" height="10" width="32" y="165.5" x="16.5" fill="#910000"></rect><rect ry="0" rx="0" stroke-width="1" stroke="#FFFFFF" height="3" width="32" y="172.5" x="82.5" fill="#910000"></rect><rect ry="0" rx="0" stroke-width="1" stroke="#FFFFFF" height="5" width="32" y="170.5" x="147.5" fill="#910000"></rect><rect ry="0" rx="0" stroke-width="1" stroke="#FFFFFF" height="0" width="32" y="175.5" x="213.5" fill="#910000"></rect><rect ry="0" rx="0" stroke-width="1" stroke="#FFFFFF" height="4" width="32" y="171.5" x="279.5" fill="#910000"></rect><rect ry="0" rx="0" stroke-width="1" stroke="#FFFFFF" height="3" width="32" y="172.5" x="344.5" fill="#910000"></rect><rect ry="0" rx="0" stroke-width="1" stroke="#FFFFFF" height="0" width="32" y="175.5" x="410.5" fill="#910000"></rect><rect ry="0" rx="0" stroke-width="1" stroke="#FFFFFF" height="10" width="32" y="165.5" x="475.5" fill="#910000"></rect></g><g clip-path="none" transform="translate(65,60) scale(1 1)"  visibility="visible" class="highcharts-markers"></g></g><text  class="highcharts-title" text-anchor="middle" style="font-family:'lucida grande', 'lucida sans unicode', verdana, arial, helvetica, sans-serif;font-size:16px;color:#274b6d;fill:#274b6d;" y="25" x="300"><tspan x="300">Vzrok smrti judovskih in ostalih žrtev druge svetovne vojne v</tspan><tspan x="300" dy="16">Sloveniji glede na spol</tspan></text><g transform="translate(30,314)"  class="highcharts-legend"><rect visibility="visible" stroke-width="1" stroke="#909090" height="70" width="539" y="0.5" x="0.5" fill="none" ry="5" rx="5"></rect><g ><g><g transform="translate(8,3)"  class="highcharts-legend-item"><text  text-anchor="start" style="font-family:'lucida grande', 'lucida sans unicode', verdana, arial, helvetica, sans-serif;font-size:12px;cursor:pointer;color:#274b6d;fill:#274b6d;" y="15" x="21"><tspan x="21">oboroženi spopadi</tspan></text><rect  height="12" width="16" y="4" x="0" fill="#2f7ed8" ry="2" rx="2"></rect></g><g transform="translate(147.01667022705078,3)"  class="highcharts-legend-item"><text  text-anchor="start" style="font-family:'lucida grande', 'lucida sans unicode', verdana, arial, helvetica, sans-serif;font-size:12px;cursor:pointer;color:#274b6d;fill:#274b6d;" y="15" x="21"><tspan x="21">ubiti med vojno</tspan></text><rect  height="12" width="16" y="4" x="0" fill="#0d233a" ry="2" rx="2"></rect></g><g transform="translate(268.46666717529297,3)"  class="highcharts-legend-item"><text  text-anchor="start" style="font-family:'lucida grande', 'lucida sans unicode', verdana, arial, helvetica, sans-serif;font-size:12px;cursor:pointer;color:#274b6d;fill:#274b6d;" y="15" x="21"><tspan x="21">koncentracijska taborišča</tspan></text><rect  height="12" width="16" y="4" x="0" fill="#8bbc21" ry="2" rx="2"></rect></g><g transform="translate(8,18)"  class="highcharts-legend-item"><text  text-anchor="start" style="font-family:'lucida grande', 'lucida sans unicode', verdana, arial, helvetica, sans-serif;font-size:12px;cursor:pointer;color:#274b6d;fill:#274b6d;" y="15" x="21"><tspan x="21">množični poboji po vojni</tspan></text><rect  height="12" width="16" y="4" x="0" fill="#910000" ry="2" rx="2"></rect></g><g transform="translate(182.75,18)"  class="highcharts-legend-item"><text  text-anchor="start" style="font-family:'lucida grande', 'lucida sans unicode', verdana, arial, helvetica, sans-serif;font-size:12px;cursor:pointer;color:#274b6d;fill:#274b6d;" y="15" x="21"><tspan x="21">talci</tspan></text><rect  height="12" width="16" y="4" x="0" fill="#1aadce" ry="2" rx="2"></rect></g><g transform="translate(236.9166660308838,18)"  class="highcharts-legend-item"><text  text-anchor="start" style="font-family:'lucida grande', 'lucida sans unicode', verdana, arial, helvetica, sans-serif;font-size:12px;cursor:pointer;color:#274b6d;fill:#274b6d;" y="15" x="21"><tspan x="21">prisilno delo</tspan></text><rect  height="12" width="16" y="4" x="0" fill="#492970" ry="2" rx="2"></rect></g><g transform="translate(339.5499973297119,18)"  class="highcharts-legend-item"><text  text-anchor="start" style="font-family:'lucida grande', 'lucida sans unicode', verdana, arial, helvetica, sans-serif;font-size:12px;cursor:pointer;color:#274b6d;fill:#274b6d;" y="15" x="21"><tspan x="21">izgnanstvo</tspan></text><rect  height="12" width="16" y="4" x="0" fill="#f28f43" ry="2" rx="2"></rect></g><g transform="translate(432.9999942779541,18)"  class="highcharts-legend-item"><text  text-anchor="start" style="font-family:'lucida grande', 'lucida sans unicode', verdana, arial, helvetica, sans-serif;font-size:12px;cursor:pointer;color:#274b6d;fill:#274b6d;" y="15" x="21"><tspan x="21">zapor</tspan></text><rect  height="12" width="16" y="4" x="0" fill="#77a1e5" ry="2" rx="2"></rect></g><g transform="translate(8,33)"  class="highcharts-legend-item"><text  text-anchor="start" style="font-family:'lucida grande', 'lucida sans unicode', verdana, arial, helvetica, sans-serif;font-size:12px;cursor:pointer;color:#274b6d;fill:#274b6d;" y="15" x="21"><tspan x="21">vojno ujetništvo</tspan></text><rect  height="12" width="16" y="4" x="0" fill="#c42525" ry="2" rx="2"></rect></g><g transform="translate(131.13333129882812,33)"  class="highcharts-legend-item"><text  text-anchor="start" style="font-family:'lucida grande', 'lucida sans unicode', verdana, arial, helvetica, sans-serif;font-size:12px;cursor:pointer;color:#274b6d;fill:#274b6d;" y="15" x="21"><tspan x="21">represalije</tspan></text><rect  height="12" width="16" y="4" x="0" fill="#a6c96a" ry="2" rx="2"></rect></g><g transform="translate(221.8499984741211,33)"  class="highcharts-legend-item"><text  text-anchor="start" style="font-family:'lucida grande', 'lucida sans unicode', verdana, arial, helvetica, sans-serif;font-size:12px;cursor:pointer;color:#274b6d;fill:#274b6d;" y="15" x="21"><tspan x="21">bombardiranje</tspan></text><rect  height="12" width="16" y="4" x="0" fill="#2f7ed8" ry="2" rx="2"></rect></g><g transform="translate(337.3333282470703,33)"  class="highcharts-legend-item"><text  text-anchor="start" style="font-family:'lucida grande', 'lucida sans unicode', verdana, arial, helvetica, sans-serif;font-size:12px;cursor:pointer;color:#274b6d;fill:#274b6d;" y="15" x="21"><tspan x="21">nesreče</tspan></text><rect  height="12" width="16" y="4" x="0" fill="#0d233a" ry="2" rx="2"></rect></g><g transform="translate(411.9666633605957,33)"  class="highcharts-legend-item"><text  text-anchor="start" style="font-family:'lucida grande', 'lucida sans unicode', verdana, arial, helvetica, sans-serif;font-size:12px;cursor:pointer;color:#274b6d;fill:#274b6d;" y="15" x="21"><tspan x="21">pogrešane osebe</tspan></text><rect  height="12" width="16" y="4" x="0" fill="#8bbc21" ry="2" rx="2"></rect></g><g transform="translate(8,48)"  class="highcharts-legend-item"><text  text-anchor="start" style="font-family:'lucida grande', 'lucida sans unicode', verdana, arial, helvetica, sans-serif;font-size:12px;cursor:pointer;color:#274b6d;fill:#274b6d;" y="15" x="21"><tspan x="21">neugotovljeno</tspan></text><rect  height="12" width="16" y="4" x="0" fill="#910000" ry="2" rx="2"></rect></g></g></g></g><g  class="highcharts-axis-labels"><text opacity="1" text-anchor="middle" style="font-family:'lucida grande', 'lucida sans unicode', verdana, arial, helvetica, sans-serif;font-size:11px;color:#666;cursor:default;line-height:14px;fill:#666;" y="249" x="97.8125"><tspan x="97.8125">Slovenija</tspan><tspan x="97.8125" dy="14">(moški)</tspan></text><text opacity="1" text-anchor="middle" style="font-family:'lucida grande', 'lucida sans unicode', verdana, arial, helvetica, sans-serif;font-size:11px;color:#666;cursor:default;line-height:14px;fill:#666;" y="249" x="163.4375"><tspan x="163.4375">Slovenija</tspan><tspan x="163.4375" dy="14">(ženske)</tspan></text><text opacity="1" text-anchor="middle" style="font-family:'lucida grande', 'lucida sans unicode', verdana, arial, helvetica, sans-serif;font-size:11px;color:#666;cursor:default;line-height:14px;fill:#666;" y="249" x="229.0625"><tspan x="229.0625">Prekmurje</tspan><tspan x="229.0625" dy="14">(Slovenci</tspan><tspan x="229.0625" dy="14">moški)</tspan></text><text opacity="1" text-anchor="middle" style="font-family:'lucida grande', 'lucida sans unicode', verdana, arial, helvetica, sans-serif;font-size:11px;color:#666;cursor:default;line-height:14px;fill:#666;" y="249" x="294.6875"><tspan x="294.6875">Prekmurje</tspan><tspan x="294.6875" dy="14">(Slovenci</tspan><tspan x="294.6875" dy="14">ženske)</tspan></text><text opacity="1" text-anchor="middle" style="font-family:'lucida grande', 'lucida sans unicode', verdana, arial, helvetica, sans-serif;font-size:11px;color:#666;cursor:default;line-height:14px;fill:#666;" y="249" x="360.3125"><tspan x="360.3125">Prekmurje</tspan><tspan x="360.3125" dy="14">(Judje</tspan><tspan x="360.3125" dy="14">moški)</tspan></text><text opacity="1" text-anchor="middle" style="font-family:'lucida grande', 'lucida sans unicode', verdana, arial, helvetica, sans-serif;font-size:11px;color:#666;cursor:default;line-height:14px;fill:#666;" y="249" x="425.9375"><tspan x="425.9375">Prekmurje</tspan><tspan x="425.9375" dy="14">(Judje</tspan><tspan x="425.9375" dy="14">ženske)</tspan></text><text opacity="1" text-anchor="middle" style="font-family:'lucida grande', 'lucida sans unicode', verdana, arial, helvetica, sans-serif;font-size:11px;color:#666;cursor:default;line-height:14px;fill:#666;" y="249" x="491.5625"><tspan x="491.5625">Slovenija</tspan><tspan x="491.5625" dy="14">brez</tspan><tspan x="491.5625" dy="14">Prekmurja</tspan><tspan x="491.5625" dy="14">(Judje</tspan><tspan x="491.5625" dy="14">moški)</tspan></text><text opacity="1" text-anchor="middle" style="font-family:'lucida grande', 'lucida sans unicode', verdana, arial, helvetica, sans-serif;font-size:11px;color:#666;cursor:default;line-height:14px;fill:#666;" y="249" x="557.1875"><tspan x="557.1875">Slovenija</tspan><tspan x="557.1875" dy="14">brez</tspan><tspan x="557.1875" dy="14">Prekmurja</tspan><tspan x="557.1875" dy="14">(Judje</tspan><tspan x="557.1875" dy="14">ženske)</tspan></text></g><g  class="highcharts-axis-labels"><text opacity="1" text-anchor="end" style="font-family:'lucida grande', 'lucida sans unicode', verdana, arial, helvetica, sans-serif;font-size:11px;color:#666;cursor:default;line-height:14px;fill:#666;" y="240.25" x="57"><tspan x="57">0</tspan></text><text opacity="1" text-anchor="end" style="font-family:'lucida grande', 'lucida sans unicode', verdana, arial, helvetica, sans-serif;font-size:11px;color:#666;cursor:default;line-height:14px;fill:#666;" y="65.25" x="57"><tspan x="57">100</tspan></text><text opacity="1" text-anchor="end" style="font-family:'lucida grande', 'lucida sans unicode', verdana, arial, helvetica, sans-serif;font-size:11px;color:#666;cursor:default;line-height:14px;fill:#666;" y="152.75" x="57"><tspan x="57">50</tspan></text></g><g transform="translate(0,-999)" style="cursor:default;padding:0;white-space:nowrap;"  class="highcharts-tooltip"><rect transform="translate(1, 1)" stroke-width="5" stroke-opacity="0.049999999999999996" stroke="black"  fill-opacity="0.85" height="16" width="16" y="0.5" x="0.5" fill="none" ry="3" rx="3"></rect><rect transform="translate(1, 1)" stroke-width="3" stroke-opacity="0.09999999999999999" stroke="black"  fill-opacity="0.85" height="16" width="16" y="0.5" x="0.5" fill="none" ry="3" rx="3"></rect><rect transform="translate(1, 1)" stroke-width="1" stroke-opacity="0.15" stroke="black"  fill-opacity="0.85" height="16" width="16" y="0.5" x="0.5" fill="none" ry="3" rx="3"></rect><rect fill-opacity="0.85" height="16" width="16" y="0.5" x="0.5" fill="rgb(255,255,255)" ry="3" rx="3"></rect><text  style="font-family:'lucida grande', 'lucida sans unicode', verdana, arial, helvetica, sans-serif;font-size:12px;color:#333333;fill:#333333;" y="21" x="8"></text></g></svg>