<?xml version="1.0" standalone="no"?><!DOCTYPE svg PUBLIC "-//W3C//DTD SVG 1.1//EN" "http://www.w3.org/Graphics/SVG/1.1/DTD/svg11.dtd"><svg xmlns:xlink="http://www.w3.org/1999/xlink" height="400" width="600" xmlns="http://www.w3.org/2000/svg" version="1.1"><desc>Created with Highcharts 3.0.7</desc><defs><clipPath id="highcharts-5"><rect height="309" width="580" y="0" x="0" fill="none"></rect></clipPath></defs><rect height="400" width="600" y="0" x="0" fill="#FFFFFF" ry="0" rx="0"></rect><g  class="highcharts-series-group"><g style="cursor:pointer;" transform="translate(10,40) scale(1 1)"  visibility="visible" class="highcharts-series highcharts-tracker"><path visibility="visible" stroke-width="1" stroke="#2f7ed8" d="M 302.1697580235879 10.175550334596522 C 297.1697580235879 10.175550334596522 296.77823540113945 18.16596396820217 296.2398917952728 29.15278271440994 L 295.70154818940614 40.13960146061771" fill="none"></path><path visibility="visible" stroke-width="1" stroke="#0d233a" d="M 396.6718621723997 51.024493637638514 C 391.6718621723997 51.024493637638514 386.119815091313 56.78424825128282 378.48575035481883 64.70391084504375 L 370.85168561832467 72.62357343880468" fill="none"></path><path visibility="visible" stroke-width="1" stroke="#8bbc21" d="M 327.5993168246001 299.32693913463714 C 322.5993168246001 299.32693913463714 320.8191493529496 291.5275158371826 318.3714190794301 280.8033088031825 L 315.9236888059106 270.07910176918244" fill="none"></path><path visibility="visible" stroke-width="1" stroke="#910000" d="M 149.5945346533126 100.57496129418384 C 154.5945346533126 100.57496129418384 161.98868975756855 103.6288883224878 172.15565302592051 107.82803798640573 L 182.32261629427248 112.02718765032367" fill="none"></path><path visibility="visible" stroke-width="1" stroke="#1aadce" d="M 250.65497111349956 14.082764418117392 C 255.65497111349956 14.082764418117392 257.53046757146546 21.859814825319177 260.10927520116854 32.55325913522162 L 262.6880828308716 43.24670344512407" fill="none"></path><path transform="translate(0,0)" stroke-linejoin="round" stroke-width="1" stroke="#FFFFFF" d="M 289.97627207176953 40.5000024163716 A 116.5 116.5 0 0 1 301.25917064588106 41.04534905245529 L 290 157 A 0 0 0 0 0 290 157 Z" fill="#2f7ed8"></path><path transform="translate(0,0)" stroke-linejoin="round" stroke-width="1" stroke="#FFFFFF" d="M 301.375119647918 41.05666619854529 A 116.5 116.5 0 0 1 405.42426759671304 141.20479662168356 L 290 157 A 0 0 0 0 0 290 157 Z" fill="#0d233a"></path><path transform="translate(0,0)" stroke-linejoin="round" stroke-width="1" stroke="#FFFFFF" d="M 405.44000508532986 141.32022876764393 A 116.5 116.5 0 0 1 179.25363232101034 193.15925947679284 L 290 157 A 0 0 0 0 0 290 157 Z" fill="#8bbc21"></path><path transform="translate(0,0)" stroke-linejoin="round" stroke-width="1" stroke="#FFFFFF" d="M 179.21752844073933 193.04849504794336 A 116.5 116.5 0 0 1 236.7833840676705 53.36486219090102 L 290 157 A 0 0 0 0 0 290 157 Z" fill="#910000"></path><path transform="translate(0,0)" stroke-linejoin="round" stroke-width="1" stroke="#FFFFFF" d="M 236.88704579651287 53.31169740140271 A 116.5 116.5 0 0 1 289.8381838372147 40.500112379756075 L 290 157 A 0 0 0 0 0 290 157 Z" fill="#1aadce"></path></g><g transform="translate(10,40) scale(1 1)"  visibility="visible" class="highcharts-markers"></g></g><text  class="highcharts-title" text-anchor="middle" style="font-family:'lucida grande', 'lucida sans unicode', verdana, arial, helvetica, sans-serif;font-size:16px;color:#274b6d;fill:#274b6d;" y="25" x="300"><tspan x="300">Družinski stan Judov iz Dravske banovine leta 1937</tspan></text><g style="cursor:pointer;" transform="translate(10,40) scale(1 1)"  visibility="visible" class="highcharts-data-labels highcharts-tracker"><g visibility="visible" transform="translate(307,0)" style="cursor:pointer;" ><text  style="font-family:'lucida grande', 'lucida sans unicode', verdana, arial, helvetica, sans-serif;font-size:11px;color:#666;line-height:14px;fill:#666;" y="15" x="3"><tspan x="3">ločeni</tspan></text></g><g visibility="visible" transform="translate(402,41)" style="cursor:pointer;" ><text  style="font-family:'lucida grande', 'lucida sans unicode', verdana, arial, helvetica, sans-serif;font-size:11px;color:#666;line-height:14px;fill:#666;" y="15" x="3"><tspan x="3">mladoletni</tspan></text></g><g visibility="visible" transform="translate(333,289)" style="cursor:pointer;" ><text  style="font-family:'lucida grande', 'lucida sans unicode', verdana, arial, helvetica, sans-serif;font-size:11px;color:#666;line-height:14px;fill:#666;" y="15" x="3"><tspan x="3">poročeni</tspan></text></g><g visibility="visible" transform="translate(103,91)" style="cursor:pointer;" ><text  style="font-family:'lucida grande', 'lucida sans unicode', verdana, arial, helvetica, sans-serif;font-size:11px;color:#666;line-height:14px;fill:#666;" y="15" x="3"><tspan x="3">samski</tspan></text></g><g visibility="visible" transform="translate(201,4)" style="cursor:pointer;" ><text  style="font-family:'lucida grande', 'lucida sans unicode', verdana, arial, helvetica, sans-serif;font-size:11px;color:#666;line-height:14px;fill:#666;" y="15" x="3"><tspan x="3">vdovski</tspan></text></g></g><g transform="translate(105,359)"  class="highcharts-legend"><rect visibility="visible" stroke-width="1" stroke="#909090" height="25" width="388" y="0.5" x="0.5" fill="none" ry="5" rx="5"></rect><g ><g><g transform="translate(8,3)"  class="highcharts-legend-item"><text  text-anchor="start" style="font-family:'lucida grande', 'lucida sans unicode', verdana, arial, helvetica, sans-serif;font-size:12px;cursor:pointer;color:#274b6d;fill:#274b6d;" y="15" x="21"><tspan x="21">ločeni</tspan></text><rect  height="12" width="16" y="4" x="0" fill="#2f7ed8" ry="2" rx="2"></rect></g><g transform="translate(72.54999923706055,3)"  class="highcharts-legend-item"><text  text-anchor="start" style="font-family:'lucida grande', 'lucida sans unicode', verdana, arial, helvetica, sans-serif;font-size:12px;cursor:pointer;color:#274b6d;fill:#274b6d;" y="15" x="21"><tspan x="21">mladoletni</tspan></text><rect  height="12" width="16" y="4" x="0" fill="#0d233a" ry="2" rx="2"></rect></g><g transform="translate(164.28333282470703,3)"  class="highcharts-legend-item"><text  text-anchor="start" style="font-family:'lucida grande', 'lucida sans unicode', verdana, arial, helvetica, sans-serif;font-size:12px;cursor:pointer;color:#274b6d;fill:#274b6d;" y="15" x="21"><tspan x="21">poročeni</tspan></text><rect  height="12" width="16" y="4" x="0" fill="#8bbc21" ry="2" rx="2"></rect></g><g transform="translate(245.18333435058594,3)"  class="highcharts-legend-item"><text  text-anchor="start" style="font-family:'lucida grande', 'lucida sans unicode', verdana, arial, helvetica, sans-serif;font-size:12px;cursor:pointer;color:#274b6d;fill:#274b6d;" y="15" x="21"><tspan x="21">samski</tspan></text><rect  height="12" width="16" y="4" x="0" fill="#910000" ry="2" rx="2"></rect></g><g transform="translate(315.70000076293945,3)"  class="highcharts-legend-item"><text  text-anchor="start" style="font-family:'lucida grande', 'lucida sans unicode', verdana, arial, helvetica, sans-serif;font-size:12px;cursor:pointer;color:#274b6d;fill:#274b6d;" y="15" x="21"><tspan x="21">vdovski</tspan></text><rect  height="12" width="16" y="4" x="0" fill="#1aadce" ry="2" rx="2"></rect></g></g></g></g><g transform="translate(0,-999)" style="cursor:default;padding:0;white-space:nowrap;"  class="highcharts-tooltip"><rect transform="translate(1, 1)" stroke-width="5" stroke-opacity="0.049999999999999996" stroke="black"  fill-opacity="0.85" height="16" width="16" y="0.5" x="0.5" fill="none" ry="3" rx="3"></rect><rect transform="translate(1, 1)" stroke-width="3" stroke-opacity="0.09999999999999999" stroke="black"  fill-opacity="0.85" height="16" width="16" y="0.5" x="0.5" fill="none" ry="3" rx="3"></rect><rect transform="translate(1, 1)" stroke-width="1" stroke-opacity="0.15" stroke="black"  fill-opacity="0.85" height="16" width="16" y="0.5" x="0.5" fill="none" ry="3" rx="3"></rect><rect fill-opacity="0.85" height="16" width="16" y="0.5" x="0.5" fill="rgb(255,255,255)" ry="3" rx="3"></rect><text  style="font-family:'lucida grande', 'lucida sans unicode', verdana, arial, helvetica, sans-serif;font-size:12px;color:#333333;fill:#333333;" y="21" x="8"></text></g></svg>